<svg width="565" height="386" viewBox="0 0 565 386" fill="none" xmlns="http://www.w3.org/2000/svg">
    <path opacity=".2" d="m1 348 .263-12.79.788-12.768 1.312-12.723 1.834-12.656 2.35-12.568 2.865-12.457 3.373-12.326 3.874-12.172 4.369-11.997 4.854-11.802 5.33-11.587 5.798-11.351 6.254-11.096 6.697-10.823 7.128-10.531 7.546-10.22 7.949-9.893 8.337-9.55 8.71-9.19 9.067-8.815 9.405-8.426 9.727-8.022 10.03-7.607 10.314-7.18 10.579-6.74 10.824-6.29 11.049-5.832 11.252-5.363 11.436-4.89 11.597-4.406 11.738-3.919 11.855-3.426 11.952-2.93 12.026-2.43 12.078-1.93 12.107-1.427 12.114-.924 12.098-.424 12.062.076 12.002.572 11.921 1.065 11.818 1.552 11.693 2.035 11.548 2.509 11.381 2.976 11.195 3.435 10.988 3.885 10.761 4.324 10.517 4.752 10.253 5.168 9.971 5.571 9.672 5.961 9.356 6.337 9.026 6.697 8.678 7.042 8.317 7.37 7.942 7.683 7.554 7.977 7.154 8.253 6.743 8.511 6.321 8.75 5.889 8.969 5.45 9.169 5.002 9.348 4.547 9.508 4.087 9.646 3.622 9.764 3.153 9.86 2.681 9.935 2.207 9.989 1.732 10.021 1.257 10.033.783 10.023.311 9.991-.158 9.938-.623 9.865-1.083 9.771-1.538 9.656-1.985 9.521-2.426 9.367-2.857 9.192-3.279 8.999-3.691 8.787-4.091 8.557-4.481 8.31-4.856 8.045-5.218 7.764-5.567 7.467-5.9 7.156-6.218 6.829-6.519 6.49-6.803 6.136-7.071 5.772-7.319 5.395-7.55 5.009-7.762 4.612-7.954 4.206-8.126 3.794-8.279 3.373-8.411 2.947-8.523 2.515-8.613 2.079-8.683 1.641-8.731 1.199-8.759.756-8.765.313-8.749-.129-8.714-.571-8.656-1.01-8.577-1.444-8.479-1.876-8.359-2.302-8.219-2.721-8.059-3.133-7.879-3.538-7.681-3.934-7.464-4.319-7.228-4.694-6.975-5.059-6.703-5.41-6.417-5.749-6.113-6.074-5.794-6.385-5.461-6.68-5.113-6.96-4.753-7.224-4.379-7.47-3.995-7.7-3.599-7.911-3.193-8.103-2.779-8.277-2.355-8.432-1.925-8.566-1.489-8.682-1.045-8.775-.6-8.85-.148-8.904.304-8.936.759-8.947 1.215-8.938 1.669-8.908 2.124-8.856 2.575-8.784 3.024-8.691 3.467-8.577 3.907-8.442 4.34-8.288 4.766-8.114 5.184-7.919 5.594-7.706 5.993-7.474 6.382-7.223 6.759-6.954 7.125-6.668 7.477-6.365 7.815-6.046 8.139-5.712 8.448-5.361 8.74-4.997 9.015-4.619 9.275-4.229 9.515-3.826 9.737-3.412 9.941-2.988 10.125-2.553 10.288-2.111 10.433-1.66 10.556-1.203 10.658-.739 10.74-.27 10.799.202 10.838.679 10.854 1.157 10.849 1.636 10.821 2.117 10.772 2.595 10.701 3.074 10.609 3.548 10.493 4.02 10.358 4.487 10.2 4.948 10.022 5.403 9.823 5.851 9.604 6.29 9.363 6.721 9.105 7.141 8.826 7.55 8.529 7.948 8.214 8.333 7.881 8.705 7.532 9.062 7.166 9.405 6.784 9.732 6.388 10.043 5.977 10.337 5.554 10.613 5.116 10.871 4.669 11.111 4.209 11.332 3.739 11.532 3.261 11.713 2.775 11.873 2.28 12.013 1.78 12.131 1.273 12.227.764 12.303.249 12.356-.267 12.388-.785 12.397-1.303 12.384-1.822 12.349-2.338 12.292-2.852 12.213-3.362 12.111-3.869 11.99-4.37 11.844-4.864 11.679-5.351 11.493-5.83 11.285-6.299 11.058-6.759 10.81-7.208 10.543-7.644 10.257-8.068 9.953-8.479 9.631-8.875 9.292-9.257 8.935-9.621 8.564-9.971 8.176-10.303 7.775-10.616 7.36-10.913 6.931-11.189 6.49-11.446 6.039-11.683 5.577-11.9 5.104-12.097 4.624-12.271 4.136-12.424 3.64-12.556 3.14-12.666 2.633-12.753 2.124-12.817 1.61-12.86 1.096-12.88.579-12.878.063-12.852-.451-12.804-.966-12.734-1.475-12.642-1.982-12.527-2.484-12.391-2.98-12.234-3.469-12.055-3.951-11.856-4.424-11.636-4.888-11.396-5.341-11.137-5.783-10.859-6.213-10.562-6.631-10.249-7.035-9.917-7.424-9.57-7.799-9.207-8.158-8.829-8.5-8.436-8.825-8.031-9.133-7.612-9.422-7.182-9.693-6.741-9.945-6.29-10.177-5.83-10.388-5.362-10.581-4.886-10.751-4.404-10.9-3.917-11.03-3.426-11.136-2.931-11.222-2.434-11.286-1.934-11.327-1.436-11.348-.937-11.347-.44-11.323.054-11.278.545-11.211 1.032-11.125 1.513-11.015 1.987-10.887 2.455-10.736 2.914-10.567 3.363-10.377 3.804-10.168 4.233-9.941 4.65-9.695 5.055-9.432 5.447-9.151 5.824-8.855 6.187-8.542 6.534-8.214 6.865-7.871 7.18-7.516 7.477-7.147 7.756-6.766 8.016-6.374 8.258-5.972 8.481-5.559 8.683-5.138 8.866-4.71 9.027-4.274 9.169-3.833 9.289-3.386 9.389-2.936 9.466-2.482 9.522-2.026 9.558-1.57 9.571-1.112 9.563-.655 9.533-.201 9.483.252 9.411.7 9.318 1.144 9.205 1.583 9.071 2.015 8.917 2.439 8.744 2.857 8.551 3.264 8.339 3.662 8.109 4.048 7.861 4.424 7.596 4.787 7.314 5.138 7.017 5.473 6.704 5.795 6.376 6.101 6.034 6.392 5.679 6.666 5.312 6.923 4.934 7.162 4.543 7.385 4.145 7.587 3.736 7.771 3.319 7.936 2.895 8.081 2.466 8.207 2.03 8.311 1.59 8.395 1.146 8.46.701 8.502.253 8.525-.194 8.526-.642 8.507-1.088 8.467-1.532 8.405-1.972 8.323-2.408 8.221-2.839 8.099-3.264 7.956-3.682 7.795-4.091 7.612-4.491 7.412-4.883 7.193-5.263 6.956-5.632 6.7-5.988 6.429-6.332 6.141-6.661 5.836-6.976 5.516-7.276 5.182-7.56 4.834-7.828 4.473-8.077 4.099-8.31 3.713-8.524 3.317-8.719 2.911-8.895 2.495-9.052 2.071-9.188 1.64-9.305 1.202-9.4.759-9.474.311-9.528-.141-9.561-.595-9.571-1.052-9.56-1.509-9.529-1.966-9.475-2.422-9.399-2.876-9.304-3.328-9.186-3.774-9.047-4.216-8.888-4.653-8.709-5.082-8.508-5.505-8.289-5.917-8.049-6.322-7.791-6.715-7.515-7.097-7.22-7.468-6.907-7.826-6.579-8.17-6.234-8.499-5.872-8.814-5.498-9.114-5.107-9.395-4.704-9.662-4.289-9.91-3.86-10.139-3.423-10.351-2.974-10.543-2.515-10.715-2.05-10.867-1.575-11-1.096-11.111-.61-11.202-.118-11.27.374-11.319.872-11.344 1.37-11.349 1.869-11.332 2.368-11.292 2.865-11.232 3.361-11.149 3.853-11.044 4.34-10.919 4.823-10.772 5.3-10.604 5.769-10.415 6.23-10.206 6.682-9.976 7.124-9.728 7.557-9.459 7.976-9.172 8.383-8.867 8.778-8.543 9.158-8.204 9.523-7.847 9.873-7.474 10.206-7.087 10.522-6.685 10.821-6.27 11.101-5.84 11.363-5.4 11.606-4.948 11.827-4.485 12.03-4.014 12.212-3.533 12.372-3.045 12.511-2.55 12.628-2.048L350.217-.38l12.796-1.033 12.847-.52 12.875-.004 12.881.511L414.48-.399l12.825 1.543L440.067 3.2l12.678 2.566 12.572 3.073 12.443 3.575 12.293 4.07 12.12 4.561 11.928 5.042 11.713 5.515 11.478 5.978 11.224 6.432 10.95 6.873 10.657 7.304 10.344 7.721 10.016 8.124 9.669 8.514 9.305 8.888 8.926 9.245 8.532 9.587 8.123 9.912 7.701 10.218 7.266 10.507 6.819 10.776 6.36 11.026 5.893 11.256 5.414 11.467 4.929 11.655 4.435 11.825 3.935 11.971 3.43 12.097 2.919 12.201 2.406 12.282 1.889 12.343 1.372 12.381.853 12.396.335 12.39-.181 12.362-.696 12.311-1.207 12.239-1.713 12.145-2.215 12.029-2.709 11.893-3.198 11.735-3.677 11.557-4.148 11.359-4.608 11.141-5.058 10.904-5.497 10.649-5.922 10.374-6.335 10.082-6.732 9.774-7.117 9.449-7.484 9.108-7.837 8.753-8.171 8.383-8.488 7.999-8.788 7.603-9.069 7.196-9.331 6.777-9.573 6.347-9.795 5.91-9.997 5.462-10.178 5.009-10.338 4.547-10.477 4.082-10.595 3.611-10.69 3.136-10.764 2.658-10.816 2.18-10.846 1.7-10.855 1.22-10.841.741-10.806.266-10.748-.209-10.671-.677-10.57-1.142-10.45-1.601-10.309-2.051-10.148-2.496-9.966-2.931-9.765-3.357-9.545-3.772-9.308-4.176-9.05-4.569-8.778-4.948-8.487-5.314-8.18-5.666-7.859-6.003-7.522-6.324-7.172-6.629-6.808-6.918-6.433-7.189-6.044-7.441-5.647-7.677-5.239-7.892-4.821-8.089-4.397-8.266-3.964-8.424-3.526-8.56-3.082-8.677-2.635-8.773-2.183-8.848-1.729-8.902-1.275-8.935-.819-8.948-.364-8.938.089-8.909.54-8.858.987-8.787 1.431-8.695 1.868-8.582 2.299-8.451 2.723-8.299 3.139-8.127 3.546-7.937 3.943-7.728 4.33-7.502 4.704-7.257 5.067-6.996 5.415-6.718 5.752-6.425 6.071-6.116 6.378-5.792 6.667-5.456 6.94-5.105 7.195-4.743 7.434-4.37 7.653-3.985 7.855-3.59 8.036-3.187 8.2-2.776 8.341-2.357 8.464-1.932 8.566-1.502 8.646-1.067 8.707-.629 8.746-.188 8.765.255 8.76.698 8.736 1.141 8.691 1.582 8.623 2.022 8.536 2.458 8.427 2.89 8.298 3.318 8.147 3.738 7.978 4.153 7.788 4.559 7.579 4.957 7.351 5.345 7.105 5.722 6.839 6.09 6.558 6.443 6.258 6.786 5.943 7.113 5.611 7.427 5.265 7.726 4.905 8.009 4.531 8.276 4.143 8.525 3.744 8.758 3.334 8.972 2.914 9.168 2.483 9.345 2.043 9.502 1.598 9.639 1.143 9.757.684 9.854.219 9.93-.249 9.985-.721 10.02-1.194 10.032-1.67 10.024-2.144 9.995-2.619 9.943-3.091 9.872-3.56 9.777-4.026 9.663-4.487 9.527-4.943 9.37-5.391 9.194-5.832 8.997-6.264 8.78-6.688 8.543-7.1 8.289-7.503 8.014-7.891 7.722-8.269 7.413-8.631 7.086-8.981 6.744-9.314 6.384-9.631 6.012-9.933 5.623-10.216 5.222-10.483 4.807-10.731 4.381-10.959 3.943-11.168 3.495-11.358 3.038-11.527 2.571-11.676 2.097-11.802 1.616-11.909 1.129-11.992.638-12.055.141-12.096-.357-12.113-.859-12.109-1.361-12.083-1.863-12.034-2.364-11.962-2.865-11.87-3.361-11.754-3.854-11.617-4.343-11.459-4.826-11.278-5.301-11.076-5.771-10.855-6.23-10.612-6.682-10.351-7.122-10.068-7.551-9.768-7.969-9.449-8.373-9.112-8.765-8.758-9.141-8.387-9.503-8.001-9.849-7.6-10.179-7.184-10.49-6.755-10.785-6.312-11.062-5.858-11.319-5.393-11.556-4.918-11.775-4.433-11.973-3.94-12.15-3.438-12.307-2.932-12.441-2.42-12.554-1.901-12.646-1.381-12.716-.857-12.763-.332-12.788.193-12.791.72-12.772 1.243-12.73 1.764-12.667 2.284-12.581 2.797-12.473 3.306-12.344 3.809-12.193 4.303-12.022 4.791-11.829 5.269-11.616 5.736-11.383 6.194-11.131 6.64-10.86 7.072-10.57 7.491-10.262 7.897-9.938 8.288-9.595 8.661-9.238 9.02-8.866 9.363-8.478 9.685-8.076 9.991-7.663 10.278-7.236 10.545-6.798 10.793-6.35 11.02-5.893 11.227-5.426 11.413-4.952 11.578-4.47 11.72-3.984 11.841-3.491 11.94-2.996 12.018-2.496 12.072-1.996 12.104-1.493 12.115-.99 12.102-.49 12.067.01 12.012.508 11.932 1 11.833 1.488 11.711 1.971 11.568 2.447 11.404 2.916 11.221 3.375 11.016 3.826 10.793 4.267 10.55 4.696 10.288 5.114 10.009 5.519 9.713 5.91 9.399 6.288 9.069 6.65 8.725 6.998 8.366 7.328 7.992 7.643 7.606 7.939 7.207 8.218 6.798 8.478 6.377 8.719 5.947 8.942 5.508 9.144 5.061 9.326 4.608 9.488 4.148 9.629 3.683 9.749 3.215 9.848 2.743 9.927 2.269 9.983 1.795 10.019 1.32 10.032.845 10.025.373 9.996-.096 9.947-.562 9.876-1.023 9.784-1.478 9.673-1.927 9.54-2.368 9.388-2.801 9.216-3.224 9.025-3.637 8.817-4.04 8.588-4.43 8.343-4.807 8.081-5.172 7.802-5.522 7.507-5.857 7.198-6.176 6.873-6.481 6.535-6.767 6.184-7.036 5.82-7.288 5.445-7.52 5.06-7.735 4.665-7.93 4.261-8.105 3.848-8.26 3.429-8.395 3.003-8.509 2.572-8.602 2.137-8.675 1.699-8.726 1.257-8.757.815-8.765.371-8.753-.071-8.719-.513-8.665-.952-8.589-1.387-8.493-1.82-8.375-2.245-8.239-2.667-8.081-3.079-7.905-3.485-7.708-3.882-7.493-4.269-7.26-4.646-7.009-5.011-6.741-5.365-6.455-5.705-6.154-6.032-5.837-6.345-5.505-6.642-5.16-6.924-4.801-7.19-4.429-7.439-4.046-7.671-3.652-7.883-3.247-8.08-2.834-8.255-2.411-8.412-1.983-8.55-1.546-8.667-1.104-8.765-.658-8.841-.209-8.898.245-8.933.699-8.947 1.155-8.94 1.61-8.913 2.063-8.864 2.516-8.795 2.965-8.704 3.41-8.593 3.849-8.462 4.283-8.309 4.711-8.138 5.129-7.946 5.54-7.735 5.941-7.505 6.331-7.257 6.711-6.991 7.077-6.707 7.431-6.406 7.772-6.089 8.097-5.756 8.408-5.408 8.702-5.046 8.981-4.67 9.241-4.281 9.485-3.88 9.709-3.467 9.915-3.044 10.101-2.611 10.269-2.17 10.415-1.72 10.54-1.263 10.647-.8 10.73-.333 10.792.14 10.834.616 10.853 1.094 10.851 1.573 10.826 2.054 10.78 2.532 10.712 3.011 10.622 3.486 10.51 3.958 10.376 4.425 10.223 4.888 10.046 5.344 9.851 5.792 9.633 6.233 9.396 6.665 9.14 7.086 8.864 7.497 8.569 7.896 8.257 8.283 7.926 8.657 7.579 9.016 7.215 9.36 6.835 9.69 6.441 10.003 6.032 10.299 5.61 10.578 5.175 10.838 4.728 11.081 4.27 11.304 3.802 11.506 3.324 11.691 2.839 11.853 2.346 11.995 1.846 12.117 1.341 12.216.83 12.294.318 12.351-.199 12.384-.717 12.397-1.235 12.387-1.753 12.355-2.27 12.301-2.785 12.224-3.295 12.127-3.803 12.006-4.304 11.865-4.799 11.702-5.287 11.519-5.768 11.313-6.238 11.089-6.699 10.844-7.149 10.579-7.588 10.296-8.013 9.994-8.426 9.675-8.823 9.337-9.207 8.983-9.575 8.614-9.926 8.228-10.26 7.829-10.576 7.415-10.874 6.988-11.154 6.549-11.413 6.099-11.654 5.638-11.872 5.167-12.072 4.688-12.249 4.2-12.406 3.706-12.54 3.206-12.652 2.7-12.743 2.191-12.81 1.678-12.856 1.164-12.879.647-12.879.132-12.856-.385-12.812-.897-12.745-1.409-12.655-1.915-12.543-2.419-12.411-2.914-12.256-3.406-12.08-3.887-11.883-4.363-11.666-4.827-11.428-5.282-11.172-5.725-10.897-6.158-10.603-6.577-10.291-6.982-9.962-7.374-9.616-7.75-9.256-8.111-8.879-8.456-8.489-8.784-8.085-9.093-7.668-9.385-7.239-9.659-6.8-9.913-6.35-10.147-5.891-10.362-5.424-10.556-4.949-10.73-4.468-10.882-3.982-11.013-3.49-11.124-2.997-11.212-2.499-11.278-2-11.324-1.502-11.346-1.002-11.348-.506-11.327-.01-11.286.48-11.221.968-11.137 1.45-11.032 1.925-10.904 2.394-10.757 2.854-10.59 3.305-10.404 3.746-10.197 4.177-9.971 4.596-9.729 5.003-9.467 5.396-9.19 5.775-8.894 6.14-8.584 6.489-8.258 6.823-7.918 7.139-7.563 7.439-7.196 7.72-6.817 7.983-6.427 8.228-6.025 8.452-5.614 8.658-5.194 8.842-4.767 9.008-4.332 9.151-3.891 9.275-3.445 9.376-2.995 9.457-2.542 9.517-2.087 9.554-1.629 9.57-1.172 9.566-.716 9.538-.26 9.491.192 9.422.641 9.331 1.086 9.221 1.526 9.09 1.958 8.938 2.384 8.768 2.802 8.577 3.211 8.368 3.61 8.14 3.998 7.895 4.376 7.632 4.74 7.353 5.091 7.057 5.43 6.745 5.754 6.42 6.061 6.08 6.355 5.727 6.631 5.361 6.89 4.984 7.132 4.596 7.356 4.197 7.562 3.79 7.748 3.375 7.915 2.952 8.063 2.522 8.191 2.087 8.299 1.648 8.385 1.206 8.453.759 8.498.313 8.523-.136 8.527-.583 8.511-1.029 8.473-1.474 8.414-1.914 8.335-2.351 8.236-2.783 8.116-3.208 7.976-3.627 7.817-4.038 7.637-4.439 7.44-4.832 7.223-5.214 6.988-5.583 6.735-5.942 6.466-6.288 6.179-6.618 5.877-6.936 5.56-7.237 5.227-7.524 4.88-7.793 4.521-8.045 4.149-8.281 3.765-8.496 3.369-8.695 2.965-8.873 2.55-9.033 2.128-9.171 1.697-9.291 1.26-9.388.818-9.466.37-9.522-.081-9.558-.536-9.571-.991-9.563-1.449-9.534-1.906-9.483-2.362-9.411-2.817-9.317-3.268-9.203-3.715-9.066-4.159-8.911-4.595-8.733-5.027-8.536-5.449-8.318-5.864-8.082-6.269-7.827-6.663-7.552-7.048-7.259-7.42-6.95-7.779-6.623-8.126-6.28-8.456-5.921-8.774-5.548-9.075-5.159-9.359-4.758-9.628-4.344-9.878-3.918-10.11-3.48-10.324-3.034-10.519-2.576-10.693-2.112-10.849-1.638-10.984-1.16-11.097-.673-11.191-.184-11.263.31-11.313.806-11.342 1.304-11.35 1.803-11.335 2.303-11.299 2.8-11.241 3.295-11.161 3.788-11.059 4.277-10.937 4.76-10.793 5.237-10.627 5.707-10.441 6.17-10.234 6.623-10.008 7.067-9.761 7.5-9.496 7.922-9.21 8.33-8.909 8.727-8.587 9.109-8.25 9.475-7.894 9.828-7.525 10.163-7.139 10.482-6.738 10.782-6.325 11.066-5.898 11.329-5.458 11.575-5.008 11.8-4.547 12.004-4.077 12.189-3.597 12.352-3.11 12.494-2.614 12.613-2.115 12.712-1.61 12.788-1.1 12.842-.587 12.873-.072 12.881.443 12.868.96L425.619.911 438.391 2.9l12.69 2.5 12.587 3.006 12.462 3.509 12.313 4.006 12.145 4.496 11.954 4.978 11.742 5.454 11.511 5.917 11.258 6.373 10.987 6.816 10.696 7.248 10.387 7.667 10.06 8.072 9.716 8.463 9.354 8.84 8.977 9.199 8.585 9.543 8.177 9.87 7.758 10.179 7.323 10.469 6.879 10.742 6.421 10.994 5.955 11.227 5.478 11.44 4.993 11.632 4.5 11.803 4.001 11.954 3.497 12.081 2.987 12.189 2.473 12.273 1.958 12.336 1.44 12.377.922 12.396.403 12.392-.114 12.366-.628 12.319-1.14 12.25-1.647 12.158-2.148 12.046-2.645 11.912-3.134 11.757-3.615 11.582-4.086 11.386-4.548 11.171-5 10.937-5.439 10.683-5.867 10.411-6.281 10.122-6.681 9.815-7.067 9.493-7.437 9.154-7.791 8.8-8.128 8.432-8.448 8.051-8.75 7.656-9.033 7.25-9.297 6.832-9.542 6.405-9.767 5.968-9.972 5.522-10.155 5.068-10.318 4.609-10.46 4.143-10.581 3.673-10.678 3.199-10.756 2.722-10.811 2.242-10.843 1.763-10.855 1.284-10.844.804-10.811.328-10.758-.146-10.682-.616-10.585-1.081-10.467-1.541-10.328-1.993-10.17-2.437-9.991-2.875-9.793-3.301-9.576-3.718-9.339-4.124-9.086-4.517-8.814-4.899-8.526-5.267-8.222-5.62-7.902-5.96-7.567-6.283-7.219-6.59-6.857-6.88-6.482-7.154-6.097-7.41-5.7-7.646-5.292-7.865-4.877-8.064-4.453-8.244-4.022-8.404-3.584-8.544-3.141-8.662-2.693-8.762-2.243-8.839-1.79-8.896-1.334-8.932-.879-8.947-.424-8.941.029-8.914.481-8.866.929-8.797 1.372-8.709 1.811-8.598 2.243-8.469 2.667-8.32 3.085-8.151 3.493-7.963 3.892-7.757 4.279-7.533 4.656-7.29 5.019-7.031 5.371-6.756 5.708-6.464 6.03-6.157 6.338-5.836 6.63-5.501 6.905-5.152 7.162-4.792 7.404-4.419 7.625-4.036 7.83-3.643 8.013-3.241 8.179-2.83 8.324-2.413 8.449-1.988 8.553-1.559 8.638-1.125 8.7-.686 8.742-.246 8.763.196 8.762.64 8.741 1.082 8.698 1.525 8.633 1.964 8.549 2.401 8.442 2.833 8.316 3.262 8.169 3.683 8.001 4.099 7.814 4.505 7.608 4.905 7.382 5.295 7.138 5.673 6.875 6.042 6.596 6.398 6.298 6.741 5.986 7.071 5.656 7.387 5.311 7.687 4.953 7.973 4.581 8.241 4.195 8.494 3.798 8.728 3.388 8.945 2.969 9.143 2.54 9.322 2.103 9.483 1.656 9.622 1.204 9.743.744 9.842.281 9.921-.187 9.98-.659 10.016-1.132 10.032-1.607 10.026-2.082 10-2.556 9.952-3.029 9.881-3.498 9.791-3.965 9.679-4.427 9.547-4.883 9.392-5.332 9.218-5.775 9.024-6.208 8.81-6.632 8.575-7.047 8.323-7.45 8.052-7.841 7.761-8.22 7.455-8.584 7.13-8.936 6.79-9.27 6.433-9.591 6.061-9.894 5.675-10.18 5.275-10.449 4.863-10.699 4.438-10.93 4.001-11.142 3.555-11.334 3.098-11.506 2.633-11.657 2.16-11.787 1.68-11.896 1.194-11.983.702-12.048.207-12.091-.292-12.112-.792-12.111-1.295-12.088-1.797-12.041-2.298-11.974-2.799-11.883-3.296-11.771-3.789-11.636-4.279-11.48-4.763-11.303-5.239-11.105-5.709-10.885-6.171-10.645-6.622-10.386-7.065-10.107-7.495-9.808-7.915-9.492-8.321-9.157-8.714-8.806-9.092-8.437-9.457-8.053-9.804-7.654-10.136-7.24-10.45-6.811-10.748-6.371-11.026-5.919-11.286-5.455-11.526-4.98-11.748-4.498-11.948-4.005-12.128-3.505-12.287-3-12.424-2.486-12.541-1.97-12.635-1.45-12.708-.926-12.758-.402-12.786.125-12.792.65-12.776 1.174-12.737 1.696-12.676 2.215-12.594 2.73-12.488 3.24-12.362 3.742-12.215 4.24-12.045 4.727-11.856 5.206-11.645 5.676-11.415 6.134-11.165 6.581-10.897 7.016-10.609 7.437-10.304 7.845-9.981 8.236-9.642 8.614-9.286 8.974-8.915 9.318-8.53 9.644-8.13 9.952-7.718 10.241-7.293 10.511-6.856 10.761-6.41 10.992-5.954 11.201-5.487 11.389-5.015 11.557-4.534 11.703-4.048 11.826-3.557 11.929-3.06 12.009-2.563 12.066-2.061 12.101-1.56 12.114-1.057 12.105-.555 12.074-.055 12.02.442 11.944.935 11.847 1.424 11.728 1.908 11.588 2.385 11.428 2.854 11.245 3.316 11.045 3.767 10.823 4.21 10.583 4.64 10.324 5.059 10.047 5.466 9.752 5.86 9.441 6.239 9.114 6.603 8.772 6.953 8.413 7.286 8.042 7.602 7.658 7.901 7.26 8.182 6.852 8.445 6.433 8.689 6.004 8.913 5.567 9.118 5.12 9.304 4.668 9.467 4.209 9.612 3.745 9.735 3.276 9.836 2.806 9.918 2.332 9.977 1.857 10.015 1.382 10.032.908 10.027.435 10.001-.035 9.955-.501 9.886-.962 9.798-1.419 9.688-1.868 9.559-2.31 9.409-2.745 9.24-3.169 9.051-3.583 8.845-3.987 8.619-4.379 8.377-4.759 8.116-5.124 7.84-5.477 7.547-5.814 7.239-6.135 6.917-6.441 6.58-6.73 6.231-7.002 5.869-7.256 5.495-7.491 5.111-7.708 4.718-7.905 4.314-8.083 3.903-8.241 3.484-8.378 3.06-8.495 2.629-8.592 2.195-8.666 1.756-8.721 1.316-8.754.873-8.765.43-8.756-.013-8.724-.455-8.673-.894-8.601-1.331-8.506-1.763-8.393-2.19-8.257-2.611-8.103-3.025-7.929-3.432-7.736-3.831-7.522-4.218-7.292-4.597-7.043-4.964-6.777-5.319-6.493-5.661-6.195-5.989-5.88-6.305-5.55-6.604-5.206-6.888-4.849-7.156-4.478-7.407-4.098-7.641-3.704-7.857-3.301-8.054-2.889-8.233-2.467-8.393-2.039-8.533-1.604-8.653-1.163-8.753-.717-8.832-.268-8.891.185-8.93.639-8.946 1.095-8.943 1.55-8.918 2.004-8.871 2.456-8.805 2.906-8.718 3.351-8.609 3.792-8.479 4.227-8.331 4.654-8.162 5.075-7.972 5.486-7.764 5.889-7.537 6.281-7.29 6.661-7.027 7.03-6.745 7.385-6.447 7.728-6.132 8.055-5.801 8.368-5.455 8.664-5.094 8.945-4.72 9.208-4.333 9.453-3.933 9.681-3.522 9.889-3.101 10.078-2.668 10.247-2.229 10.397-1.779 10.526-1.324 10.633-.862 10.72-.394 10.786.078 10.83.553 10.852 1.031 10.852 1.51 10.831 1.99 10.787 2.469 10.722 2.948 10.635 3.424 10.526 3.896 10.395 4.364 10.244 4.827 10.071 5.284 9.877 5.734 9.663 6.175 9.429 6.609 9.175 7.031 8.901 7.444 8.609 7.844 8.299 8.233 7.971 8.608 7.625 8.969 7.264 9.316 6.886 9.648 6.494 9.962 6.086 10.261 5.667 10.543 5.232 10.805 4.788 11.049 4.331 11.276 3.864 11.481 3.388 11.667 2.904 11.833 2.411 11.978 1.912 12.102 1.407 12.204.898 12.285.385 12.345-.13 12.381-.649 12.397-1.167 12.389-1.685 12.361-2.202 12.309-2.717 12.236-3.228 12.14-3.736 12.024-4.239 11.885-4.734 11.724-5.224 11.544-5.704 11.342-6.177 11.119-6.639 10.877-7.09 10.616-7.531 10.334-7.958 10.035-8.372 9.718-8.772 9.382-9.157 9.031-9.528 8.663-9.88 8.28-10.217 7.882-10.536 7.47-10.836 7.045-11.118 6.608-11.38 6.159-11.623 5.699-11.845 5.23-12.047 4.751-12.227 4.265-12.386 3.772-12.523 3.272-12.639 2.767-12.732 2.258-12.803 1.746-12.851 1.231-12.877.715-12.88.2-12.861-.317-12.819-.83-12.755-1.341-12.668-1.849-12.56-2.353-12.429-2.849-12.277-3.341-12.104-3.825-11.911-4.3-11.695-4.767-11.461-5.222-11.207-5.668-10.934-6.102-10.643-6.522-10.333-6.93-10.006-7.323-9.663-7.701-9.304-8.065-8.93-8.412-8.541-8.741-8.139-9.053-7.723-9.348-7.297-9.624-6.858-9.88-6.41-10.118-5.952-10.335-5.485-10.531-5.012-10.708-4.532-10.864-4.046-10.997-3.556-11.111-3.061-11.201-2.565-11.271-2.066-11.319-1.567-11.344-1.069-11.349-.57-11.331-.076-11.293.416-11.231.904-11.149 1.387-11.047 1.863-10.922 2.332-10.778 2.794-10.613 3.246-10.429 3.69-10.225 4.12-10.003 4.541-9.761 4.95-9.503 5.345-9.227 5.726-8.934 6.093-8.626 6.444-8.302 6.78-7.963 7.098-7.611 7.401-7.245 7.684-6.868 7.949-6.478 8.197-6.078 8.424-5.669 8.631-5.25 8.82-4.824 8.987-4.389 9.133-3.95 9.26-3.504 9.364-3.055 9.448-2.602 9.51-2.146 9.55-1.69 9.57-1.232 9.567-.776 9.543-.32 9.498.133 9.432.582 9.345 1.028 9.237 1.468 9.108 1.901 8.96 2.329 8.791 2.748 8.603 3.157 8.397 3.558 8.171 3.948 7.928 4.326 7.668 4.693 7.39 5.046 7.097 5.386 6.787 5.712 6.464 6.022 6.125 6.317 5.774 6.595 5.41 6.857 5.035 7.102 4.647 7.327 4.25 7.536 3.845 7.724 3.429 7.895 3.008 8.045 2.579 8.175 2.145 8.285 1.707 8.376 1.263 8.445.819 8.493.371 8.521-.076 8.528-.525 8.513-.97 8.48-1.415 8.423-1.857 8.347-2.294 8.25-2.726 8.133-3.153 7.996-3.572 7.838-3.984 7.663-4.387 7.466-4.781 7.253-5.163 7.019-5.536 6.77-5.896 6.502-6.242 6.218-6.576 5.918-6.895 5.602-7.199 5.272-7.486 4.927-7.759 4.569-8.013 4.198-8.25 3.816-8.47 3.422-8.669 3.019-8.851 2.605-9.013 2.184-9.154 1.754-9.276 1.318-9.377.877-9.457.429-9.516-.022-9.554-.475-9.57-.932-9.565-1.388-9.539-1.846-9.491-2.302-9.422-2.757-9.331-3.209-9.219-3.657-9.086-4.1-8.932-4.538-8.758-4.97-8.563-5.394-8.348-5.81-8.114-6.216-7.861-6.613-7.589-6.998-7.299-7.371-6.992-7.733-6.667-8.08-6.326-8.414-5.969-8.733-5.598-9.036-5.211-9.323-4.812-9.593-4.4-9.846-3.974-10.081-3.539-10.297-3.092-10.494-2.638-10.672-2.172-10.829-1.702-10.967-1.222-11.084-.738-11.18-.249-11.254.245-11.308.74-11.34 1.239-11.35 1.737-11.338 2.237-11.305 2.734-11.249 3.231-11.173 3.724-11.074 4.212-10.954 4.697-10.813 5.174-10.65 5.646-10.467 6.109-10.263 6.564-10.039 7.009-9.795 7.444-9.531 7.867-9.25 8.277-8.949 8.676-8.63 9.059-8.295 9.428-7.942 9.782-7.575 10.12-7.19 10.441-6.792 10.744-6.38 11.029-5.955 11.296-5.517 11.543-5.068 11.772-4.608 11.978-4.14 12.166-3.66 12.332-3.174 12.476-2.68 12.599-2.181 12.7-1.676 12.78-1.168 12.835-.655 12.87-.14 12.882.376 12.87.891L423.932.687l12.781 1.921 12.702 2.433 12.602 2.94 12.479 3.443 12.335 3.94 12.168 4.433 11.98 4.915 11.771 5.392 11.543 5.857 11.293 6.313 11.023 6.759 10.736 7.191 10.429 7.613 10.104 8.02 9.761 8.412 9.403 8.79 9.028 9.153 8.637 9.499 8.232 9.828 7.814 10.139 7.381 10.432 6.938 10.707 6.482 10.963 6.017 11.197 5.541 11.413 5.057 11.608 4.566 11.782 4.067 11.935 3.563 12.065 3.055 12.176 2.541 12.263 2.026 12.33 1.508 12.372.99 12.395.471 12.394-.045 12.371-.561 12.326-1.072 12.26-1.581 12.172-2.083 12.062-2.58 11.931-3.07 11.778-3.551 11.606-4.025 11.414-4.488 11.2-4.941 10.968-5.382 10.718-5.811 10.448-6.228 10.161-6.629 9.857-7.017 9.536-7.389 9.199-7.745 8.848-8.085 8.481-8.407 8.102-8.711 7.709-8.996 7.304-9.264 6.888-9.511 6.461-9.739 6.026-9.945 5.581-10.133 5.129-10.298 4.67-10.442 4.204-10.566 3.736-10.667 3.261-10.747 2.785-10.804 2.306-10.841 1.826-10.854 1.346-10.847.867-10.817.391-10.766-.084-10.693-.555-10.599-1.02-10.484-1.48-10.348-1.934-10.192-2.379-10.015-2.817-9.82-3.246-9.606-3.664-9.371-4.071-9.12-4.466-8.851-4.85-8.565-5.219-8.263-5.574-7.945-5.916-7.612-6.241-7.266-6.551-6.905-6.843-6.532-7.119-6.148-7.377-5.753-7.616-5.347-7.837-4.932-8.04-4.509-8.221-4.079-8.384-3.642-8.526-3.2-8.648-2.752-8.75-2.303-8.83-1.849-8.89-1.394-8.929-.939-8.946-.484-8.943-.03-8.918.421-8.874.87-8.808 1.314-8.721 1.753-8.614 2.187-8.487 2.612-8.341 3.03-8.174 3.44-7.989 3.84-7.785 4.229-7.563 4.606-7.323 4.973-7.067 5.325-6.793 5.664-6.503 5.989-6.198 6.298-5.88 6.592-5.545 6.87-5.199 7.13-4.84 7.373-4.469 7.597-4.087 7.803-3.695 7.991-3.294 8.158-2.885 8.306-2.468 8.434-2.045 8.541-1.616 8.627-1.182 8.693-.744 8.738-.304 8.761.138 8.764.581 8.745 1.024 8.704 1.467 8.644 1.906 8.56 2.344 8.458 2.777 8.334 3.205 8.189 3.628 8.024 4.044 7.84 4.453 7.636 4.853 7.413 5.244 7.171 5.624 6.911 5.994 6.634 6.351 6.338 6.697 6.028 7.028 5.7 7.346 5.358 7.649 5.001 7.936 4.63 8.207 4.247 8.461 3.851 8.699 3.443 8.917 3.025 9.118 2.597 9.3 2.16 9.463 1.716 9.605 1.263 9.728.806 9.83.342 9.912-.126 9.973-.596 10.012-1.07 10.032-1.544 10.028-2.019 10.004-2.494 9.959-2.967 9.893-3.437 9.804-3.904 9.695-4.366 9.565-4.823 9.414-5.273 9.242-5.717 9.05-6.152 8.839-6.577 8.608-6.993 8.357-7.397 8.088-7.79 7.801-8.171 7.496-8.537 7.174-8.89 6.835-9.228 6.481-9.549 6.111-9.855 5.727-10.144 5.329-10.414 4.918-10.667 4.494-10.901 4.06-11.115 3.614-11.31 3.159-11.485 2.694-11.638 2.223-11.771 1.743-11.883 1.258-11.973.768-12.04.272-12.087-.226-12.111-.726-12.112-1.229-12.092-1.73-12.049-2.233-11.984-2.733-11.896-3.23-11.787-3.725-11.655-4.215-11.502-4.699-11.328-5.177-11.131-5.648-10.916-6.11-10.678-6.564-10.421-7.007-10.144-7.439-9.849-7.86-9.535-8.268-9.202-8.663-8.853-9.044-8.487-9.409-8.104-9.759-7.707-10.094-7.295-10.41-6.869-10.709-6.43-10.99-5.979-11.253-5.516-11.496-5.044-11.72-4.562-11.923-4.07-12.105-3.571-12.267-3.066-12.408-2.555-12.527-2.039-12.624-1.518-12.699-.995-12.753-.471-12.784.055-12.792.581-12.779 1.105-12.744 1.628-12.685 2.147-12.605 2.663-12.504 3.172-12.38 3.677-12.235 4.174-12.069 4.663-11.882 5.144-11.674 5.615-11.447 6.074-11.199 6.523-10.933 6.96-10.648 7.382-10.345 7.792-10.025 8.186-9.687 8.565-9.334 8.927-8.965 9.274-8.581 9.602-8.184 9.912-7.772 10.204-7.35 10.477-6.915 10.729-6.469 10.963-6.014 11.174-5.55 11.366-5.077 11.536-4.598 11.685-4.112 11.812-3.622 11.916-3.126 11.999-2.628 12.06-2.128 12.098-1.625 12.114-1.123 12.107-.621 12.079-.121 12.029.376 11.955.87 11.861 1.361 11.745 1.845 11.608 2.322 11.45 2.793 11.27 3.255 11.072 3.708 10.854 4.152 10.615 4.584 10.359 5.005 10.085 5.413 9.792 5.81 9.483 6.189 9.158 6.556 8.818 6.908 8.461 7.243 8.092 7.561 7.709 7.863 7.313 8.146 6.907 8.411 6.488 8.658 6.062 8.885 5.624 9.093 5.179 9.28 4.728 9.447 4.27 9.594 3.806 9.719 3.339 9.825 2.867 9.908 2.395 9.97 1.919 10.011 1.445 10.031.97 10.029.498 10.006.027 9.962-.44 9.897-.902 9.81-1.359 9.704-1.809 9.577-2.253 9.43-2.688 9.263-3.113 9.078-3.53 8.873-3.935 8.65-4.328 8.409-4.709 8.152-5.077 7.877-5.431 7.586-5.77 7.281-6.094 6.96-6.402 6.625-6.693 6.278-6.967 5.917-7.224 5.545-7.461 5.163-7.68 4.769-7.88 4.368-8.061 3.958-8.221 3.54-8.362 3.115-8.481 2.687-8.58 2.252-8.657 1.814-8.715 1.374-8.751.931-8.765.488-8.758.046-8.73-.397-8.681-.837-8.611-1.273-8.52-1.706-8.409-2.134-8.276-2.556-8.125-2.971-7.953-3.38-7.762-3.778-7.551-4.168-7.324-4.547-7.076-4.917-6.813-5.272-6.532-5.617-6.235-5.947-5.922-6.264-5.594-6.565-5.252-6.852-4.897-7.122-4.528-7.375-4.148-7.611-3.757-7.829-3.355-8.03-2.943-8.21-2.524-8.373-2.096-8.516-1.661-8.638-1.221-8.741-.777-8.823-.327-8.885.126-8.925.579-8.946 1.034-8.944 1.49-8.922 1.945-8.879 2.397-8.815 2.847-8.73 3.293-8.625 3.734-8.498 4.169-8.351 4.599-8.185 5.02-7.998 5.433-7.793 5.836-7.568 6.23-7.324 6.611-7.062 6.982-6.784 7.339-6.487 7.684-6.174 8.013-5.845 8.327-5.501 8.627-5.143 8.908-4.77 9.175-4.385 9.422-3.986 9.652-3.577 9.862-3.157 10.055-2.726 10.226-2.287 10.378-1.839 10.51-1.384 10.62-.923 10.71-.456 10.779.016 10.825.49 10.85.967 10.853 1.447 10.835 1.927 10.794 2.407 10.732 2.885 10.648 3.361 10.541 3.834 10.414 4.302 10.265 4.767 10.095 5.224 9.904 5.675 9.693 6.118 9.461 6.552 9.209 6.976 8.938 7.39 8.649 7.792 8.341 8.183 8.014 8.559 7.672 8.923 7.312 9.271 6.937 9.605 6.547 9.922 6.141 10.223 5.722 10.506 5.291 10.771 4.846 11.019 4.392 11.247 3.926 11.455 3.452 11.644 2.967 11.812 2.476 11.96 1.979 12.087 1.474 12.192.965 12.276.453 12.337-.063 12.378-.58 12.396-1.098 12.392-1.617 12.365-2.134 12.317-2.65 12.247-3.161 12.154-3.669 12.041-4.173 11.904-4.669 11.747-5.16 11.569-5.642 11.369-6.115 11.15-6.578 10.91-7.032 10.651-7.473 10.373-7.903 10.075-8.318 9.761-8.72 9.427-9.108 9.078-9.479 8.713-9.835 8.331-10.174 7.935-10.494 7.526-10.798 7.101-11.082 6.666-11.347 6.219-11.592 5.76-11.817 5.292-12.021 4.815-12.205 4.33-12.366 3.836-12.507 3.338-12.625 2.834-12.721 2.326-12.795 1.813-12.846 1.299-12.875.784-12.88.267-12.865-.248-12.826-.763-12.764-1.274-12.681-1.783-12.575-2.286-12.448-2.785-12.299-3.276-12.128-3.762-11.937-4.238-11.725-4.706-11.493-5.163-11.242-5.61-10.971-6.045-10.682-6.467-10.374-6.877-10.051-7.272-9.709-7.653-9.352-8.018-8.98-8.366-8.593-8.699-8.192-9.014-7.779-9.31-7.353-9.588-6.917-9.848-6.469-10.087-6.013-10.308-5.548-10.507-5.075-10.686-4.595-10.844-4.11-10.981-3.62-11.097-3.127-11.19-2.63-11.263-2.133-11.314-1.633-11.343-1.134-11.349-.636-11.335-.14-11.298.351-11.241.84-11.161 1.324-11.061 1.8-10.94 2.272-10.798 2.733-10.636 3.187-10.455 3.631-10.253 4.065-10.033 4.487-9.794 4.896-9.538 5.294-9.264 5.677-8.974 6.045-8.667 6.399-8.345 6.736-8.009 7.058-7.658 7.361-7.294 7.648-6.918 7.916-6.53 8.165-6.132 8.395-5.723 8.605-5.306 8.796-4.88 8.966-4.447 9.116-4.008 9.244-3.563 9.352-3.114 9.438-2.662 9.503-2.206 9.546-1.75 9.568-1.293 9.569-.835 9.547-.381 9.506.074 9.442.523 9.357.969 9.252 1.411 9.126 1.844 8.981 2.273 8.814 2.693 8.629 3.104 8.425 3.506 8.202 3.897 7.962 4.277 7.702 4.645 7.428 5.001 7.136 5.342 6.829 5.67 6.508 5.982 6.17 6.279 5.821 6.559 5.459 6.824 5.084 7.07 4.699 7.299 4.304 7.509 3.898 7.701 3.485 7.873 3.063 8.026 2.636 8.16 2.203 8.272 1.764 8.364 1.322 8.437.877 8.488.431 8.519-.018 8.528-.465 8.517-.912 8.485-1.357 8.431-1.798 8.359-2.237 8.264-2.67 8.149-3.096 8.015-3.518 7.861-3.93 7.686-4.334 7.494-4.73 7.281-5.114 7.052-5.487 6.803-5.849 6.539-6.198 6.256-6.532 5.958-6.854 5.645-7.16 5.316-7.449 4.973-7.724 4.617-7.981 4.248-8.22 3.867-8.441 3.475-8.645 3.072-8.828 2.66-8.992 2.24-9.137 1.811-9.261 1.376-9.365.935-9.447.488-9.51.038-9.55-.416-9.569-.871-9.568-1.328-9.543-1.786-9.499-2.242-9.432-2.697-9.344-3.149-9.235-3.599-9.105-4.042-8.953-4.481-8.782-4.913-8.59-5.339-8.377-5.755-8.147-6.164-7.895-6.56-7.626-6.948-7.338-7.323-7.033-7.686-6.711-8.036-6.372-8.371-6.017-8.691-5.647-8.997-5.263-9.286-4.866-9.559-4.454-9.814-4.031-10.051-3.597-10.269-3.152-10.469-2.698-10.65L84 328.206l-1.764-10.95-1.286-11.069-.802-11.169-.313-11.245.179-11.302.675-11.337 1.173-11.35 1.672-11.341 2.17-11.311 2.67-11.258 3.165-11.184 3.66-11.088 4.147-10.971 4.634-10.833 5.112-10.673 5.584-10.492 6.049-10.291 6.504-10.069 6.951-9.828 7.387-9.568 7.812-9.287 8.224-8.99 8.624-8.673 9.009-8.34 9.381-7.99 9.736-7.624 10.076-7.242 10.4-6.845 10.705-6.435 10.993-6.011 11.262-5.576 11.512-5.128 11.742-4.67 11.953-4.2 12.142-3.724 12.311-3.239 12.458-2.746 12.585-2.247L345.18.167l12.77-1.234 12.829-.723 12.867-.208 12.881.308 12.874.823 12.843 1.34 12.789 1.853 12.715 2.365 12.616 2.874 12.497 3.377 12.354 3.876 12.191 4.367 12.007 4.853 11.8 5.329 11.573 5.796 11.327 6.254 11.061 6.7 10.774 7.136 10.471 7.557 10.147 7.967 9.808 8.362 9.451 8.741 9.078 9.106 8.689 9.455 8.287 9.785 7.869 10.099 7.439 10.395 6.997 10.672 6.543 10.93 6.078 11.168 5.605 11.386 5.121 11.583 4.631 11.76 4.133 11.916 3.63 12.05 3.122 12.162 2.609 12.253 2.094 12.322 1.576 12.368 1.058 12.393.54 12.395.022 12.376-.493 12.333-1.005 12.27-1.514 12.185-2.017 12.077-2.515 11.95-3.006 11.8-3.488 11.629-3.963 11.44-4.428 11.23-4.882 11-5.325 10.751-5.755 10.485-6.173 10.2-6.578 9.898-6.966 9.579-7.341 9.244-7.699 8.895-8.041 8.531-8.366 8.152-8.672 7.761-8.96 7.358-9.229 6.944-9.48 6.518-9.71 6.084-9.919 5.64-10.109 5.188-10.278 4.731-10.425 4.266-10.55 3.798-10.655 3.324-10.738 2.847-10.798 2.369-10.837 1.89-10.854 1.409-10.849.931-10.822.452-10.774-.021-10.704-.493-10.612-.959-10.5-1.42-10.367-1.874-10.214-2.322-10.04-2.76-9.847-3.189-9.635-3.61-9.403-4.018-9.154-4.415-8.888-4.8-8.603-5.171-8.304-5.528-7.987-5.872-7.657-6.199-7.312-6.511-6.954-6.806-6.582-7.083-6.199-7.344-5.805-7.586-5.401-7.809-4.988-8.014-4.565-8.199-4.136-8.363-3.7-8.509-3.258-8.633-2.812-8.738-2.361-8.82-1.909-8.884-1.455-8.924-.999-8.945-.544-8.945-.089-8.923.362-8.881.811-8.817 1.256-8.734 1.696-8.629 2.129-8.505 2.557-8.361 2.976-8.197 3.386-8.015 3.788-7.813 4.178-7.593 4.557-7.356 4.925-7.101 5.28-6.83 5.62-6.543 5.947-6.239 6.259-5.922 6.554-5.59 6.834-5.246 7.097-4.887 7.341-4.519 7.569-4.138 7.778-3.747 7.967-3.348 8.137-2.939 8.288-2.523 8.418-2.101 8.527-1.673 8.618-1.239 8.685-.802 8.734-.362 8.759.079 8.765.523 8.748.966 8.711 1.408 8.653 1.849 8.572 2.286 8.473 2.72 8.351 3.149 8.209 3.573 8.048 3.99 7.865 4.4 7.664 4.8 7.443 5.193 7.204 5.575 6.947 5.946 6.671 6.305 6.378 6.652 6.069 6.985 5.745 7.305 5.403 7.61 5.049 7.899 4.68 8.172 4.298 8.429 3.903 8.668 3.498 8.89 3.081 9.093 2.654 9.277 2.218 9.442 1.774 9.587 1.324 9.713.866 9.818.403 9.902-.063 9.966-.534 10.009-1.008 10.03-1.481 10.03-1.957 10.009-2.432 9.966-2.904 9.902-3.375 9.817-3.843 9.711-4.306 9.583-4.763 9.435-5.214 9.266-5.659 9.077-6.095 8.868-6.522 8.639-6.938 8.392-7.345 8.124-7.739 7.84-8.122 7.537-8.489 7.217-8.845 6.881-9.184 6.529-9.508 6.16-9.815 5.778-10.107 5.382-10.38 4.973-10.635 4.551-10.871 4.117-11.088 3.674-11.285 3.219-11.463 2.756-11.619 2.285-11.755 1.807-11.869 1.323-11.962.832-12.033.338-12.082-.16-12.109-.661-12.114-1.162-12.095-1.665-12.056-2.166-11.994-2.667-11.909-3.166-11.802-3.66-11.674-4.15-11.524-4.636-11.351-5.114-11.159-5.586-10.945-6.05-10.711-6.505-10.456-6.949-10.182-7.383-9.889-7.805-9.577-8.215-9.247-8.612-8.9-8.994-8.535-9.362-8.156-9.715-7.76-10.05-7.35-10.369-6.926-10.671-6.489-10.955-6.039-11.219-5.578-11.465-5.106-11.691-4.626-11.897-4.135-12.083-3.638-12.247-3.133-12.39-2.622-12.513-2.107-12.612-1.587-12.691-1.064-12.747-.54-12.781-.014-12.793.511-12.782 1.037-12.749 1.559-12.694 2.079-12.618 2.595-12.518 3.105-12.398 3.611-12.255 4.11-12.092 4.599-11.907 5.08-11.703 5.554-11.478 6.014-11.233 6.465-10.969 6.903-10.687 7.327-10.386 7.739-10.067 8.135-9.733 8.515-9.381 8.881-9.015 9.229-8.632 9.56-8.237 9.872-7.828 10.167-7.406 10.442-6.972 10.698-6.529 10.932-6.074 11.148-5.611 11.342-5.14 11.515-4.662 11.666-4.177 11.797-3.686 11.903-3.192 11.99-2.694 12.053-2.193 12.094-1.692 12.113-1.189 12.11-.687 12.084-.187 12.036.311 11.966.806 11.875 1.296 11.762 1.781 11.627 2.26 11.471 2.731 11.296 3.195 11.099 3.65 10.883 4.093 10.648 4.528 10.394 4.95 10.122 5.36 9.832 5.758 9.525 6.14 9.201 6.51 8.863 6.862 8.509 7.199 8.142 7.521 7.76 7.824 7.366 8.11 6.961 8.377 6.544 8.627 6.118 8.856 5.682 9.066 5.239 9.256 4.788 9.427 4.33 9.576 3.867 9.704 3.401 9.812 2.93 9.898 2.457 9.963 1.982 10.007 1.507 10.03 1.033 10.03.559 10.011.089 9.968-.379 9.907-.841 9.823-1.299 9.719-1.751 9.595-2.194 9.45-2.631 9.286-3.058 9.103-3.476 8.901-3.882 8.681-4.277 8.442-4.659 8.187-5.03 7.914-5.385 7.625-5.726 7.322-6.053 7.003-6.362 6.67-6.656 6.324-6.932 5.966-7.19 5.594-7.431 5.214-7.653 4.822-7.855 4.421-8.038 4.012-8.201 3.596-8.344 3.172-8.467 2.743-8.568 2.309-8.648 1.872-8.709 1.432-8.747.99-8.764.546-8.76.104-8.735-.339-8.689-.778-8.622-1.216-8.533-1.65-8.424-2.078-8.295-2.5-8.146-2.918-7.977-3.325-7.788-3.727-7.58-4.117-7.355-4.498-7.11-4.868-6.849-5.227-6.569-5.572-6.275-5.905-5.964-6.222-5.638-6.527-5.299-6.815-4.944-7.087-4.577-7.342-4.199-7.581-3.809-7.802-3.408-8.004-2.998-8.188-2.579-8.353-2.153-8.498-1.719-8.623-1.28-8.729-.835-8.813-.386-8.878.065-8.921.52-8.944.974-8.946 1.43-8.926 1.885-8.886 2.337-8.825 2.788-8.742 3.235-8.64 3.676-8.516 4.112-8.371 4.543-8.208 4.965-8.024 5.379-7.821 5.784-7.598 6.178-7.358 6.562-7.098 6.934-6.821 7.293-6.527 7.639-6.216 7.97-5.89 8.287-5.547 8.588-5.191 8.873-4.82 9.14-4.436 9.39-4.04 9.623-3.631 9.836-3.212 10.03-2.784 10.205-2.345 10.359-1.898 10.494-1.445 10.607-.984 10.699-.518 10.771-.047 10.82.428 10.848.905 10.855 1.383 10.838 1.864 10.801 2.343 10.741 2.822 10.66 3.299 10.557 3.772 10.432 4.241 10.286 4.706 10.118 5.164 9.931 5.616 9.721 6.06 9.493 6.496 9.243 6.92 8.975 7.337 8.688 7.74 8.382 8.131 8.059 8.511 7.718 8.876 7.361 9.226 6.987 9.561 6.598 9.882 6.196 10.184 5.778 10.469 5.348 10.738 4.906 10.987 4.452 11.218 3.988 11.429 3.515 11.62 3.031 11.792 2.542 11.941 2.044 12.072 1.541 12.179 1.032 12.266.521 12.331.005 12.373-.512 12.395-1.03 12.394-1.549 12.37-2.066 12.325-2.581 12.257-3.095 12.168-3.602 12.056-4.107 11.924-4.604 11.769-5.096 11.593-5.578 11.397-6.054 11.18-6.518 10.943-6.973 10.686-7.415 10.41-7.847 10.116-8.264 9.803-8.668 9.472-9.058 9.125-9.431 8.762-9.789 8.382-10.13 7.988-10.454 7.58-10.758 7.159-11.046 6.724-11.313 6.278-11.561 5.821-11.789 5.354-11.995 4.879-12.182 4.393-12.346 3.903-12.49 3.404-12.61 2.9-12.71 2.393-12.786 1.881-12.841 1.367-12.872.851-12.882.335-12.868-.18-12.832-.695-12.774-1.207-12.693-1.716-12.59-2.22-12.466-2.72-12.319-3.212-12.152-3.698-11.963-4.176-11.755-4.645-11.524-5.103-11.276-5.552-11.008-5.988-10.721-6.413-10.416-6.824-10.094-7.221-9.755-7.603-9.4-7.971-9.03-8.321-8.645-8.656-8.246-8.973-7.834-9.272-7.41-9.553-6.974-9.815-6.529-10.057-6.074-10.279-5.609-10.482-5.138-10.664-4.659-10.824-4.174-10.965-3.685-11.082-3.192-11.18-2.696-11.255-2.197-11.308-1.699-11.34-1.2-11.35-.701-11.338-.206-11.304.287-11.25.776-11.173 1.26-11.075 1.738-10.957 2.21-10.818 2.673-10.658 3.128-10.48 3.573-10.281 4.008-10.063 4.432-9.826 4.844-9.573 5.242-9.301 5.627-9.013 5.997-8.709 6.354-8.388 6.693-8.054 7.016-7.705 7.322-7.343 7.611-6.968 7.882-6.582 8.133-6.185 8.366-5.777 8.579-5.361 8.772-4.937 8.944-4.504 9.098-4.066 9.228-3.622 9.339-3.174 9.428-2.721 9.495-2.267 9.542-1.81 9.566-1.353 9.57-.896 9.552-.439 9.512.013 9.452.465 9.369.91 9.267 1.353 9.144 1.788 9.001 2.217 8.838 2.638 8.654 3.05 8.453 3.454 8.233 3.846 7.993 4.228 7.738 4.597 7.465 4.954 7.176 5.298 6.87 5.628 6.55 5.941 6.216 6.241 5.868 6.524 5.507 6.79 5.135 7.038 4.75 7.27 4.356 7.483 3.952 7.676 3.54 7.852 3.119 8.007 2.693 8.143 2.26 8.259 1.822 8.353 1.381 8.429.935 8.482.49 8.516.041 8.528-.406 8.519-.853 8.491-1.299 8.44-1.74 8.369-2.179 8.277-2.613 8.166-3.041 8.034-3.463 7.882-3.876 7.711-4.282 7.52-4.678 7.31-5.064 7.083-5.439 6.837-5.802 6.574-6.152 6.295-6.489 5.998-6.813 5.687-7.12 5.36-7.412 5.019-7.689 4.665-7.948 4.297-8.189 3.918-8.414 3.527-8.618 3.126-8.805 2.715-8.972 2.295-9.119 1.868-9.246 1.434-9.352.993-9.438.547-9.503.098-9.546-.356-9.568-.811-9.569-1.268-9.548-1.726-9.505-2.182-9.442-2.637-9.357-3.09-9.251-3.539-9.123-3.984-8.974-4.424-8.806-4.857-8.616-5.283-8.407-5.701-8.178-6.11-7.929-6.509-7.663-6.898-7.377-7.274-7.074-7.639-6.754-7.99-6.418-8.327-6.064-8.651-5.697-8.957-5.315-9.25-4.918-9.523-4.509-9.781-4.088-10.021-3.654-10.242-3.212-10.444-2.758-10.627-2.296-10.789-1.826-10.933-1.349-11.055-.866-11.157-.378-11.237.114-11.296.61-11.333 1.107-11.349 1.606-11.344 2.105-11.316 2.604-11.266 3.1-11.195 3.594-11.102 4.084-10.988 4.57-10.852 5.049-10.695 5.523-10.517 5.988-10.319 6.445-10.099 6.893-9.861 7.33-9.603 7.756-9.326 8.171-9.03 8.572-8.716 8.959-8.385 9.333-8.037 9.69-7.672 10.033-7.293 10.357-6.899 10.666-6.49 10.956-6.067 11.228-5.634 11.48-5.187 11.713-4.73 11.926-4.264 12.119-3.787 12.29-3.303 12.44-2.811 12.569-2.314 12.676-1.81 12.76-1.3 12.823-.79L381.95-2l12.881.24 12.876.755L420.555.267l12.798 1.786 12.725 2.298 12.631 2.806 12.514 3.312 12.374 3.81 12.214 4.303 12.032 4.79 11.828 5.266 11.605 5.735 11.36 6.195 11.097 6.642 10.813 7.079 10.512 7.502 10.191 7.914 9.853 8.31 9.499 8.693 9.128 9.059 8.742 9.409 8.34 9.743 7.925 10.059 7.496 10.357 7.056 10.637 6.603 10.896 6.14 11.138 5.668 11.358 5.185 11.559 4.696 11.738 4.2 11.896 3.696 12.034 3.189 12.149 2.677 12.242 2.161 12.314 1.645 12.363 1.126 12.391.608 12.396.091 12.38-.425 12.34-.939 12.28-1.447 12.197-1.951 12.093-2.45 11.967-2.941 11.821-3.425 11.653-3.901 11.466-4.368 11.259-4.822 11.031-5.267 10.785-5.7 10.521-6.119 10.238-6.525 9.939-6.916 9.622-7.293 9.29-7.653 8.941-7.996 8.58-8.324 8.202-8.633 7.814-8.923 7.412-9.195 6.998-9.448 6.575-9.681 6.142-9.893 5.699-10.085 5.248-10.256 4.791-10.407 4.328-10.535 3.86-10.643 3.386-10.728 2.91-10.791 2.433-10.833 1.952-10.853 1.473-10.851.993-10.827.516-10.781.041-10.715-.431-10.625-.898-10.517-1.36-10.385-1.815-10.235-2.263-10.065-2.702-9.873-3.134-9.663-3.555-9.435-3.965-9.188-4.363-8.924-4.75-8.642-5.123-8.344-5.482-8.03-5.828-7.701-6.157-7.358-6.47-7.002-6.768-6.632-7.048-6.25-7.311-5.858-7.555-5.454-7.781-5.043-7.988-4.621-8.175-4.193-8.343-3.757-8.491-3.317-8.618-2.871-8.725-2.421-8.811-1.969-8.876-1.514-8.92-1.059-8.944-.604-8.946-.149-8.927.302-8.887.753-8.827 1.197-8.746 1.638-8.644 2.073-8.523 2.501-8.381 2.921-8.22 3.333-8.04 3.735-7.84 4.128-7.624 4.508-7.388 4.877-7.135 5.234-6.867 5.576-6.581 5.905-6.28 6.218-5.965 6.516-5.635 6.799-5.291 7.063-4.936 7.31-4.567 7.54-4.189 7.751-3.799 7.943-3.401 8.116-2.993 8.269-2.579 8.402-2.157 8.515-1.729 8.606-1.297 8.678-.86 8.728-.42 8.758.022 8.765.464 8.751.908 8.718 1.35 8.661 1.79 8.585 2.229 8.487 2.663 8.368 3.093 8.229 3.518 8.07 3.935 7.89 4.346 7.692 4.748 7.473 5.142 7.237 5.525 6.981 5.898 6.708 6.258 6.418 6.607 6.111 6.943 5.788 7.263 5.45 7.571 5.096 7.862 4.729 8.137 4.349 8.396 3.956 8.638 3.552 8.861 3.136 9.067 2.711 9.254 2.276 9.421 1.833 9.57 1.384 9.697.926 9.806.465 9.892-.002 9.959-.472 10.004-.945 10.029-1.419 10.031-1.894 10.013-2.369 9.973-2.843 9.912-3.313 9.829-3.781 9.726-4.245 9.601-4.704 9.456-5.155 9.289-5.601 9.103-6.038 8.897-6.466 8.67-6.884 8.425-7.292 8.161-7.688 7.879-8.072 7.577-8.442 7.261-8.798 6.926-9.14 6.575-9.467 6.21-9.776 5.83-10.069 5.435-10.345 5.027-10.602 4.607-10.841 4.175-11.061 3.733-11.261 3.279-11.44 2.818-11.6 2.348-11.738 1.87-11.855 1.386-11.951.897-12.025.404-12.077-.095-12.107-.594-12.114-1.096-12.099-1.599-12.063-2.1-12.003-2.602-11.921-3.099-11.818-3.595-11.692-4.087-11.544-4.572-11.376-5.051-11.185-5.525-10.975-5.989-10.742-6.445-10.491-6.892-10.219-7.326-9.929-7.751-9.619-8.162-9.291-8.56-8.947-8.944-8.585-9.315-8.206-9.669-7.813-10.007-7.405-10.328-6.983-10.632-6.546-10.918-6.1-11.186-5.639-11.434-5.17-11.662-4.688-11.871-4.2-12.06-3.704-12.226-3.2-12.373-2.69-12.498-2.175-12.6-1.656-12.682-1.133-12.741-.609-12.778-.083-12.792.442-12.785.967-12.755 1.49-12.702 2.011-12.629 2.528-12.533 3.038-12.414 3.545-12.276 4.044-12.114 4.535-11.933 5.018-11.731 5.492-11.509 5.954-11.266 6.406-11.005 6.846-10.725 7.272-10.427 7.686-10.11 8.083-9.778 8.467-9.428 8.833-9.064 9.184-8.684 9.518-8.289 9.832-7.883 10.129-7.462 10.407-7.03 10.665-6.588 10.903-6.135 11.121-5.672 11.317-5.203 11.493-4.725 11.648-4.24 11.78-3.752 11.891-3.257 11.98-2.76 12.046-2.259 12.09-1.758 12.112-1.255 12.111-.753 12.089-.253 12.043.246 11.977.74 11.888 1.233 11.778 1.717 11.646 2.197 11.493 2.67 11.32 3.134 11.126 3.59 10.913 4.036 10.68 4.471 10.429 4.896 10.158 5.307 9.871 5.706 9.566 6.09 9.246 6.462 8.908 6.816 8.557 7.157 8.19 7.479 7.811 7.785 7.419 8.073 7.015 8.343 6.599 8.595 6.175 8.827 5.74 9.04 5.298 9.232 4.847 9.405 4.391 9.558 3.929 9.688 3.462 9.799 2.992 9.888 2.519 9.956 2.045 10.003 1.57 10.027 1.095 10.032.621 10.014.151 9.976-.317 9.915-.781 9.836-1.239 9.734-1.692 9.612-2.136 9.47-2.574 9.309-3.002 9.129-3.421 8.928-3.829 8.711-4.226 8.474-4.61 8.222-4.982 7.951-5.339 7.664-5.682 7.363-6.01 7.045-6.323 6.715-6.618 6.371-6.897 6.013-7.157 5.644-7.4 5.265-7.625 4.874-7.829 4.474-8.016 4.066-8.18 3.651-8.327 3.228-8.451 2.8-8.556 2.367-8.64 1.93-8.701 1.49-8.743 1.048-8.764.605-8.762.162-8.739-.281-8.696-.721-8.632-1.158-8.546-1.593-8.44-2.022-8.313-2.445-8.167-2.863-8-3.272-7.814-3.674-7.609-4.067-7.385-4.448-7.143-4.821-6.884-5.18-6.608-5.527-6.314-5.861-6.006-6.182-5.682-6.488-5.344-6.777-4.991-7.052-4.627-7.31-4.249-7.551-3.861-7.774-3.461-7.978-3.053-8.165-2.635-8.332-2.209-8.48-1.777-8.608-1.338-8.716-.894-8.803-.445-8.871.006-8.917.459-8.942.915-8.946 1.37-8.93 1.825-8.893 2.278-8.834 2.728-8.754 3.176-8.654 3.619-8.534 4.055-8.392 4.486-8.23 4.91-8.05 5.325-7.848 5.731-7.629 6.127-7.39 6.512-7.133 6.886-6.859 7.246-6.567 7.594-6.258 7.928-5.933 8.246-5.594 8.549-5.238 8.836-4.87 9.106-4.487 9.359-4.093 9.593-3.685 9.809-3.269 10.006-2.84 10.183-2.403 10.34-1.958 10.477-1.505 10.593-1.045 10.689-.579 10.762-.109 10.815.364 10.846.842 10.854 1.321 10.842 1.8 10.807 2.28 10.751 2.759 10.672 3.236 10.571 3.71 10.45 4.18 10.306 4.645 10.142 5.104 9.956 5.557 9.75 6.002 9.524 6.439 9.278 6.865 9.011 7.282 8.727 7.687 8.423 8.081 8.103 8.462 7.764 8.828 7.408 9.181 7.037 9.519 6.651 9.84 6.249 10.145 5.834 10.433 5.406 10.703 4.964 10.956 4.513 11.188 4.05 11.402 3.577 11.597 3.096 11.77 2.606 11.923 2.11 12.055 1.608 12.166 1.1 12.256.588 12.324.073 12.369-.444 12.393-.962 12.395-1.48 12.375-1.998 12.332-2.514 12.267-3.027 12.181-3.536 12.073-4.04 11.942-4.54 11.79-5.031 11.618-5.515 11.424-5.992 11.21-6.457 10.975-6.914 10.721-7.358 10.448-7.79 10.155-8.21 9.845-8.616 9.517-9.007 9.172-9.383 8.81-9.743 8.433-10.086 8.041-10.412 7.635-10.72 7.214-11.008 6.782-11.279 6.338-11.53 5.882-11.76 5.416-11.969 4.942-12.159 4.458-12.326 3.967-12.471 3.47-12.596 2.967-12.698 2.46-12.778 1.948-12.834 1.435-12.87.92-12.881.403-12.871-.113-12.839-.627-12.782-1.14-12.705-1.649-12.606-2.154-12.483-2.654-12.34-3.148-12.175-3.635-11.989-4.113-11.783-4.583-11.556-5.044-11.31-5.493-11.044-5.932-10.76-6.358-10.457-6.77-10.138-7.169-9.8-7.554-9.448-7.923-9.079-8.277-8.697-8.613-8.299-8.932-7.889-9.234-7.466-9.517-7.033-9.781-6.588-10.026-6.134-10.252-5.671-10.456-5.2-10.641-4.722-10.804-4.239-10.947-3.75-11.069-3.257-11.168-2.761-11.246-2.264-11.302-1.764-11.337-1.265-11.35-.767-11.341-.271-11.31.222-11.258.712-11.184 1.197-11.09 1.675-10.974 2.148-10.837 2.613-10.681 3.068-10.504 3.515-10.308 3.952-10.092 4.377-9.859 4.79-9.608 5.19-9.338 5.577-9.051 5.95-8.75 6.307-8.431 6.649-8.099 6.975-7.752 7.283-7.391 7.574-7.018 7.847-6.634 8.101-6.237 8.336-5.832 8.552-5.416 8.748-4.993 8.923-4.562 9.078-4.124 9.213-3.681 9.325-3.233 9.418-2.781 9.487-2.326 9.537-1.871 9.565-1.413 9.571-.956 9.555-.5 9.518-.045 9.461.405 9.382.852 9.282 1.295 9.161 1.731 9.021 2.16 8.86 2.583 8.68 2.997 8.48 3.401 8.263 3.795 8.026 4.178 7.773 4.55 7.501 4.908 7.215 5.254 6.911 5.584 6.594 5.901 6.26 6.203 5.915 6.487 5.555 6.756 5.184 7.007 4.802 7.24 4.408 7.456 4.006 7.652 3.594 7.83 3.176 7.988 2.749 8.126 2.317 8.244 1.88 8.342 1.439 8.42.995 8.477.548 8.512.1 8.528-.347 8.522-.795 8.495-1.239 8.448-1.683 8.379-2.122 8.291-2.556 8.182-2.985 8.052-3.407 7.903-3.822 7.734-4.229 7.547-4.626 7.339-5.014 7.114-5.39 6.87-5.755 6.61-6.107 6.332-6.446 6.039-6.771 5.728-7.08 5.404-7.375 5.065-7.653 4.712-7.915 4.346-8.158 3.969-8.385 3.579-8.593 3.179-8.782 2.77-8.951 2.351-9.1 1.925-9.231 1.491-9.339 1.052-9.428.606-9.495.157-9.542-.296-9.566-.751-9.57-1.208-9.552-1.665-9.513-2.122-9.451-2.578-9.37-3.03-9.265-3.48-9.141-3.926-8.996-4.366-8.829-4.801-8.642-5.227-8.435-5.647-8.209-6.056-7.964-6.457-7.698-6.847-7.416-7.226-7.115-7.591-6.798-7.945-6.462-8.284-6.112-8.609-5.747-8.918-5.365-9.211-4.971-9.489-4.564-9.748-4.144-9.99-3.712-10.214-3.27-10.418-2.819-10.604-2.357-10.77-1.888-10.915-1.413-11.04-.93-11.144-.442-11.228.049-11.289.544-11.33 1.042-11.348 1.54-11.346 2.04-11.321 2.538-11.274 3.034-11.205 3.53-11.116 4.02-11.004 4.505-10.871 4.987-10.717 5.461-10.542 5.927-10.346 6.385-10.129 6.835-9.894 7.273-9.638 7.701-9.363 8.117-9.07 8.519-8.758 8.909-8.43 9.285-8.084 9.644-7.721 9.988-7.344 10.316-6.951 10.626-6.545 10.919-6.124 11.193-5.691 11.448-5.247 11.684-4.791 11.899-4.326 12.094-3.85 12.269-3.367 12.422-2.877 12.553-2.379L341.829.577l12.75-1.369 12.817-.857 12.859-.344 12.879.171 12.878.688L418.865.07l12.806 1.718 12.736 2.23 12.645 2.74 12.53 3.246 12.394 3.745 12.236 4.239 12.057 4.725 11.857 5.204 11.635 5.675 11.394 6.134 11.132 6.584 10.852 7.022 10.552 7.448 10.235 7.86 9.899 8.259 9.546 8.643 9.178 9.011 8.793 9.365 8.394 9.7 7.98 10.018 7.554 10.319 7.114 10.6 6.664 10.864 6.202 11.107 5.73 11.33 5.249 11.534 4.761 11.715 4.265 11.877 3.763 12.017 3.256 12.135 2.744 12.231 2.23 12.306 1.713 12.358 1.195 12.389.676 12.396.158 12.383-.357 12.347-.871 12.289-1.38 12.209-1.885 12.108-2.385 11.985-2.877 11.841-3.362 11.677-3.839 11.492-4.306 11.286-4.763 11.063-5.21 10.818-5.643 10.557-6.064 10.277-6.473 9.979-6.865 9.664-7.244 9.335-7.607 8.988-7.952 8.628-8.282 8.253-8.593 7.866-8.886 7.465-9.16 7.054-9.416 6.631-9.651 6.199-9.866 5.758-10.061 5.308-10.236 4.852-10.388 4.389-10.519 3.921-10.63 3.449-10.718 2.974-10.784 2.495-10.829 2.015-10.851 1.536-10.853 1.057-10.831.578-10.789.103-10.724-.369-10.639-.836-10.532-1.3-10.404-1.755-10.256-2.204-10.088-2.646-9.899-3.077-9.692-3.5-9.466-3.911-9.222-4.312-8.959-4.7-8.68-5.074-8.384-5.436-8.073-5.783-7.745-6.114-7.404-6.431-7.05-6.729-6.681-7.012-6.301-7.277-5.91-7.524-5.508-7.753-5.097-7.961-4.678-8.152-4.249-8.322-3.816-8.473-3.375-8.602-2.929-8.712-2.481-8.801-2.029-8.869-1.574-8.916-1.119-8.941-.663-8.947-.21-8.931.244-8.894.693-8.836 1.139-8.758 1.581-8.658 2.016-8.54 2.444-8.401 2.867-8.242 3.279-8.065 3.683-7.868 4.076-7.653 4.459-7.42 4.829-7.17 5.188-6.902 5.531-6.62 5.863-6.321 6.178-6.007 6.478-5.679 6.762-5.337 7.029-4.983 7.279-4.617 7.511-4.239 7.724-3.851 7.919-3.454 8.094-3.048 8.25-2.633 8.386-2.213 8.501-1.786 8.595-1.354 8.67-.917 8.723-.479 8.754-.036 8.766.406 8.754.849 8.723 1.292 8.67 1.732 8.596 2.172 8.501 2.606 8.385 3.037 8.249 3.461 8.092 3.881 7.915 4.292 7.719 4.696 7.503 5.091 7.269 5.475 7.016 5.849 6.745 6.212 6.457 6.562 6.152 6.899 5.832 7.222 5.495 7.531 5.144 7.824 4.778 8.102 4.4 8.363 4.008 8.607 3.606 8.833 3.191 9.041 2.767 9.23 2.334 9.401 1.892 9.551 1.443 9.682.988 9.792.525 9.882.06 9.951-.41 10-.882 10.026-1.357 10.032-1.832 10.017-2.306 9.979-2.78 9.922-3.252 9.841-3.72 9.741-4.184 9.619-4.643 9.475-5.096 9.313-5.543 9.129-5.981 8.925-6.41 8.701-6.83 8.458-7.239 8.197-7.636 7.917-8.022 7.618-8.394 7.303-8.753 6.971-9.096 6.623-9.424 6.259-9.736 5.88-10.032 5.488-10.309 5.082-10.57 4.663-10.81 4.232-11.033 3.792-11.236 3.339-11.418 2.88-11.58 2.41-11.721 1.933-11.841 1.451-11.94.961-12.016.469-12.071-.029-12.104-.528-12.115-1.03-12.102-1.532-12.069-2.035-12.012-2.535-11.933-3.035-11.833-3.53-11.71-4.022-11.565-4.508-11.399-4.989-11.212-5.463-11.003-5.928-10.774-6.386-10.525-6.833-10.257-7.27-9.967-7.695-9.661-8.108-9.336-8.509-8.993-8.895-8.633-9.267-8.258-9.623-7.865-9.963-7.46-10.287-7.039-10.593-6.605-10.882-6.158-11.151-5.7-11.402-5.233-11.634-4.753-11.845-4.265-12.036-3.77-12.205-3.266-12.355-2.757-12.482-2.243-12.589-1.724-12.672-1.203-12.734-.678-12.774-.152-12.792.373-12.787.898-12.76 1.422-12.711 1.942-12.64 2.46-12.546 2.971-12.432 3.478-12.295 3.979-12.137 4.47-11.958 4.956-11.759 5.43-11.538 5.894-11.3 6.347-11.04 6.789-10.763 7.217-10.467 7.631-10.153 8.032-9.823 8.417-9.475 8.786-9.113 9.139-8.734 9.475-8.343 9.792-7.936 10.091-7.518L141.372 88l10.632-6.647 10.873-6.195 11.093-5.734 11.293-5.265 11.471-4.788 11.629-4.305 11.764-3.816 11.878-3.322 11.969-2.826 12.038-2.325 12.086-1.824 12.11-1.322 12.113-.819 12.093-.318 12.051.18 11.987.676 11.9 1.167 11.794 1.654 11.664 2.135 11.515 2.608 11.344 3.073 11.153 3.53 10.942 3.978 10.712 4.415 10.462 4.84 10.195 5.254 9.91 5.654 9.607 6.04 9.289 6.414 8.954 6.77 8.603 7.113 8.24 7.438 7.862 7.745 7.471 8.037 7.068 8.309 6.655 8.562 6.232 8.798 5.797 9.013 5.357 9.208 4.907 9.384 4.451 9.538 3.99 9.672 3.524 9.786 3.054 9.877 2.581 9.949 2.108 9.997 1.632 10.026 1.158 10.032.684 10.018.212 9.982-.256 9.925-.72 9.847-1.179 9.748-1.632 9.63-2.079 9.49-2.516 9.331-2.947 9.154-3.366 8.956-3.776 8.74-4.174 8.506-4.561 8.256-4.933 7.987-5.293 7.704-5.638 7.403-5.968 7.088-6.282 6.759-6.58 6.417-6.861 6.061-7.124 5.693-7.37 5.315-7.596 4.926-7.803 4.528-7.992 4.121-8.16 3.705-8.309 3.284-8.436 2.857-8.543 2.424-8.63 1.988-8.695 1.548-8.738 1.106-8.762.663-8.763.221-8.744-.223-8.703-.663-8.642-1.101-8.558-1.535-8.455-1.966-8.331-2.39-8.187-2.808-8.023-3.219-7.84-3.622-7.637-4.015-7.416-4.399-7.176-4.772-6.919-5.133-6.645-5.483-6.354-5.818-6.047-6.14-5.726-6.448-5.389-6.741-5.038-7.017-4.676-7.276-4.3-7.52-3.912-7.746-3.515-7.952-3.107-8.142-2.69-8.311-2.266-8.462-1.834-8.592-1.396-8.703-.952-8.793-.505-8.862-.054-8.912.4-8.94.854-8.948 1.31-8.933 1.765-8.899 2.219-8.843 2.669-8.766 3.117-8.668 3.561-8.551 3.998-8.411 4.43-8.253 4.855-8.075 5.27-7.876 5.678-7.659 6.076-7.422 6.462-7.168 6.837-6.896 7.2-6.606 7.549-6.3 7.884-5.977 8.205-5.639 8.511-5.286 8.799-4.919 9.071-4.538 9.327-4.146 9.563-3.74 9.781-3.323 9.981-2.898 10.161-2.461 10.321-2.017 10.46-1.565 10.579-1.106 10.677-.641 10.754-.171 10.81.302 10.842.779 10.855 1.257 10.845 1.738 10.813 2.217 10.759 2.696 10.683 3.173 10.586 3.648 10.467 4.118 10.327 4.584 10.164 5.044 9.982 5.498 9.779 5.944 9.555 6.381 9.31 6.81 9.048 7.228 8.766 7.634 8.464 8.03 8.146 8.412 7.809 8.781 7.456 9.135 7.087 9.475 6.703 9.799 6.302 10.106 5.89 10.396 5.463 10.669 5.023 10.923 4.573 11.159 4.111 11.375 3.64 11.572 3.16 11.748 2.671 11.905 2.176 12.039 1.674 12.153 1.167 12.245.656 12.316.141 12.364-.376 12.392-.893 12.396-1.413 12.378-1.93 12.339-2.446 12.277-2.959 12.194-3.469 12.088-3.975 11.96-4.473 11.812-4.967 11.642-5.452 11.45-5.93 11.239-6.396 11.008-6.854 10.755-7.301 10.485-7.734 10.195-8.156 9.887-8.563 9.561-8.956 9.218-9.335 8.859-9.696 8.484-10.042 8.093-10.37 7.689-10.68 7.271-10.972 6.839-11.244 6.397-11.498 5.943-11.73 5.478-11.944 5.004-12.134 4.522-12.305 4.033-12.454 3.536-12.581 3.033-12.686 2.527-12.768 2.016-12.829 1.503-12.866.987-12.881.471-12.874-.045-12.843-.56-12.792-1.072-12.716-1.582-12.62-2.088-12.501-2.588-12.36-3.084-12.198-3.57-12.015-4.051-11.811-4.522-11.587-4.984-11.343-5.435-11.081-5.874-10.798-6.302-10.498-6.717-10.181-7.118-9.846-7.504-9.495-7.875-9.128-8.231-8.748-8.57-8.352-8.891-7.944-9.195-7.523-9.481-7.09-9.747-6.647-9.996-6.195-10.222-5.732-10.431-5.262-10.618-4.786-10.784-4.303-10.929-3.814-11.054-3.322-11.156-2.827-11.237-2.329-11.296-1.83-11.334-1.331-11.349-.833-11.344-.336-11.315.158-11.266.647-11.195 1.133-11.103 1.613-10.991 2.087-10.856 2.551-10.703 3.01-10.528 3.456-10.335 3.895-10.122 4.321-9.891 4.737-9.641 5.138-9.375 5.527-9.09 5.901-8.79 6.262-8.475 6.605-8.143 6.932-7.798 7.244-7.44 7.536-7.068 7.812-6.684 8.069-6.291 8.307-5.885 8.524-5.472 8.723-5.049 8.902-4.619 9.059-4.182 9.196-3.74 9.311-3.292 9.407-2.84 9.48-2.387 9.531-1.931 9.562-1.473 9.572-1.016 9.558-.56 9.525-.105 9.469.346 9.393.793 9.297 1.237 9.178 1.674 9.04 2.105 8.883 2.527 8.704 2.943 8.508 3.348 8.293 3.744 8.058 4.129 7.807 4.501 7.538 4.862 7.254 5.208 6.952 5.542 6.636 5.861 6.305 6.163 5.961 6.451 5.603 6.721 5.234 6.975 4.853 7.211 4.46 7.428 4.06 7.628 3.649 7.807 3.231 7.968 2.805 8.109 2.375 8.23 1.938 8.331 1.497 8.411 1.053 8.47.607 8.509.16 8.527-.289 8.523-.735 8.5-1.182 8.456-1.624 8.389-2.064 8.304-2.499 8.197-2.929 8.071-3.352 7.924-3.768 7.757-4.176 7.572-4.575 7.368-4.963 7.144-5.341 6.904-5.708 6.645-6.061 6.37-6.402 6.078-6.729 5.77-7.04 5.448-7.337 5.11-7.618 4.759-7.881 4.395-8.128 4.019-8.356 3.631-8.566 3.233-8.758 2.824-8.93 2.407-9.082 1.981-9.214 1.549-9.327 1.109-9.417.666-9.488.216-9.536-.236-9.565-.691-9.57-1.148-9.556-1.605-9.519-2.062-9.461-2.517-9.381-2.971-9.281-3.422-9.158-3.867-9.016-4.308-8.852-4.744-8.668-5.171-8.464-5.592-8.24-6.003-7.997-6.405-7.734-6.797-7.454-7.176-7.156-7.544-6.84-7.899-6.508-8.24-6.159-8.567-5.795-8.878-5.417-9.174-5.024-9.453-4.618-9.715-4.2-9.959-3.77-10.186-3.328-10.392-2.879-10.581-2.418-10.749-1.95-10.897-1.476-11.025-.994-11.131-.507-11.218-.016-11.283.479-11.325.976-11.348 1.475-11.347 1.974-11.325 2.472-11.281 2.97-11.216 3.464-11.129 3.955-11.02 4.442-10.89 4.924-10.738 5.398-10.566 5.867-10.373 6.325-10.159 6.776-9.926 7.216-9.673 7.646-9.4 8.062-9.11 8.468-8.8 8.858-8.474 9.236-8.13 9.598-7.77 9.944-7.395 10.273-7.004 10.587-6.598 10.881-6.18 11.158-5.75 11.416-5.306 11.653-4.852 11.872-4.387 12.07-3.913 12.247-3.432 12.403-2.941 12.537-2.445 12.65-1.943 12.74-1.435 12.809-.926 12.854-.411 12.879.103 12.879.62 12.857 1.136 12.814 1.65 12.747 2.164 12.658 2.673 12.546 3.179 12.413 3.68 12.259 4.173 12.081 4.662 11.884 5.142 11.666 5.613 11.427 6.074 11.168 6.525 10.89 6.965 10.592 7.393 10.278 7.807 9.944 8.207 9.594 8.593 9.227 8.964 8.844 9.319 8.448 9.656 8.035 9.978 7.611 10.28 7.173 10.565 6.724 10.83 6.263 11.076 5.793 11.302 5.313 11.508 4.825 11.693 4.331 11.857 3.83 11.999 3.322 12.121 2.812 12.219 2.298 12.298 1.781 12.352 1.263 12.386.744 12.397.227 12.386-.29 12.353-.803 12.297-1.313 12.221-1.819 12.123-2.319 12.002-2.813 11.861-3.299 11.7-3.776 11.517-4.246 11.315-4.703 11.093-5.152 10.852-5.586 10.592-6.01 10.315-6.42 10.019-6.814 9.707-7.195 9.379-7.56 9.035-7.908 8.676-8.239 8.303-8.553 7.917-8.848 7.519-9.126 7.109-9.383 6.687-9.621 6.257-9.839 5.816-10.037 5.368-10.213 4.912-10.37 4.451-10.503 3.983-10.616 3.511-10.708 3.036-10.777 2.558-10.824 2.079-10.85 1.6-10.853 1.119-10.836.641-10.795.166-10.734-.307-10.651-.776-10.547-1.238-10.423-1.696-10.276-2.146-10.111-2.587-9.926-3.021-9.72-3.445-9.497-3.858-9.255-4.26-8.995-4.649-8.718-5.026-8.424-5.389-8.114-5.738-7.789-6.072-7.45-6.389-7.097-6.691-6.73-6.976-6.352-7.244-5.962-7.492-5.562-7.723-5.152-7.936-4.733-8.127-4.306-8.301-3.873-8.454-3.434-8.587-2.988-8.698-2.54-8.791-2.088-8.861-1.635-8.91-1.178-8.94-.724-8.947-.269-8.934.184-8.9.634-8.845 1.081-8.769 1.522-8.673 1.959-8.557 2.389-8.42 2.811-8.265 3.226-8.089 3.63-7.894 4.025-7.683 4.409-7.451 4.781-7.204 5.141-6.939 5.488-6.658 5.819-6.361 6.138-6.049 6.439-5.723 6.726-5.383 6.994-5.031 7.248-4.665 7.481-4.29 7.697-3.903 7.894-3.506 8.073-3.102 8.23-2.688 8.369-2.269 8.487-1.842 8.585-1.411 8.661-.976 8.717-.536 8.751-.095 8.765.348 8.758.791 8.728 1.233 8.678 1.675 8.607 2.114 8.515 2.549 8.401 2.98 8.268 3.406 8.114 3.826 7.939 4.239 7.746 4.643 7.533 5.039 7.301 5.425 7.05 5.801 6.782 6.164 6.496 6.517 6.193 6.855 5.875 7.181 5.54 7.491 5.191 7.786 4.827 8.067 4.45 8.329 4.061 8.576 3.659 8.804 3.247 9.015 2.824 9.206 2.391 9.38 1.951 9.532 1.502 9.666 1.048 9.779.587 9.871.121 9.944-.348 9.994-.82 10.024-1.294 10.033-1.769 10.019-2.244 9.986-2.718 9.93-3.19 9.853-3.658 9.755-4.123 9.636-4.584 9.496-5.037 9.336-5.484 9.154-5.923 8.953-6.355 8.731-6.775 8.492-7.185 8.232-7.585 7.955-7.972 7.658-8.346 7.346-8.706 7.016-9.052 6.669-9.381 6.308-9.696 5.931-9.994 5.54-10.274 5.136-10.536 4.719-10.78 4.29-11.005 3.85-11.21 3.4-11.395 2.94-11.56 2.472-11.704 1.997-11.827 1.514-11.927 1.027-12.008.533-12.065.038-12.101-.463-12.114-.964-12.106-1.466-12.074-1.968-12.021-2.47-11.945-2.969-11.847-3.465L205 639.744l-11.585-4.445-11.422-4.926-11.238-5.4-11.032-5.868-10.805-6.326-10.559-6.775-10.293-7.213-10.007-7.64-9.702-8.054-9.38-8.457-9.039-8.845-8.681-9.218L72.948 547l-7.918-9.92-7.514-10.245-7.095-10.554-6.663-10.845-6.218-11.117-5.761-11.37-5.295-11.604-4.816-11.818-4.33-12.012-3.835-12.185-3.334-12.336-2.824-12.467-2.311-12.576-1.793-12.662-1.271-12.727-.748-12.771-.221-12.79.304-12.789.829-12.765 1.353-12.719 1.874-12.65 2.391-12.56 2.905-12.448 3.412-12.314 3.913-12.159 4.406-11.983 4.892-11.786 5.368-11.569 5.833-11.332 6.289-11.076 6.73-10.8 7.162-10.507 7.578-10.196 7.98-9.867 8.367-9.522 8.739-9.161 9.093-8.785 9.431-8.395 9.752-7.991 10.052-7.574 10.336-7.145 10.599-6.705 10.842-6.255 11.065-5.795 11.268-5.328 11.449-4.85 11.609-4.37 11.748-3.88 11.864-3.388 11.958-2.891 12.031-2.392 12.08-1.89 12.109-1.387 12.113-.886 12.097-.384 12.058.115 11.996.61 11.914 1.104 11.809 1.59 11.682 2.071 11.536 2.546 11.367 3.013 11.18 3.47 10.971 3.92 10.743 4.358 10.496 4.785 10.232 5.2 9.948 5.602 9.648 5.99 9.331 6.366 8.999 6.724 8.651 7.069 8.288 7.395 7.912 7.706 7.524 7.999 7.122 8.274 6.71 8.531 6.287 8.767 5.856 8.986 5.415 9.184 4.966 9.361 4.512 9.52 4.051 9.656 3.585 9.771 3.117 9.867 2.644 9.94 2.169 9.993 1.695 10.023 1.22 10.032.746 10.021.275 9.988-.194 9.934-.66 9.858-1.119 9.763-1.573 9.646-2.02 9.51-2.459 9.353-2.891 9.178-3.311 8.983-3.723 8.77-4.122 8.538-4.51 8.29-4.885 8.023-5.247 7.742-5.593 7.443-5.925 7.131-6.242 6.803-6.542 6.463-6.825 6.108-7.091 5.743-7.338 5.365-7.567 4.978-7.777 4.581-7.969 4.174-8.139 3.761-8.29 3.34-8.42 2.914-8.531 2.481-8.619 2.045-8.687 1.606-8.735 1.165-8.76.721-8.764.279-8.748-.164-8.709-.605-8.651-1.044-8.57-1.478-8.47-1.91-8.349-2.334-8.207-2.754-8.046-3.165-7.865-3.569-7.664-3.964-7.446-4.349-7.209-4.724-6.954-5.086-6.682-5.437-6.393-5.775-6.089-6.099-5.769-6.408-5.434-6.703-5.085-6.981-4.724-7.244-4.35-7.489-3.964-7.716-3.568-7.927-3.161-8.117-2.746-8.29-2.322-8.443-1.891-8.576-1.454-8.69-1.011-8.782-.564-8.855-.114-8.907.34-8.937.795-8.948 1.25-8.936 1.705-8.904 2.159-8.852 2.61-8.777 3.059-8.683 3.502-8.567 3.941-8.431 4.373-8.275 4.799-8.099 5.217-7.904 5.625-7.688 6.023-7.455 6.412-7.203 6.789-6.932 7.152-6.645 7.504-6.341 7.841-6.021 8.164-5.684 8.471-5.333 8.762-4.969 9.037-4.589 9.293-4.198 9.534-3.794 9.753-3.379 9.956-2.954 10.138-2.519 10.301-2.076 10.443-1.625 10.565-1.166 10.665-.703 10.745-.234 10.804.24 10.839.716 10.855 1.194 10.847 1.674 10.818 2.154 10.768 2.633 10.694 3.111 10.601 3.585 10.483 4.057 10.347 4.523 10.187 4.984 10.007 5.438 9.806 5.886 9.586 6.324 9.344 6.754 9.083 7.173 8.804 7.582 8.505 7.978 8.189 8.363 7.854 8.733 7.504 9.09 7.137 9.431 6.754 9.756 6.356 10.067 5.944 10.359 5.52 10.634 5.082 10.891 4.633 11.129 4.173 11.347 3.702 11.548 3.224 11.726 2.736 11.885 2.241 12.022 1.74 12.139 1.234 12.235.724 12.307.209 12.36-.308 12.389-.825 12.396-1.344 12.383-1.862 12.345-2.378 12.287-2.892 12.205-3.402 12.103-3.909 11.979-4.408 11.833-4.902 11.665-5.389 11.477-5.867 11.268-6.336 11.039-6.794 10.79-7.242 10.521-7.678 10.235-8.101 9.928-8.51 9.605-8.906 9.265-9.285 8.907-9.65 8.534-9.997 8.145-10.328 7.743-10.64 7.327-10.935 6.897-11.209 6.455-11.466 6.003-11.701 5.54-11.916 5.068-12.111 4.586-12.284 4.097-12.435 3.602-12.566 3.1-12.673 2.593-12.759 2.084-12.821 1.57-12.863 1.055-12.88.54-12.876.023-12.849-.492-12.8-1.006-12.728-1.515-12.633-2.021-12.518-2.523-12.38-3.018-12.22-3.507-12.041-3.989-11.839-4.46-11.618-4.923-11.376-5.376-11.116-5.818-10.836-6.246-10.539-6.663-10.224-7.066-9.891-7.454-9.542-7.828-9.177-8.184-8.799-8.526-8.405-8.85-7.998-9.156-7.579-9.445-7.148-9.713-6.707-9.964-6.254-10.194-5.794-10.404-5.325-10.594-4.848-10.764-4.367-10.911-3.879-11.039-3.387-11.144-2.892-11.227-2.395-11.29-1.895-11.33-1.397-11.349-.899-11.345-.401-11.32.093-11.274.583-11.206 1.07-11.116 1.55-11.006 2.024-10.876 2.49-10.724 2.95-10.552 3.399-10.362 3.837-10.151 4.266-9.922 4.683-9.675 5.086-9.411 5.476-9.129 5.853-8.83 6.215-8.517 6.561-8.188 6.89-7.844 7.204-7.488 7.499-7.117 7.777-6.736 8.036-6.343 8.276-5.94 8.497-5.526 8.698-5.106 8.879-4.676 9.039-4.24 9.179-3.798 9.298-3.351 9.395-2.9 9.472-2.447 9.526-1.99 9.559-1.534 9.571-1.076 9.562-.62 9.53-.165 9.478.286 9.404.735 9.311 1.179 9.195 1.617 9.059 2.048 8.905 2.473 8.729 2.888 8.535 3.296 8.321 3.692 8.091 4.078 7.841 4.453 7.575 4.815 7.291 5.164 6.993 5.499 6.679 5.819 6.349 6.125 6.007 6.414 5.651 6.686 5.283 6.943 4.904 7.18 4.513 7.401 4.112 7.602 3.704 7.785 3.286 7.948 2.862 8.092 2.432 8.215 1.996 8.319 1.555 8.401 1.112 8.464.666 8.505.218 8.525-.229 8.526-.677 8.504-1.123 8.462-1.566 8.4-2.006 8.316-2.443 8.213-2.872 8.088-3.297 7.944-3.714 7.781-4.122 7.597-4.523 7.396-4.913 7.175-5.292 6.936-5.66 6.68-6.015 6.407-6.358 6.118-6.686 5.811-7.001 5.491-7.299 5.156-7.581 4.806-7.848 4.444-8.096 4.069-8.327 3.683-8.54 3.285-8.733 2.879-8.909 2.462-9.063 2.038-9.198 1.606-9.313 1.168-9.406.724-9.48.275-9.531-.176-9.562-.631-9.571-1.087-9.559-1.545-9.525-2.002-9.47-2.458-9.393-2.911-9.295-3.362-9.176-3.809-9.035-4.251-8.875-4.686-8.694-5.116-8.492-5.537-8.27-5.95-8.03-6.352-7.77-6.746-7.492-7.126-7.196-7.497-6.883-7.853-6.552-8.196-6.206-8.524-5.844-8.839-5.468-9.135-5.076-9.418-4.672-9.681-4.256-9.928-3.827-10.157-3.387-10.366-2.939-10.557-2.48-10.728-2.012-10.879-1.538-11.009-1.058-11.119-.571-11.208-.081-11.275.413-11.321.911-11.346 1.409-11.348 1.908-11.329 2.407-11.289 2.904-11.226 3.4-11.141 3.89-11.036 4.379-10.908 4.86-10.76 5.337-10.589 5.805-10.4 6.265-10.188 6.717-9.958 7.159-9.707 7.59-9.438 8.008-9.148 8.415-8.843 8.808-8.517 9.187-8.177 9.551-7.818 9.899-7.445 10.231-7.056 10.546-6.653 10.844-6.236 11.122-5.807 11.383-5.365 11.624-4.912 11.844-4.45 12.045-3.975 12.225-3.496 12.383-3.006 12.521-2.51 12.636-2.01 12.73-1.502 12.801-.993 12.85-.48 12.876.036 12.88.552 12.862 1.068 12.821 1.583 12.757 2.096 12.67 2.606L466.294 9.1l12.432 3.614 12.28 4.11 12.106 4.598 11.911 5.078 11.696 5.552 11.459 6.014 11.203 6.467 10.928 6.907 10.633 7.337 10.32 7.753 9.989 8.156 9.641 8.543 9.276 8.916 8.896 9.273 8.5 9.613 8.091 9.936 7.668 10.242 7.231 10.528 6.783 10.796 6.324 11.045 5.856 11.273 5.377 11.482 4.89 11.67 4.396 11.836 3.896 11.982 3.39 12.106 2.879 12.208 2.366 12.288 1.849 12.347 1.331 12.383.813 12.396.295 12.389-.222 12.359-.736 12.306-1.246 12.232-1.753 12.137-2.253 12.019-2.749 11.881-3.235 11.722-3.714 11.543-4.184 11.342-4.644 11.124-5.093 10.884-5.53 10.628-5.955 10.352-6.366 10.059-6.764 9.749-7.145 9.423-7.513 9.081-7.863 8.724-8.196 8.353-8.513 7.969-8.811 7.572-9.09 7.163-9.35 6.744-9.591 6.314-9.812 5.874-10.012 5.428-10.191 4.972-10.35 4.512-10.487 4.045-10.602 3.574-10.697 3.099-10.769 2.621-10.819 2.142-10.848 1.662-10.854 1.183-10.839.704-10.802.228-10.744-.245-10.663-.714-10.562-1.178-10.44-1.636-10.297-2.086-10.134-2.53-9.951-2.965-9.749-3.39-9.527-3.804-9.288-4.207-9.03-4.599-8.755-4.977-8.464-5.342-8.156-5.693-7.833-6.029-7.495-6.348-7.144-6.653-6.779-6.939-6.403-7.209-6.014-7.461-5.615-7.694-5.206-7.908-4.789-8.104-4.363-8.279-3.93-8.435-3.492-8.57-3.047-8.685-2.599-8.779-2.148-8.853-1.694-8.906-1.239-8.937-.784-8.947-.329-8.937.125-8.906.575-8.853 1.022-8.78 1.465-8.687 1.902-8.573 2.332-8.44 2.756-8.286 3.172-8.113 3.577-7.921 3.974-7.712 4.359-7.483 4.733-7.237 5.094-6.975 5.443-6.696 5.776-6.401 6.097-6.091 6.4-5.767 6.689-5.428 6.961-5.078 7.214-4.714 7.452-4.34 7.67-3.954 7.869-3.56 8.05-3.155 8.211-2.743 8.352-2.324 8.473-1.899 8.572-1.468 8.652-1.033 8.711-.594 8.749-.154 8.764.29 8.76.732 8.733 1.175 8.686 1.617 8.617 2.056 8.528 2.492 8.418 2.924 8.287 3.351 8.135 3.771 7.963 4.184 7.773 4.591 7.562 4.987 7.332 5.375 7.084 5.752 6.819 6.117 6.534 6.471 6.234 6.811 5.918 7.139 5.585 7.451 5.238 7.748 4.876 8.031 4.5 8.296 4.113 8.544 3.713 8.775 3.301 8.988 2.88 9.183 2.449 9.357 2.009 9.514 1.562 9.649 1.108 9.765.648 9.861.183 9.935-.286 9.989-.758 10.021-1.232 10.033-1.706 10.022-2.182 9.992-2.655 9.938-3.128 9.865-3.597 9.769-4.062 9.653-4.523 9.516-4.978 9.357-5.425 9.179-5.866 8.981-6.298 8.762-6.721 8.524-7.132 8.268-7.533 7.992-7.922 7.698-8.297 7.388-8.659 7.06-9.007 6.716-9.339 6.357-9.656 5.981-9.956 5.592-10.238 5.19-10.502 4.775-10.749 4.347-10.977 3.908-11.184 3.46-11.372 3.001-11.539 2.535-11.686 2.059-11.812 1.579-11.916 1.091-11.998.598-12.059.103-12.097-.396-12.114-.898-12.108-1.4-12.08-1.902-12.029-2.404-11.956-2.903-11.861-3.4-11.745-3.893-11.605-4.381-11.445-4.863-11.263-5.338-11.06-5.807-10.837-6.266-10.592-6.716-10.329-7.156-10.046-7.584-9.743-8.001-9.424-8.405-9.084-8.794-8.73-9.171-8.358-9.53-7.97-9.875-7.568-10.204-7.151-10.514-6.72-10.808-6.278-11.082-5.822-11.338-5.357-11.574-4.88-11.792-4.394-11.987-3.901-12.163-3.4-12.318-2.892-12.45-2.378-12.563-1.862-12.652-1.34-12.72-.816-12.766L1 348.686l.234-12.791.76-12.769L3.28 310.4l1.805-12.661 2.324-12.573 2.837-12.464 3.345-12.333 3.848-12.18 4.342-12.008 4.828-11.813 5.306-11.598 5.773-11.365 6.229-11.11 6.673-10.838 7.106-10.547 7.524-10.237 7.928-9.912 8.317-9.568 8.69-9.209 9.048-8.836 9.388-8.447 9.71-8.045 10.014-7.63 10.299-7.202 10.565-6.763 10.812-6.315 11.037-5.857L182.27 65.5l11.427-4.914 11.589-4.433 11.73-3.945 11.85-3.453 11.948-2.957 12.022-2.457 12.075-1.956 12.106-1.454 12.114-.952 12.101-.45 12.064.05 12.006.545 11.925 1.039 11.824 1.526 11.701 2.008 11.556 2.484 11.391 2.952 11.205 3.41 10.999 3.862 10.775 4.3 10.53 4.73 10.267 5.145 9.987 5.55 9.688 5.94 9.374 6.318 9.043 6.678 8.698 7.024 8.337 7.353 7.962 7.666 7.575 7.962 7.176 8.239 6.765 8.497 6.344 8.738 5.913 8.958 5.473 9.159 5.026 9.339 4.572 9.5 4.112 9.639 3.647 9.758 3.178 9.855 2.706 9.932 2.233 9.986 1.757 10.021 1.283 10.032.808 10.024.337 9.993-.133 9.942-.598 9.87-1.059 9.776-1.514 9.663-1.961 9.529-2.403 9.375-2.834 9.202-3.256 9.01-3.67 8.799-4.07 8.57-4.46 8.323-4.836 8.059-5.2 7.78-5.548 7.484-5.883 7.172-6.201 6.848-6.503 6.508-6.789 6.155-7.056 5.792-7.307 5.416-7.538 5.029-7.751 4.633-7.944 4.229-8.118 3.816-8.271 3.396-8.405 2.969-8.517 2.539-8.609 2.103-8.679 1.664-8.729 1.223-8.758.78-8.765.337-8.751-.106-8.716-.547-8.66-.986-8.582-1.422-8.484-1.853-8.366-2.279-8.227-2.698-8.068-3.112-7.89-3.516-7.692-3.913-7.476-4.299-7.241-4.674-6.988-5.04-6.719-5.391-6.432-5.731-6.13-6.057-5.812-6.369-5.479-6.665-5.132-6.945-4.772-7.21-4.4-7.458-4.016-7.688-3.62-7.9-3.215-8.093-2.801-8.268-2.379-8.424-1.948-8.56-1.512-8.676-1.07-8.771-.623-8.846-.173-8.901.28-8.935.735-8.947 1.19-8.94 1.645-8.909 2.1-8.86 2.551-8.788 2.999-8.696 3.444-8.584 3.884-8.45 4.317-8.297 4.743-8.123 5.162-7.931 5.572-7.718 5.972-7.486 6.361-7.237 6.74-6.969 7.105-6.684 7.458-6.382 7.798-6.064 8.122-5.729 8.431-5.381 8.725-5.017 9.001-4.64 9.261-4.25 9.503-3.847 9.726-3.435 9.93-3.011 10.115-2.577 10.281-2.134 10.425-1.685 10.55-1.227 10.654-.764 10.736-.296 10.796.177 10.836.653 10.854 1.132 10.85 1.61 10.823 2.091 10.775 2.57 10.706 3.048 10.614 3.523 10.5 3.995 10.366 4.461 10.209 4.924 10.032 5.379 9.834 5.827 9.616 6.267 9.377 6.698 9.119 7.119 8.841 7.528 8.546 7.927 8.231 8.313 7.9 8.685 7.551 9.044 7.185 9.386 6.805 9.715 6.41 10.027 6 10.321 5.576 10.599 5.14 10.858 4.693 11.099 4.234 11.32 3.765 11.522 3.287 11.704 2.8 11.865 2.307 12.006 1.807 12.125 1.301 12.223.791 12.299.277 12.354-.24 12.386-.757 12.397-1.275 12.385-1.794 12.352-2.31 12.296-2.825 12.217-3.335 12.118-3.842 11.996-4.343 11.853-4.838 11.689-5.325 11.503-5.804 11.297-6.275 11.07-6.734 10.824-7.184 10.558-7.621 10.273-8.046 9.97-8.457 9.648-8.855 9.31-9.236 8.956-9.603 8.584-9.952 8.197-10.285 7.797-10.601 7.382-10.897 6.954-11.174 6.515-11.433 6.063-11.671 5.602-11.889 5.13-12.087 4.65-12.262 4.162-12.417 3.667-12.549 3.166-12.66 2.661-12.749 2.151-12.815 1.638-12.858 1.123-12.88.607-12.878.091-12.854-.424-12.807-.938-12.738-1.448-12.648-1.955-12.534-2.457-12.399-2.954-12.243-3.443-12.065-3.925-11.867-4.399-11.648-4.863-11.409-5.317-11.152-5.76-10.874-6.19-10.579-6.609-10.266-7.014-9.935-7.404-9.589-7.779-9.227-8.139-8.849-8.482-8.458-8.808-8.053-9.117-7.635-9.407-7.205-9.679-6.765-9.932-6.314-10.165-5.855-10.377-5.387-10.571-4.912-10.742-4.43-10.894-3.944-11.023-3.452-11.131-2.958-11.218-2.46-11.282-1.961-11.326-1.463-11.348-.964-11.347-.466-11.325.027-11.281.52-11.216 1.005-11.129 1.487-11.022 1.962-10.894 2.43-10.745 2.89-10.576 3.34-10.388 3.78-10.18 4.21-9.953 4.628-9.709 5.034-9.446 5.426-9.167 5.805-8.871 6.167-8.559 6.516-8.232 6.848-7.89 7.164-7.536 7.461-7.167 7.741-6.786 8.003-6.396 8.246-5.993 8.469-5.582 8.673-5.161 8.856-4.733 9.019-4.297 9.162-3.857 9.284-3.41 9.383-2.96 9.463-2.507 9.52-2.05 9.556-1.594 9.571-1.137 9.564-.679 9.535-.225 9.486.227 9.416.676 9.324 1.121 9.211 1.559 9.079 1.992 8.926 2.417 8.753 2.834 8.561 3.243 8.351 3.64 8.122 4.029 7.875 4.404 7.611 4.768 7.33 5.118 7.033 5.456 6.721 5.778 6.393 6.085 6.053 6.377 5.699 6.652 5.332 6.909 4.954 7.151 4.565 7.373 4.166 7.576 3.758 7.762 3.342 7.928 2.918 8.074 2.489 8.2 2.053 8.306 1.614 8.391 1.17 8.457.725 8.501.277 8.524-.17 8.527-.618 8.508-1.064 8.469-1.508 8.409-1.949 8.328-2.385 8.228-2.816 8.105-3.242 7.965-3.659 7.803-4.069 7.623-4.471 7.423-4.862 7.205-5.242 6.969-5.613 6.715-5.969 6.444-6.314 6.156-6.644 5.853-6.959 5.534-7.261 5.2-7.545 4.853-7.813 4.493-8.065 4.119-8.298 3.734-8.513 3.339-8.709 2.932-8.886 2.518-9.044 2.094-9.182 1.663-9.299 1.226-9.395.783-9.471.335-9.526-.117-9.559-.571-9.571-1.027-9.562-1.485-9.53-1.941-9.478-2.398-9.405-2.852-9.309-3.303-9.193-3.75-9.055-4.193-8.897-4.63-8.719-5.059-8.519-5.482-8.301-5.896-8.063-6.3-7.805-6.694-7.53-7.077-7.236-7.449-6.925-7.807-6.597-8.151-6.252-8.482-5.893-8.798-5.518-9.098-5.128-9.381-4.726-9.648-4.312-9.896-3.884-10.128-3.446-10.34-2.998-10.533-2.54-10.706-2.075-10.86-1.601-10.993-1.121-11.106-.636-11.197-.146-11.268.349-11.316.845-11.344 1.343-11.349 1.842-11.333 2.341-11.295 2.84-11.236 3.333-11.153 3.827-11.051 4.314-10.926 4.798-10.781 5.274-10.613 5.744-10.426 6.205-10.217 6.658-9.99 7.101-9.741 7.534-9.474 7.954-9.188 8.362-8.883 8.757-8.562 9.138-8.222 9.503-7.867 9.855-7.494 10.188-7.108 10.506-6.707 10.805-6.292 11.087-5.864 11.35-5.424 11.593-4.972 11.816-4.51 12.02-4.04 12.202-3.56 12.364-3.07 12.504-2.576 12.622-2.076 12.719-1.57 12.792-1.06 12.845-.547 12.875-.032 12.881.484 12.865 1 12.827 1.515 12.767 2.029 12.683 2.539 12.578 3.046 12.451 3.548 12.301 4.044 12.13 4.534 11.938 5.016 11.726 5.49 11.491 5.954 11.238 6.408 10.965 6.85 10.673 7.28 10.362 7.7 10.034 8.103 9.687 8.493 9.326 8.868 8.947 9.227 8.553 9.569 8.146 9.895 7.723 10.202 7.29 10.492 6.843 10.762 6.385 11.013 5.918 11.244 5.44 11.456 4.955 11.646 4.462 11.816 3.962 11.964 3.457 12.09 2.946 12.196 2.434 12.279 1.917 12.34 1.4 12.38.881 12.396.363 12.391-.154 12.363-.669 12.315-1.179 12.243-1.686 12.15-2.188 12.036-2.684 11.901-3.171 11.744-3.652 11.567-4.123 11.371-4.584 11.153-5.034 10.917-5.473 10.663-5.9 10.389-6.313 10.099-6.712 9.79-7.096 9.467-7.465 9.127-7.818 8.772-8.153 8.403-8.473 8.02-8.772 7.625-9.054 7.218-9.318 6.799-9.56 6.371-9.784 5.933-9.986 5.487-10.169 5.033-10.33 4.572-10.471 4.107-10.588 3.636-10.686 3.162-10.76 2.684-10.814 2.205-10.846 1.726-10.854 1.246-10.843.767-10.808.29-10.752-.183-10.675-.652-10.577-1.117-10.457-1.576-10.317-2.028-10.156-2.472-9.977-2.908-9.776-3.334-9.558-3.75-9.32-4.155-9.065-4.548-8.792-4.928-8.503-5.295-8.198-5.648-7.876-5.985-7.541-6.307-7.191-6.614-6.828-6.902-6.453-7.175-6.065-7.428-5.669-7.665-5.26-7.881-4.844-8.079-4.42-8.257-3.988-8.416-3.549-8.553-3.106-8.671-2.659-8.768-2.207-8.845-1.754-8.9-1.299-8.934-.844-8.947-.388-8.94.065-8.911.516-8.861.963-8.791 1.407-8.7 1.844-8.59 2.277-8.458 2.7-8.307 3.118-8.137 3.524-7.948 3.922-7.74 4.309-7.514 4.685-7.271 5.047-7.01 5.398-6.733 5.733-6.441 6.055-6.133 6.362-5.81 6.651-5.474 6.926-5.125 7.182-4.762 7.422-4.39 7.642-4.006 7.844-3.612 8.027-3.209 8.191-2.798 8.335-2.38 8.457-1.955 8.561-1.525 8.643-1.09 8.704-.652 8.745-.212 8.764.231 8.761.674 8.738 1.117 8.693 1.559 8.628 1.999 8.541 2.434 8.433 2.868 8.305 3.294 8.157 3.716 7.987 4.131 7.799 4.537 7.591 4.936 7.363 5.324 7.118 5.703 6.854 6.07 6.573 6.425 6.275 6.767 5.96 7.097 5.63 7.41 5.284 7.711 4.925 7.994 4.55 8.262 4.165 8.512 3.766 8.746 3.356 8.961 2.936 9.158 2.507 9.335 2.067 9.494 1.621 9.633 1.168 9.751.709 9.849.244 9.927-.224 9.983-.695 10.018-1.169 10.032-1.644 10.026-2.119 9.996-2.593 9.947-3.066 9.876-3.535 9.783-4.001 9.669-4.463 9.535-4.918 9.379-5.367 9.204-5.809 9.008-6.242 8.792-6.665 8.557-7.078 8.302-7.481 8.029-7.872 7.739-8.248 7.43-8.613 7.104-8.962 6.762-9.296 6.404-9.615 6.032-9.917 5.645-10.202 5.243-10.469 4.83-10.717 4.404-10.948 3.967-11.158 3.519-11.348 3.063-11.519 2.596-11.667 2.123-11.797 1.642-11.903 1.155-11.989.664-12.052.168-12.094-.331-12.113-.831-12.109-1.334-12.085-1.836-12.037-2.338-11.967-2.837-11.875-3.335-11.761-3.828-11.625-4.317-11.468-4.8-11.288-5.276-11.088-5.746-10.867-6.206-10.626-6.657-10.365-7.099-10.084-7.528-9.784-7.947-9.466-8.352-9.13-8.744-8.778-9.122-8.408-9.484-8.022-9.831-7.622-10.161-7.207-10.474-6.778-10.77-6.336-11.047-5.883-11.306-5.418-11.544-4.943-11.764-4.46-11.963-3.966-12.141L11 426.257 8.04 413.822l-2.447-12.549-1.93-12.642-1.408-12.712-.886-12.761-.36-12.787" stroke="#271756" stroke-width="2"/>
</svg>
