<svg width="445" height="635" viewBox="0 0 445 635" fill="none" xmlns="http://www.w3.org/2000/svg">
    <path opacity=".15" d="m1 317.5.238-11.566.713-11.545 1.186-11.506 1.658-11.445 2.126-11.365 2.59-11.265 3.05-11.145 3.504-11.007 3.95-10.849 4.39-10.673 4.82-10.477 5.243-10.265 5.655-10.035 6.056-9.786 6.445-9.523 6.824-9.242 7.188-8.946 7.54-8.636 7.876-8.31 8.199-7.971 8.505-7.62 8.796-7.255 9.07-6.879 9.327-6.492 9.566-6.094 9.788-5.689 9.991-5.273 10.176-4.85 10.341-4.422 10.488-3.985 10.613-3.544 10.721-3.098 10.808-2.65 10.875-2.197 10.921-1.745 10.949-1.29 10.954-.836 10.941-.383 10.907.069 10.853.517 10.78.963 10.687 1.404 10.574 1.839 10.442 2.269 10.292 2.692L357.74 50.5l9.936 3.513 9.731 3.91 9.51 4.297 9.272 4.673 9.016 5.038 8.747 5.39 8.461 5.73 8.161 6.057 7.848 6.368 7.521 6.665 7.182 6.947 6.831 7.213 6.469 7.464 6.098 7.696 5.715 7.912 5.326 8.111 4.928 8.292 4.523 8.453 4.113 8.598 3.695 8.723 3.276 8.829 2.851 8.916 2.424 8.984 1.996 9.033 1.566 9.063 1.137 9.072.708 9.063.281 9.035-.142 8.987-.564 8.921-.979 8.836-1.391 8.732-1.795 8.609-2.194 8.47-2.583 8.313-2.966 8.137-3.337 7.946-3.7 7.738-4.052 7.515-4.391 7.275-4.719 7.021-5.034 6.752-5.335 6.471-5.623 6.176-5.895 5.868-6.152 5.549-6.394 5.219-6.619 4.879-6.827 4.529-7.019 4.171-7.193 3.804-7.348 3.43-7.487 3.051-7.606 2.664-7.707 2.275-7.789 1.88-7.851 1.484-7.896 1.084-7.92.684-7.926.283-7.912-.117-7.88-.516-7.827-.913-7.757-1.307-7.667-1.696-7.559-2.081-7.432-2.461-7.288-2.833-7.125-3.199-6.946-3.557-6.749-3.906-6.536-4.246-6.307-4.574-6.062-4.892-5.803-5.199-5.528-5.493-5.239-5.773-4.938-6.041-4.624-6.294-4.298-6.533-3.96-6.755-3.613-6.962-3.254-7.154-2.888-7.328-2.512-7.485-2.13-7.624-1.741-7.747-1.346-7.85-.946-7.936-.542-8.003-.134-8.051.275-8.081.687-8.091 1.098-8.082 1.51-8.055 1.92-8.009 2.329-7.943 2.734-7.859 3.136-7.756 3.533-7.634 3.924-7.495 4.31-7.337 4.688-7.161 5.058-6.969 5.419-6.758 5.772-6.532 6.112-6.288 6.443-6.03 6.761-5.756 7.067-5.468 7.36-5.164 7.639-4.849 7.904-4.518 8.153-4.178 8.386-3.824 8.605-3.459 8.805-3.086 8.989-2.701 9.156-2.31 9.304-1.908 9.434-1.502 9.545-1.087 9.639-.668 9.711-.245 9.766.183 9.8.614 9.815 1.046 9.811 1.48 9.785 1.914 9.741 2.347 9.677 2.779 9.593 3.209 9.49 3.635 9.366 4.057 9.224 4.475 9.063 4.886 8.882 5.291 8.685 5.688 8.467 6.078 8.233 6.457 7.982 6.828 7.712 7.187 7.428 7.535 7.127 7.872 6.811 8.195 6.48 8.504 6.135 8.801 5.776 9.082 5.405 9.347 5.022 9.597 4.627 9.831 4.221 10.048 3.807 10.247 3.381 10.428 2.949 10.592 2.509 10.737 2.062 10.862 1.609 10.97 1.152 11.057.69 11.126.226 11.173-.241 11.202-.71 11.21-1.179 11.199-1.647 11.167-2.114 11.116-2.579 11.044-3.041 10.952-3.499 10.842-3.951 10.711-4.398 10.561-4.839 10.392-5.272 10.205-5.697 10-6.112 9.775-6.517 9.534-6.913 9.276-7.296 9-7.667 8.709-8.026 8.402-8.37 8.081-8.701 7.744-9.017 7.394-9.316 7.03-9.601 6.655-9.867 6.268-10.118 5.869-10.351 5.461-10.565 5.043-10.761 4.616-10.939 4.181-11.096 3.74-11.236 3.292-11.354 2.839-11.453 2.381-11.532 1.921-11.591 1.456-11.629.991-11.648.524-11.644.057-11.622-.409-11.579-.873-11.515-1.334-11.432-1.792-11.328-2.246-11.205-2.695-11.063-3.137-10.901-3.573-10.721-4-10.522-4.42-10.306-4.83-10.071-5.23-9.819-5.618-9.552-5.997-9.268-6.361-8.968-6.714-8.654-7.052-8.326-7.377-7.983-7.686-7.629-7.981-7.262-8.259-6.883-8.52-6.495-8.765-6.096-8.993-5.688-9.203-5.272-9.394-4.849-9.568-4.418-9.722-3.983-9.857-3.542-9.974-3.098-10.07-2.65-10.148-2.2-10.206-1.75-10.243-1.299-10.262-.847-10.26-.398-10.239.049-10.199.493-10.139.933-10.059 1.368-9.961 1.797-9.845 2.22-9.709 2.635-9.555 3.042-9.384 3.44-9.195 3.827-8.989 4.205-8.767 4.571-8.529 4.926-8.276 5.266-8.007 5.595-7.724 5.909-7.428 6.208-7.118 6.493-6.797 6.761-6.463 7.013-6.118 7.249-5.764 7.468-5.4 7.669-5.027 7.852-4.647 8.017-4.258 8.163-3.866 8.292-3.466 8.4-3.062 8.49-2.654 8.56-2.245 8.611-1.832 8.643-1.419 8.655-1.006 8.647-.592 8.621-.182 8.575.228 8.511.633 8.426 1.034 8.324 1.431 8.202 1.822 8.064 2.207 7.907 2.583 7.732 2.951 7.541 3.312 7.333 3.661 7.109 4 6.869 4.329 6.614 4.646 6.345 4.949 6.062 5.24 5.766 5.518 5.456 5.78 5.136 6.028 4.804 6.26 4.461 6.477 4.109 6.677 3.747 6.862 3.379 7.027 3.001 7.176 2.619 7.308 2.229 7.421 1.836 7.515 1.437 7.593 1.037 7.649.634 7.689.229 7.709-.176 7.71-.58 7.693-.984 7.656-1.385 7.6-1.784 7.527-2.177 7.434-2.568 7.324-2.951 7.195-3.329 7.048-3.7 6.884-4.062 6.702-4.415 6.505-4.759 6.29-5.093 6.059-5.415 5.814-5.725 5.552-6.024 5.278-6.309 4.988-6.579 4.686-6.837 4.372-7.078 4.044-7.304 3.707-7.515 3.358-7.708 2.999-7.884 2.632-8.044 2.256-8.186 1.873-8.309 1.483-8.413 1.088-8.501.686-8.567.281-8.616-.127-8.646-.539-8.655-.951-8.645-1.365-8.617-1.777-8.568-2.191-8.5-2.601-8.413-3.008-8.306-3.413-8.182-3.813-8.037-4.208-7.875-4.595-7.694-4.978-7.495-5.351-7.279-5.717-7.046-6.072-6.795-6.418-6.529-6.753-6.246-7.077-5.949-7.388-5.637-7.686-5.311-7.97-4.971-8.241-4.619-8.497-4.254-8.736-3.877-8.962-3.492-9.169-3.095-9.359-2.689-9.534-2.275-9.69-1.853-9.827-1.425-9.947-.99-10.048-.552-10.129-.107-10.192.339-10.235.788-10.259 1.239-10.262 1.69-10.247 2.141-10.212 2.591-10.157 3.04-10.081 3.483-9.988 3.925-9.874 4.362-9.74 4.792-9.589 5.217-9.419 5.633-9.229 6.043-9.021 6.443-8.796 6.833-8.554 7.212-8.294 7.582-8.018 7.937-7.726 8.281-7.419 8.612-7.096 8.928-6.759 9.229-6.408 9.515-6.045 9.785-5.67 10.039-5.281 10.276-4.883 10.494-4.475 10.696-4.056 10.878-3.63 11.043-3.194 11.188-2.754 11.313-2.305 11.419-1.852 11.506-1.395 11.571-.934 11.617-.47 11.643-.004 11.648.462 11.633.93 11.597 1.395 11.541 1.859 11.465 2.32 11.368 2.78 11.252 3.232 11.116 3.682 10.961 4.123 10.786 4.56 10.592 4.986 10.379 5.407 10.15 5.816 9.902 6.216 9.636 6.604 9.355 6.982 9.057 7.347 8.743 7.699 8.415 8.036 8.072 8.361 7.715 8.67 7.346 8.963 6.964 9.24 6.57 9.501 6.166 9.744 5.752 9.971 5.328 10.179 4.896 10.369 4.457 10.54 4.011 10.692 3.558 10.826 3.102 10.939 2.64 11.033 2.175 11.107 1.709 11.162 1.24 11.195.772 11.21.303 11.204-.164 11.179-.629 11.133-1.092 11.067-1.549 10.982-2.003 10.878-2.45 10.755-2.891 10.612-3.326 10.451-3.75 10.272-4.168 10.074-4.574 9.861-4.97 9.629-5.356 9.381-5.728 9.117-6.088 8.839-6.435 8.544-6.769 8.237-7.086 7.915-7.389 7.58-7.676 7.234-7.947 6.875-8.201 6.507-8.437 6.128-8.657 5.74-8.858 5.344-9.04 4.94-9.204 4.529-9.348 4.112-9.475 3.691-9.58 3.265-9.667 2.836-9.734 2.404-9.781 1.971-9.808 1.537-9.815 1.104-9.804.67-9.771.24-9.72-.188-9.649-.613-9.559-1.033-9.45-1.447-9.322-1.855-9.176-2.257-9.012-2.651-8.831-3.035-8.632-3.411-8.416-3.777-8.185-4.131-7.937-4.475-7.674-4.805-7.398-5.124-7.106-5.428-6.803-5.719-6.485-5.995-6.157-6.255-5.816-6.501-5.467-6.729-5.106-6.942-4.737-7.137-4.36-7.314-3.976-7.475-3.585-7.618-3.188-7.741-2.787-7.846-2.383-7.933-1.974-8.001-1.564-8.05-1.152-8.08-.741-8.091-.329-8.083.08-8.057.489-8.01.892-7.946 1.294-7.862 1.689-7.761 2.079-7.642 2.463-7.504 2.838-7.35 3.207-7.177 3.566-6.989 3.915-6.784 4.254-6.562 4.581-6.326 4.898-6.076 5.201-5.809 5.49-5.531 5.767-5.238 6.029-4.933 6.276-4.617 6.506-4.289 6.723-3.951 6.921-3.604 7.102-3.246 7.268-2.883 7.414-2.51 7.543-2.131 7.654-1.747 7.746-1.359 7.819-.964 7.874-.569 7.908-.17 7.926.231 7.922.631 7.9 1.031 7.858 1.431 7.799 1.829 7.718 2.223 7.621 2.613 7.503 3 7.368 3.381 7.214 3.755 7.043 4.122 6.853 4.483 6.648 4.833 6.424 5.175 6.185 5.506 5.93 5.827 5.659 6.136 5.374 6.433 5.075 6.716 4.761 6.986 4.435 7.243 4.097 7.483 3.747 7.71 3.386 7.92 3.015 8.113 2.634 8.29 2.245 8.45 1.849 8.593 1.444 8.717 1.034 8.823.618 8.91.199 8.98-.226 9.03-.652 9.06-1.08 9.072-1.509 9.065-1.94 9.038-2.367 8.992-2.795 8.926-3.22 8.842-3.641 8.738-4.058 8.615-4.469 8.474-4.875 8.313-5.274 8.136-5.665 7.94-6.047 7.725-6.421 7.495-6.784 7.247-7.137 6.984-7.477 6.703-7.805 6.408-8.121 6.098-8.422 5.774-8.71 5.435-8.982 5.086-9.239 4.721-9.479 4.348-9.703 3.961-9.911 3.566-10.099 3.161-10.271 2.746-10.424 2.325-10.558 1.897-10.673 1.461-10.768 1.021-10.845.577-10.901.128-10.938-.324-10.954-.776-10.95-1.231-10.926-1.684-10.882-2.139-10.818-2.59-10.733-3.039-10.629-3.486-10.506-3.927-10.361-4.363-10.199-4.795-10.016-5.218-9.816-5.634-9.597-6.042-9.359-6.44-9.105-6.829-8.833-7.206-8.544-7.572-8.24-7.926-7.92-8.266-7.584-8.593-7.236-8.907-6.872-9.204-6.497-9.486-6.108-9.753-5.708-10.003-5.297-10.235-4.877-10.451-4.447-10.648-4.009-10.827-3.562-10.987-3.11-11.128-2.651-11.251-2.188-11.353-1.72-11.435-1.248-11.499-.776-11.541-.3-11.564.175-11.567.65-11.55 1.125-11.511 1.596-11.455 2.064-11.376 2.53-11.28 2.99-11.162 3.444-11.026 3.891-10.871 4.332-10.697 4.765-10.504 5.188-10.294 5.6-10.066 6.005-9.82 6.395-9.558 6.774-9.28 7.141-8.987 7.494-8.677 7.833-8.354 8.157-8.017 8.466-7.666 8.759-7.303 9.034-6.93 9.294-6.543 9.536-6.148 9.76-5.742 9.966-5.329 10.152-4.907 10.32-4.477 10.47-4.043 10.598-3.602 10.708-3.157 10.797-2.71 10.868-2.257 10.916-1.804 10.946-1.35 10.955-.896 10.944-.443 10.912.01 10.862.458 10.79.905 10.7 1.346 10.59 1.782 10.461 2.213 10.313 2.636 10.147 3.053 9.962 3.46 9.759 3.858 9.54 4.246 9.304 4.625 9.051 4.99 8.783 5.345 8.499 5.686 8.202 6.014 7.89 6.328 7.565 6.627 7.227 6.911 6.878 7.179 6.517 7.431 6.147 7.667 5.767 7.885 5.377 8.085 4.981 8.269 4.577 8.433 4.167 8.58 3.751 8.707 3.331 8.817 2.907 8.905 2.48 8.977 2.053 9.027 1.622 9.06 1.194 9.072.764 9.066.338 9.039-.088 8.995-.508 8.931-.925 8.848-1.337 8.746-1.742 8.627-2.141 8.489-2.533 8.335-2.916 8.161-3.289 7.972-3.653 7.767-4.005 7.544-4.348 7.308-4.676 7.055-4.994 6.789-5.296 6.508-5.586 6.216-5.86 5.909-6.119 5.592-6.363 5.263-6.59 4.925-6.801 4.575-6.994 4.218-7.171 3.853-7.329 3.48-7.47 3.101-7.591 2.716-7.695 2.326-7.779 1.932-7.844 1.536-7.891 1.137-7.919.737-7.926.336-7.915-.065-7.885-.464-7.835-.86-7.767-1.255-7.68-1.645-7.574-2.031-7.45-2.411-7.308-2.785-7.148-3.152-6.97-3.51-6.776-3.86-6.565-4.201-6.338-4.532-6.096-4.851-5.837-5.159-5.565-5.455-5.278-5.737-4.979-6.007-4.666-6.261-4.341-6.502-4.005-6.727-3.659-6.936-3.302-7.13-2.937-7.305-2.562-7.466-2.181-7.607-1.792-7.731-1.399-7.838-.998-7.926-.596-7.995-.188-8.046.221-8.077.633-8.091 1.044-8.085 1.455-8.06 1.867-8.015 2.275-7.953 2.681-7.871 3.083-7.771 3.481-7.652 3.873-7.514 4.26-7.358 4.638-7.186 5.01-6.995 5.372-6.787 5.726-6.562 6.068-6.322 6.4-6.065 6.72-5.793 7.027-5.506 7.323-5.205 7.603-4.891 7.869-4.562 8.121-4.223 8.357-3.871 8.577-3.509 8.779-3.135 8.966-2.753 9.135-2.361 9.286-1.962 9.418-1.555 9.532-1.143 9.627-.724 9.703-.3 9.76.127 9.796.556 9.815.99 9.812 1.422 9.79 1.857 9.748 2.29 9.686 2.723 9.605 3.152 9.505 3.579 9.383 4.002 9.244 4.42 9.085 4.832 8.908 5.238 8.711 5.637 8.497 6.026 8.265 6.408 8.015 6.78 7.749 7.14 7.467 7.49 7.167 7.828 6.854 8.153 6.524 8.465 6.181 8.763 5.824 9.045 5.455 9.313 5.073 9.566 4.68 9.801 4.275 10.02 3.861 10.221 3.439 10.406 3.006 10.571 2.567 10.719 2.121 10.847 1.67 10.957 1.212 11.047.751 11.117.287 11.169-.18 11.199-.648 11.21-1.117 11.202-1.585 11.172-2.053 11.123-2.518 11.055-2.98 10.966-3.439 10.857-3.892 10.729-4.34 10.582-4.781 10.416-5.215 10.231-5.641 10.027-6.058 9.806-6.465 9.567-6.861 9.31-7.247 9.038-7.619 8.748-7.979 8.444-8.326 8.123-8.658 7.79-8.976 7.44-9.278 7.08-9.564 6.705-9.833 6.319-10.086 5.922-10.321 5.516-10.538 5.098-10.736 4.672-10.917 4.24-11.077 3.798-11.218 3.351-11.339 2.899-11.442 2.442-11.523 1.981-11.584 1.518-11.625 1.052-11.646.585-11.646.119-11.626-.347-11.586-.812-11.525-1.274-11.444-1.732-11.343-2.187-11.222-2.636-11.083-3.079-10.924-3.516-10.745-3.944-10.55-4.365-10.335-4.777-10.102-5.177-9.854-5.569-9.588-5.947-9.306-6.314-9.008-6.668-8.697-7.009-8.369-7.334-8.03-7.647-7.676-7.943-7.311-8.223-6.934-8.487-6.546-8.734-6.149-8.964-5.742-9.176-5.328-9.37-4.904-9.546-4.476-9.702-4.04-9.841-3.6-9.959-3.157-10.059-2.71-10.139-2.26-10.199-1.809-10.239-1.358-10.261-.906-10.262-.457-10.243-.01-10.205.435-10.148.875-10.071 1.311-9.975 1.741-9.861 2.165-9.727 2.58-9.577 2.99-9.407 3.387-9.221 3.777-9.018 4.156-8.797 4.524-8.561 4.879-8.31 5.223-8.043 5.552-7.763 5.868-7.467 6.17-7.16 6.456-6.839 6.726-6.508 6.982-6.164 7.219-5.811 7.44-5.449 7.643-5.076 7.829-4.698 7.996-4.31 8.146-3.917 8.275-3.519 8.387-3.116 8.479-2.708 8.552-2.299 8.606-1.886 8.639-1.474 8.655-1.06 8.649-.647 8.626-.235 8.582.173 8.52.58 8.439.982 8.338 1.38 8.22 1.77 8.083 2.156 7.928 2.534 7.756 2.904 7.567 3.264 7.362 3.616 7.139 3.956 6.901 4.287 6.649 4.604 6.381 4.91 6.1 5.203 5.806 5.482 5.498 5.746 5.178 5.996 4.848 6.231 4.507 6.449 4.156 6.652 3.796 6.838 3.427 7.007 3.052 7.157 2.669 7.292 2.281 7.407 1.888 7.504 1.49 7.583 1.09 7.643.687 7.685.282 7.707-.122 7.711-.528 7.696-.93 7.662-1.333 7.609-1.731 7.538-2.126 7.447-2.517 7.339-2.901 7.213-3.28 7.069-3.651 6.906-4.014 6.727-4.37 6.532-4.714 6.319-5.049 6.091-5.374 5.847-5.685 5.588-5.985 5.314-6.272 5.027-6.545 4.727-6.803 4.414-7.047 4.088-7.276 3.751-7.487 3.405-7.684 3.047-7.862 2.681-8.024 2.306-8.168 1.924-8.294 1.535-8.401 1.139-8.49.74-8.56.334-8.611-.073-8.642-.484-8.655-.897-8.648-1.31-8.621-1.724-8.576-2.136-8.51-2.547-8.425-2.955-8.322-3.36-8.199-3.76-8.058-4.156-7.897-4.545-7.719-4.928-7.522-5.302-7.309-5.669-7.077-6.026-6.829-6.374-6.565-6.709-6.284-7.035-5.989-7.347-5.679-7.648-5.355-7.934-5.016-8.206-4.666-8.464-4.302-8.706-3.929-8.932-3.543-9.143-3.147-9.335-2.743-9.512-2.33-9.67-1.91-9.811-1.48-9.932-1.049-10.035-.61-10.12-.166-10.185.28-10.23.73-10.257 1.179-10.263 1.63-10.25 2.082-10.218 2.533-10.165 2.98-10.092 3.425-10.002 3.868-9.889 4.304-9.76 4.736-9.61 5.161-9.442 5.579-9.255 5.989-9.049 6.391-8.827 6.782-8.587 7.163-8.33 7.533-8.055 7.892-7.765 8.237-7.46 8.568-7.14 8.887-6.803 9.191-6.456 9.478-6.094 9.751-5.719 10.006-5.333 10.245-4.936 10.467-4.53 10.67-4.11 10.856-3.687 11.022-3.253 11.17-2.811 11.297-2.365 11.407-1.913 11.495-1.455 11.564-.995 11.613-.53 11.64-.066 11.649.4 11.636.869 11.602 1.333 11.55 1.799 11.476 2.26 11.382 2.719 11.269 3.173 11.135 3.622 10.982 4.066 10.81 4.502 10.618 4.931 10.409 5.352 10.181 5.763 9.935 6.163 9.673 6.554 9.393 6.933 9.097 7.3 8.785 7.653 8.459 7.993 8.118 8.319 7.763 8.63 7.395 8.925 7.015 9.205 6.623 9.467 6.219 9.714 5.807 9.942 5.385 10.152 4.954 10.345 4.515 10.519 4.069 10.673 3.619 10.809 3.161 10.926 2.701 11.021 2.237 11.099 1.771 11.155 1.302 11.193.833 11.209.365 11.206-.103 11.183-.568 11.14-1.031 11.077-1.489 10.994-1.943 10.893-2.392 10.772-2.834 10.632-3.268 10.473-3.695 10.297-4.113 10.101-4.521 9.89-4.919 9.66-5.306 9.415-5.679 9.153-6.042 8.876-6.391 8.584-6.725 8.278-7.045 7.958-7.35 7.625-7.639 7.28-7.913 6.924-8.168 6.556-8.407 6.178-8.629 5.792-8.832 5.396-9.017 4.993-9.184 4.584-9.331 4.168-9.458 3.746-9.568 3.322-9.657 2.892-9.726 2.462-9.776 2.028-9.805 1.594-9.816 1.16-9.806.728-9.777.296-9.728-.132-9.659-.557-9.572-.978-9.465-1.393-9.34-1.802-9.197-2.204-9.034-2.599-8.856-2.986-8.659-3.362-8.445-3.729-8.216-4.085-7.971-4.43-7.71-4.763-7.435-5.082-7.146-5.389-6.843-5.682-6.528-5.959-6.2-6.222-5.862-6.469-5.513-6.7-5.154-6.915-4.786-7.112-4.411-7.293-4.026-7.454-3.637-7.6-3.241-7.726-2.84-7.833-2.436-7.923-2.028-7.993-1.618-8.045-1.207-8.077-.795-8.091-.383-8.085.026-8.061.435-8.017.84-7.955 1.241-7.875 1.637-7.776 2.028-7.658 2.413-7.524 2.789-7.37 3.159-7.201 3.519-7.015 3.87-6.811 4.21-6.593 4.539-6.358 4.856-6.109 5.162-5.846 5.453-5.568 5.731-5.277 5.996-4.974 6.244-4.659 6.477-4.333 6.695-3.996 6.895-3.65 7.08-3.295 7.247-2.93 7.396-2.56 7.527-2.181 7.64-1.799 7.735-1.409 7.811-1.017 7.867-.621 7.906-.222 7.924.177 7.923.579 7.904.979 7.866 1.378 7.807 1.776 7.73 2.171 7.634 2.563 7.52 2.949 7.387 3.331 7.235 3.706 7.067 4.075 6.879 4.435 6.676 4.788 6.454 5.13 6.218 5.464 5.964 5.785 5.696 6.096 5.412 6.394 5.115 6.68 4.803 6.951 4.479 7.21 4.142 7.453 3.794 7.68 3.434 7.893 3.064 8.089 2.685 8.268 2.297 8.43 1.901 8.575 1.498 8.701 1.088 8.81.674 8.9.254 8.972-.17 9.024-.595 9.058-1.024 9.072-1.453 9.067-1.883 9.042-2.311 8.999-2.739 8.936-3.164 8.854-3.585 8.752-4.003 8.633-4.416 8.493-4.822 8.336-5.222 8.16-5.613 7.967-5.998 7.755-6.372 7.526-6.737 7.281-7.091 7.019-7.433 6.741-7.763 6.447-8.08 6.14-8.383 5.817-8.673 5.481-8.947 5.132-9.206 4.771-9.448 4.397-9.675 4.013-9.884 3.618-10.076 3.215-10.249 2.802-10.405 2.38-10.541 1.954-10.659 1.519-10.757 1.079-10.836.635-10.895.187-10.934-.263-10.953-.717-10.952-1.171-10.93-1.624-10.889-2.079-10.827-2.531-10.746-2.98-10.644-3.427-10.523-3.869-10.381-4.307-10.222-4.738-10.041-5.163-9.843-5.58-9.627-5.988-9.392-6.389-9.139-6.778-8.87-7.157-8.583-7.524-8.28-7.88-7.963-8.222-7.63-8.552-7.282-8.865-6.921-9.166-6.547-9.45-6.16-9.719-5.761-9.971-5.352-10.206-4.933-10.423-4.504-10.623-4.067-10.804-3.622-10.967-3.17-11.111-2.711-11.236-2.25-11.34-1.78-11.426-1.312-11.492-.838-11.537-.363-11.562.113-11.568.588-11.552 1.062-11.518 1.534-11.463 2.003-11.388 2.468-11.293 2.93-11.179 3.384-11.046 3.833-10.892 4.275-10.721 4.708-10.531 5.133-10.322 5.547-10.097 5.951-9.853 6.344-9.594 6.726-9.318 7.093-9.025 7.449-8.719 7.789-8.398 8.115-8.061 8.426-7.714 8.721-7.352 8.999-6.979 9.261-6.595 9.505-6.2 9.732-5.796 9.939-5.384 10.129-4.963 10.299-4.534 10.451-4.1 10.583-3.661 10.694-3.216 10.787-2.768 10.859-2.317 10.911-1.864 10.943-1.41 10.955-.956 10.947-.502 10.918-.05 10.869.4 10.801.845 10.713 1.288 10.606 1.726 10.479 2.156 10.333 2.581 10.17 2.998 9.987 3.407 9.787 3.806 9.57 4.196 9.336 4.575 9.085 4.944 8.819 5.298 8.538 5.642 8.241 5.972 7.932 6.287 7.608 6.588 7.273 6.875 6.924 7.145 6.566 7.399 6.196 7.636 5.817 7.857 5.43 8.061 5.033 8.245 4.631 8.413 4.221 8.561 3.806 8.692 3.386 8.803 2.963 8.895 2.537 8.968 2.109 9.022 1.679 9.057 1.25 9.071.821 9.068.394 9.044-.032 9.002-.453 8.94-.87 8.86-1.283 8.761-1.69 8.643-2.089 8.509-2.481 8.355-2.866 8.186-3.241 7.998-3.605 7.794-3.96 7.575-4.303 7.339-4.634 7.09-4.952 6.824-5.258 6.547-5.548 6.254-5.825 5.951-6.086 5.634-6.331 5.307-6.562 4.97-6.774 4.622-6.97 4.266-7.148 3.901-7.31 3.529-7.452 3.151-7.576 2.767-7.682 2.378-7.769 1.984-7.837 1.589-7.886 1.189-7.916.79-7.926.388-7.918-.012-7.89-.411-7.843-.808-7.777-1.204-7.692-1.594-7.589-1.98-7.467-2.361-7.328-2.736-7.17-3.104-6.995-3.463-6.802-3.815-6.594-4.157-6.369-4.489-6.128-4.809-5.872-5.119-5.602-5.417-5.317-5.701-5.019-5.972-4.707-6.229-4.385-6.471-4.05-6.698-3.705-6.909-3.35-7.105-2.985-7.284-2.612-7.445-2.232-7.589-1.844-7.717-1.45-7.824-1.052-7.915-.648-7.987-.242-8.041.167-8.074.578-8.09.99-8.087 1.401-8.064 1.812-8.023 2.222-7.962 2.628-7.883 3.03-7.785 3.429-7.668 3.822-7.534 4.209-7.38 4.589-7.209 4.961-7.021 5.325-6.815 5.68-6.593 6.023-6.354 6.357-6.1 6.679-5.83 6.988-5.544 7.284-5.246 7.567-4.933 7.835-4.607 8.089-4.268 8.326-3.918 8.549-3.557 8.754-3.185 8.942-2.804 9.114-2.413 9.267-2.015 9.401-1.609 9.518-1.197 9.616-.78 9.694-.356 9.754.07 9.793.5 9.813.933 9.813 1.365 9.794 1.8 9.755 2.233 9.696 2.666 9.617 3.095 9.518 3.523 9.401 3.947 9.263 4.365 9.107 4.778 8.932 5.185 8.738 5.585 8.527 5.976 8.296 6.358 8.05 6.731 7.785 7.094 7.504 7.444 7.208 7.785 6.895 8.111 6.569 8.424 6.227 8.724 5.872 9.009 5.504 9.279 5.124 9.533 4.732 9.771 4.329 9.992 3.917 10.196 3.494 10.383 3.064 10.55 2.625 10.701 2.181 10.831 1.729 10.943 1.272 11.037.813 11.109.348 11.163-.118 11.196-.587 11.21-1.055 11.204-1.524 11.177-1.991 11.131-2.457 11.065-2.92 10.978-3.378 10.873-3.832 10.747-4.282 10.603-4.723 10.438-5.159 10.257-5.585 10.055-6.004 9.836-6.412 9.599-6.809 9.346-7.197 9.074-7.57 8.787-7.933 8.485-8.281 8.166-8.615 7.834-8.935 7.488-9.239 7.127-9.527 6.755-9.799 6.371L490 595.959l-10.291 5.569-10.51 5.154-10.712 4.729-10.893 4.296-11.057 3.857-11.201 3.411-11.325 2.958-11.429 2.503-11.513 2.042-11.578 1.578-11.621 1.114-11.644.647-11.647.18-11.63-.286-11.592-.751-11.534-1.213-11.456-1.672-11.357-2.127-11.24-2.577-11.102-3.021-10.946-3.459-10.77-3.888-10.576-4.311-10.364-4.723-10.135-5.125-9.887-5.517-9.624-5.898-9.344-6.267-9.049-6.622-8.738-6.964-8.413-7.293-8.075-7.607-7.724-7.904-7.359-8.187-6.985-8.453-6.598-8.703-6.201-8.935-5.797-9.149-5.382-9.345-4.96-9.524-4.533-9.683-4.098-9.824-3.659-9.945-3.215-10.046-2.769-10.13-2.319-10.192-1.868-10.235-1.418-10.259-.966-10.263-.516-10.246-.068-10.212.376-10.156.818-10.082 1.254-9.989 1.684-9.877 2.11-9.746 2.526-9.598 2.936-9.43 3.335-9.247 3.727-9.045 4.106-8.828 4.477-8.593 4.833-8.344 5.178-8.079 5.509-7.8 5.828-7.507 6.131-7.201 6.419-6.882 6.692-6.552 6.948-6.21 7.189-5.859 7.412-5.496 7.617-5.126 7.806-4.748 7.975-4.362 8.127-3.969 8.26-3.572 8.373-3.169 8.468-2.762 8.543-2.353 8.6-1.941 8.636-1.528 8.654-1.114 8.651-.701 8.63-.29 8.589.12 8.529.527 8.451.929 8.352 1.327 8.237 1.72 8.102 2.106 7.949 2.484 7.78 2.856 7.593 3.217 7.389 3.57 7.17 3.912 6.933 4.244 6.683 4.563 6.418 4.871 6.138 5.165 5.844 5.445 5.54 5.712 5.221 5.965 4.892 6.2 4.553 6.422 4.202 6.626 3.844 6.814 3.476 6.986 3.102 7.139 2.72 7.275 2.332 7.392 1.94 7.493 1.543 7.573 1.142 7.637.74 7.68.336 7.706-.069 7.711-.474 7.699-.878 7.668-1.28 7.617-1.678 7.548-2.075 7.46-2.465 7.355-2.851 7.23-3.23 7.089-3.603 6.928-3.967 6.752-4.323 6.559-4.67 6.348-5.006 6.121-5.331 5.88-5.645 5.623-5.946 5.351-6.235 5.066-6.51 4.767-6.77 4.456-7.016 4.131-7.246 3.797-7.461 3.451-7.658 3.094-7.84 2.73-8.004 2.356-8.15 1.975-8.278 1.586-8.388 1.192-8.479.792-8.552.388-8.605-.019-8.64-.43-8.654-.842-8.65-1.256-8.626-1.669-8.583-2.082-8.519-2.493-8.438-2.901-8.337-3.307-8.216-3.708-8.077-4.104-7.92-4.495-7.743-4.877-7.549-5.254-7.338-5.621-7.109-5.98-6.862-6.328-6.601-6.666-6.322-6.992-6.029-7.307-5.721-7.609-5.397-7.897-5.062-8.171-4.713-8.431-4.351-8.675-3.978-8.903-3.594-9.116-3.2-9.311-2.797-9.49-2.385-9.65-1.965-9.793-1.538-9.918-1.106-10.023-.667-10.109-.225-10.177.22-10.226.67-10.254 1.12-10.264 1.572-10.253 2.022-10.223 2.473-10.173 2.922-10.103 3.367-10.014 3.81-9.906 4.246-9.778 4.68-9.63 5.105-9.465 5.524-9.281 5.936-9.078 6.338-8.857 6.732-8.62 7.113-8.364 7.486-8.092 7.845-7.805 8.192-7.5 8.525-7.183 8.846-6.849 9.151-6.502 9.442-6.142 9.715-5.77 9.974-5.384 10.215-4.99 10.439-4.582 10.644-4.168 10.832-3.742 11.002-3.31 11.151-2.87 11.282-2.425 11.393-1.972 11.485-1.516 11.556-1.055 11.607-.592 11.638-.127 11.649.34 11.639.806 11.608 1.272 11.558 1.737 11.487 2.2 11.395 2.659 11.285 3.113 11.154 3.564 11.003 4.008 10.834 4.445 10.644 4.875 10.438 5.296 10.212 5.71 9.969 6.111 9.708 6.503 9.43 6.884 9.137 7.252 8.827 7.607 8.503 7.95 8.164 8.276 7.81 8.59 7.445 8.887 7.065 9.169 6.675 9.434 6.274 9.682 5.862 9.913 5.44 10.126 5.011 10.32 4.573 10.497 4.129 10.654 3.678 10.793 3.222 10.911 2.762 11.01 2.298 11.09 1.832 11.149 1.364 11.188.895 11.208.427 11.208-.042 11.187-.507 11.147-.97 11.086-1.429 11.007-1.883 10.907-2.333 10.789-2.776 10.651-3.212 10.495-3.64 10.321-4.058 10.129-4.468 9.918-4.867 9.692-5.255 9.448-5.631 9.188-5.995 8.914-6.346 8.623-6.681 8.319-7.004 8.001-7.311 7.669-7.602 7.327-7.877 6.971-8.136 6.605-8.377 6.228-8.601 5.843-8.806 5.449-8.994 5.047-9.162 4.638-9.313 4.223-9.443 3.802-9.554 3.378-9.646 2.949-9.718 2.518-9.771 2.085-9.803 1.652-9.815 1.217-9.809.784-9.782.353-9.735-.075-9.67-.502-9.584-.922-9.48-1.339-9.358-1.748-9.216-2.152-9.057-2.548-8.881-2.935-8.685-3.313-8.475-3.681-8.247-4.039-8.004-4.385-7.745-4.72-7.472-5.041-7.185-5.349-6.883-5.644-6.57-5.924-6.245-6.188-5.907-6.438-5.559-6.67-5.202-6.888-4.835-7.087-4.461-7.269-4.077-7.435-3.689-7.581-3.293-7.711-2.893-7.82-2.49-7.912-2.081-7.985-1.673-8.039-1.261-8.074-.849-8.09-.437-8.087-.028-8.065.382-8.024.786-7.965 1.189-7.886 1.585-7.79 1.977-7.675 2.362-7.542 2.741-7.392 3.11-7.224 3.472-7.04 3.824-6.839 4.166-6.623 4.497-6.39 4.815-6.143 5.122-5.88 5.416-5.606 5.695-5.316 5.961-5.015 6.213-4.701 6.447-4.377 6.667-4.041 6.87-3.696 7.057-3.341 7.226-2.979 7.377-2.609 7.511-2.232 7.626-1.849 7.724-1.461 7.801-1.069 7.861-.673 7.902-.275 7.923.125 7.924.526 7.908.926 7.872 1.326 7.816 1.724 7.741 2.119 7.648 2.511 7.536 2.899 7.405 3.28 7.257 3.658 7.089 4.026 6.906 4.389 6.703 4.741 6.485 5.086 6.249 5.42 5.999 5.744 5.732 6.056 5.45 6.355 5.155 6.643 4.845 6.917 4.522 7.176 4.187 7.422 3.841 7.651 3.482 7.866 3.113 8.064 2.736 8.245 2.348 8.41 1.954 8.557 1.551 8.686 1.143 8.796.728 8.89.309 8.963-.113 9.018-.539 9.055-.968 9.071-1.396 9.068-1.826 9.047-2.255 9.006-2.683 8.945-3.108 8.866-3.53 8.767-3.948 8.65-4.362 8.512-4.769 8.358-5.169 8.184-5.563 7.993-5.948 7.784-6.323 7.557-6.69 7.314-7.044 7.055-7.389 6.778-7.72 6.487-8.039 6.181-8.344 5.861-8.636 5.526-8.911 5.179-9.173 4.819-9.418 4.447-9.646 4.064-9.857 3.671-10.052 3.268-10.227 2.856-10.385 2.437-10.525 2.01-10.644 1.577-10.746 1.137-10.826.694-10.888.246-10.93-.204-10.952-.657-10.953-1.11-10.934-1.565-10.896-2.019-10.837-2.472-10.757-2.921-10.659-3.368-10.54-3.812-10.401-4.249-10.243-4.682-10.067-5.107-9.87-5.525-9.656-5.936-9.424-6.336-9.173-6.727-8.906-7.108-8.622-7.477-8.322-7.833-8.005-8.178-7.675-8.509-7.329-8.825-6.969-9.127-6.597-9.414-6.211-9.685-5.815-9.938-5.406-10.176-4.989-10.395-4.56-10.598-4.126-10.782-3.68-10.946-3.23-11.094-2.773-11.22-2.31-11.327-1.843-11.416-1.373-11.484-.9-11.532-.426-11.56.05-11.569.525-11.555 1-11.524 1.472-11.471 1.941-11.399 2.408-11.307 2.869-11.195 3.325-11.064 3.774-10.914 4.217-10.744 4.652-10.557 5.077-10.351 5.493-10.128 5.899-9.886 6.293-9.629 6.676-9.355 7.046-9.065 7.402-8.76 7.745-8.441 8.073-8.106 8.386-7.76 8.683-7.4 8.964-7.03 9.227-6.646 9.474-6.252 9.703-5.85 9.913-5.439 10.105-5.018 10.278-4.592 10.432-4.158 10.566-3.718 10.681-3.275 10.776-2.827 10.851-2.377 10.905-1.924 10.94-1.47 10.954-1.015 10.949-.562 10.923-.11 10.877.341 10.811.788 10.726 1.23 10.621 1.667 10.497 2.1 10.353 2.526 10.192 2.944 10.012 3.353 9.815 3.754 9.6 4.146 9.367 4.526 9.119 4.895 8.855 5.253 8.576 5.597 8.281 5.929 7.974 6.246 7.651 6.55 7.318 6.838 6.971 7.11 6.613 7.366 6.246 7.606 5.867 7.83 5.481 8.034 5.086 8.222 4.684 8.392 4.275 8.543 3.861 8.676 3.442 8.789 3.019 8.884 2.593 8.96 2.166 9.016 1.736 9.053 1.306 9.071.877 9.069.45 9.048.024 9.008-.397 8.95-.816 8.871-1.229 8.775-1.636 8.66-2.037 8.528-2.431 8.376-2.815 8.209-3.192 8.024-3.558 7.822-3.914 7.605-4.258 7.371-4.591 7.123-4.911 6.86-5.218 6.584-5.511 6.294-5.789 5.991-6.053 5.677-6.3 5.35-6.532 5.015-6.747 4.668-6.945 4.314-7.126 3.949-7.289 3.579-7.435 3.201-7.561 2.818-7.669 2.429-7.759 2.037-7.829 1.64-7.88 1.242-7.913.843-7.926.441-7.92.041-7.895-.359-7.85-.756-7.787-1.152-7.704-1.542-7.604-1.93-7.485-2.312-7.347-2.687-7.191-3.055-7.019-3.417-6.829-3.769-6.622-4.112-6.4-4.446-6.16-4.768-5.907-5.079-5.638-5.378-5.355-5.664-5.059-5.937-4.75-6.196-4.428-6.44-4.095-6.669-3.751-6.883-3.397-7.08-3.033-7.261-2.662-7.425-2.282-7.571-1.895-7.701-1.503-7.811-1.104-7.904-.702-7.979-.296-8.034.113-8.072.524-8.089.936-8.088 1.347-8.068 1.758-8.029 2.168-7.972 2.574-7.894 2.978-7.799 3.377-7.685 3.77-7.552 4.159-7.401 4.539-7.233 4.913-7.047 5.278-6.843 5.633-6.623 5.979-6.387 6.313-6.134 6.637-5.866 6.948-5.583 7.246-5.286 7.531-4.975 7.8-4.65 8.057-4.314 8.296-3.965 8.52-3.605 8.728-3.234 8.919-2.854 9.092-2.466 9.247-2.068 9.385-1.663 9.504-1.251 9.604-.835 9.685-.412 9.746.014 9.789.443 9.812.875 9.815 1.308 9.797 1.743 9.761 2.176 9.705 2.609 9.628 3.039 9.533 3.467 9.417 3.891 9.283 4.31 9.129 4.725 8.956 5.132 8.764 5.532 8.556 5.925 8.327 6.308 8.083 6.683 7.821 7.046 7.542 7.399 7.248 7.74 6.938 8.069 6.612 8.384 6.273 8.685 5.92 8.973 5.553 9.244 5.174 9.501 4.785 9.74 4.383 9.964 3.971 10.17 3.551 10.359 3.12 10.53 2.684 10.681 2.239 10.816 1.789 10.929 1.333 11.025.873 11.101.41 11.157-.057 11.193-.525 11.209-.993 11.206-1.462 11.182-1.93 11.138-2.396 11.075-2.859 10.991-3.318 10.888-3.773 10.765-4.222 10.622-4.666 10.462-5.102 10.281-5.53 10.083-5.949 9.866-6.358 9.631-6.758 9.38-7.146 9.111-7.522 8.826-7.886 8.525-8.236 8.21-8.572 7.878-8.894 7.534-9.199 7.176-9.491 6.805-9.764 6.422-10.021 6.028-10.261 5.623-10.482 5.209-10.686 4.785-10.871 4.354-11.036 3.916-11.183 3.469-11.31 3.019-11.416 2.562-11.504 2.103-11.57 1.64-11.616 1.175-11.643.708-11.648.242-11.633-.225-11.598-.689-11.543-1.153-11.467-1.612-11.372-2.067-11.256-2.518-11.122-2.963-10.967-3.402-10.794-3.832-10.603-4.255-10.393-4.669-10.166-5.073-9.921-5.467-9.659-5.848-9.382-6.219-9.088-6.576-8.78-6.92-8.457-7.251-8.121-7.565-7.77-7.867-7.408-8.15-7.035-8.419-6.649-8.671-6.255-8.905-5.85-9.122-5.437-9.321-5.017-9.501-4.589-9.663-4.156-9.807-3.716-9.93-3.274-10.034-2.828-10.12-2.378-10.185L75.5 415.77l-1.477-10.256-1.025-10.264-.576-10.25-.127-10.217.318-10.164.76-10.093 1.197-10.003 1.628-9.892 2.054-9.765 2.472-9.618 2.882-9.454 3.283-9.271 3.676-9.073 4.057-8.857 4.428-8.625 4.787-8.378 5.134-8.114 5.466-7.838 5.787-7.546 6.091-7.243 6.382-6.925 6.657-6.596 6.916-6.255 7.158-5.906 7.384-5.544 7.591-5.176 7.782-4.798 7.954-4.412 8.108-4.022 8.243-3.624 8.359-3.222 8.457-2.816 8.534-2.407 8.594-1.996 8.632-1.582 8.653-1.169 8.653-.756 8.633-.343 8.596.066 8.538.473 8.462.877 8.366 1.275 8.253 1.668 8.121 2.056 7.971 2.435 7.803 2.807 7.618 3.17 7.417 3.524 7.2 3.868 6.965 4.2 6.717 4.522 6.453 4.831 6.176 5.127 5.884 5.409 5.58 5.678 5.264 5.932 4.936 6.171 4.598 6.393 4.249 6.6 3.891 6.791 3.526 6.964 3.151 7.119 2.77 7.258 2.384 7.378 1.992 7.481 1.595 7.564 1.196 7.629.793 7.676.389 7.703-.016 7.712-.42 7.702-.825 7.672-1.227 7.625-1.627 7.558-2.022 7.473-2.414 7.37-2.801 7.248-3.18 7.108-3.554 6.951-3.92 6.776-4.277 6.585-4.624 6.376-4.962 6.153-5.289 5.912-5.605 5.658-5.907 5.388-6.198 5.104-6.474 4.807-6.737 4.497-6.984 4.175-7.217 3.841-7.433 3.497-7.634 3.142-7.817 2.779-7.983 2.405-8.132 2.026-8.262 1.638-8.375 1.244-8.468.845-8.543.442-8.6.034-8.636-.376-8.653-.788-8.652-1.201-8.63-1.615-8.589-2.027-8.53-2.439-8.449-2.848-8.351-3.254-8.234-3.655-8.096-4.052-7.941-4.444-7.768-4.827-7.576-5.205-7.366-5.573-7.14-5.933-6.896-6.283-6.636-6.622-6.36-6.95-6.068-7.266-5.762-7.57-5.442-7.86-5.106-8.136-4.76-8.397-4.4-8.644-4.027-8.874-3.645-9.089-3.253-9.287-2.85-9.467-2.44-9.63-2.02-9.775-1.595-9.902-1.163-10.01-.725-10.099-.284-10.17.162-10.22.61-10.252 1.061-10.263 1.512-10.256 1.963-10.228 2.414-10.18 2.862-10.114 3.309-10.027 3.751-9.921 4.19-9.796 4.623-9.651 5.049-9.488 5.47-9.306 5.882-9.106 6.286-8.887 6.68-8.652 7.064-8.398 7.437-8.13 7.798-7.843 8.147-7.541 8.483-7.226 8.805-6.893 9.111-6.55 9.404-6.19 9.681-5.819 9.94-5.435 10.184-5.042 10.411-4.637 10.618-4.223 10.809-3.799 10.98-3.367 11.132-2.929 11.266-2.483 11.38-2.032 11.474-1.576 11.548-1.116 11.601-.654 11.635-.188 11.649.278 11.641.745 11.614 1.211 11.565 1.676 11.498 2.139 11.408 2.598 11.301 3.054 11.172 3.505 11.024 3.95 10.857 4.387 10.671 4.82 10.466 5.241 10.243 5.655 10.001 6.06 9.744 6.452 9.468 6.834 9.176 7.204 8.869 7.562 8.546 7.904 8.21 8.235 7.857 8.55 7.493 8.848 7.117 9.133 6.727 9.4 6.327 9.65 5.916 9.884 5.497 10.099 5.068 10.296 4.631 10.474 4.188 10.635 3.738 10.775 3.282 10.897 2.823 10.998 2.359 11.08 1.894 11.143 1.425 11.184.957 11.207.488 11.209.02 11.191-.445 11.153-.909 11.095-1.369 11.019-1.825 10.921-2.274 10.806-2.718 10.67-3.154 10.517-3.584 10.345-4.004 10.154-4.415 9.948-4.815 9.722-5.204 9.481-5.583 9.224-5.947 8.95-6.3 8.662-6.639 8.36-6.962 8.044-7.271 7.714-7.565 7.372-7.842 7.018-8.102 6.654-8.347 6.279-8.572 5.894-8.78 5.501-8.97 5.101-9.142 4.692-9.294 4.278-9.426 3.858-9.541 3.433-9.635 3.006-9.71 2.575-9.765 2.142-9.8 1.709-9.815 1.275-9.81.841-9.787.41-9.742-.02-9.679-.446-9.597-.867-9.495-1.284-9.375-1.695-9.236-2.099-9.079-2.496-8.905-2.884-8.712-3.264-8.503-3.634-8.278-3.992-8.037-4.34-7.78-4.677-7.509-4.999-7.223-5.31-6.924-5.606-6.612-5.887-6.288-6.154-5.952-6.406-5.606-6.641-5.25-6.86-4.884-7.062-4.51-7.246-4.128-7.414-3.74-7.563-3.346-7.695-2.946-7.806-2.543-7.902-2.136-7.976-1.726-8.033-1.315-8.071-.904-8.089-.491-8.088-.081-8.069.327-8.031.734-7.973 1.135-7.898 1.534-7.803 1.925-7.691 2.312-7.561 2.691-7.413 3.063-7.247 3.425-7.065 3.778-6.867 4.121-6.652 4.454-6.421 4.774-6.176 5.082-5.916 5.378-5.643 5.66-5.355 5.927-5.055 6.18-4.743 6.417-4.42 6.639-4.086 6.844-3.742 7.033-3.389 7.205-3.027 7.358-2.658 7.495-2.282 7.612-1.899 7.712-1.513 7.792-1.12 7.854-.726 7.898-.327 7.921.072 7.925.472 7.911.874 7.878 1.273 7.824 1.672 7.752 2.067 7.662 2.46 7.552 2.848 7.423 3.231 7.277 3.608 7.113 3.978 6.93 4.341 6.731 4.696 6.515 5.041 6.281 5.377 6.033 5.702 5.767 6.015 5.489 6.317 5.194 6.605 4.887 6.882 4.566 7.143 4.232 7.39 3.886 7.622 3.53 7.838 3.162 8.039 2.786 8.223 2.4 8.389 2.006 8.538 1.605 8.67 1.197 8.783.783 8.878.365 8.955-.058 9.012-.483 9.051-.911 9.07-1.34 9.07-1.769 9.051-2.199 9.012-2.626 8.954-3.052 8.878-3.475 8.781-3.894 8.666-4.307 8.532-4.716 8.379-5.117 8.208-5.511 8.019-5.898 7.813-6.274 7.588-6.642 7.347-6.999 7.089-7.343 6.816-7.678 6.526-7.997 6.222-8.305 5.904-8.598 5.571-8.877 5.225-9.139 4.867-9.386 4.497-9.617 4.115-9.83 3.723-10.027 3.322-10.206 2.911-10.365 2.493-10.507 2.066-10.63 1.634-10.733 1.196-10.817.752-10.882.306-10.925-.145-10.95-.597-10.954-1.051-10.938-1.505-10.902-1.96-10.846-2.411-10.769-2.863-10.673-3.309-10.556-3.754-10.421-4.192-10.265-4.625-10.091-5.051-9.897-5.471-9.685-5.882-9.456-6.284-9.207-6.676-8.942-7.058-8.66-7.429-8.363-7.788-8.048-8.133-7.719-8.466-7.375-8.784-7.017-9.089-6.647-9.377-6.262-9.649-5.868-9.906-5.46-10.146-5.045-10.367-4.618-10.573-4.183-10.758-3.74-10.926-3.289-11.075-2.833-11.204-2.371-11.315-1.905-11.405-1.435-11.477-.963-11.526-.488-11.558-.013-11.568.463-11.559.937-11.529 1.41-11.479 1.88-11.41 2.346-11.32 2.809-11.211 3.265-11.082 3.716-10.935 4.159-10.768 4.594-10.582 5.022-10.379 5.439-10.158 5.846-9.919 6.242-9.664 6.626-9.392 6.998-9.104 7.356-8.801 7.7-8.484 8.032-8.151 8.345-7.807 8.645-7.448 8.928-7.078 9.193-6.698 9.443-6.305 9.673-5.904 9.887-5.492 10.081-5.075 10.256-4.648 10.413-4.215 10.549-3.777 10.667-3.333 10.765-2.887 10.842-2.436 10.899-1.983 10.937-1.53 10.954-1.075 10.95-.622 10.928-.169 10.884.282 10.821.728 10.738 1.172 10.636 1.611 10.514 2.044 10.373 2.47 10.215 2.888 10.037 3.3 9.841 3.702 9.629 4.095 9.399 4.476 9.153 4.847 8.891 5.207 8.613 5.553 8.321 5.886 8.015 6.205 7.694 6.51 7.362 6.801 7.018 7.075 6.661 7.334 6.294 7.576 5.918 7.8 5.533 8.009 5.138 8.198 4.737 8.371 4.33 8.524 3.916 8.659 3.497 8.776 3.075 8.872 2.649 8.951 2.222 9.01 1.793 9.049 1.362 9.07.934 9.07.506 9.052.08 9.015-.342 8.958-.761 8.883-1.174 8.789-1.583 8.676-1.985 8.546-2.379 8.397-2.766 8.232-3.142 8.049-3.511 7.85-3.867 7.634-4.214 7.403-4.548 7.157-4.87 6.895-5.178 6.621-5.473 6.333-5.753 6.032-6.019 5.718-6.269 5.395-6.502 5.059-6.72 4.715-6.92 4.36-7.103 3.998-7.269 3.628-7.416 3.251-7.545 2.869-7.656 2.48-7.748 2.089-7.821 1.693-7.875 1.295-7.91.895-7.925.494-7.922.093-7.899-.306-7.857-.704-7.797-1.1-7.716-1.491-7.618-1.879-7.501-2.262-7.366-2.637-7.214-3.008-7.042-3.37-6.855-3.723-6.651-4.068-6.429-4.402-6.193-4.726-5.941-5.039-5.675-5.339-5.393-5.627-5.098-5.902-4.791-6.163-4.471-6.408-4.14-6.64-3.797-6.856-3.444-7.055-3.082-7.238-2.711-7.404-2.332-7.553-1.947-7.685-1.555-7.798-1.157-7.893-.755-7.97-.349-8.028.059-8.067.47-8.088.881-8.089 1.293-8.072 1.704-8.036 2.114-7.98 2.521-7.905 2.925-7.813 3.324-7.701 3.719-7.57 4.108-7.423 4.49-7.256 4.864-7.072 5.23-6.871 5.587-6.653 5.934-6.419 6.27-6.168 6.595-5.902 6.908-5.621 7.207-5.326 7.494-5.017 7.766-4.694 8.023-4.358 8.266-4.012 8.492-3.653 8.701-3.284 8.895-2.905 9.07-2.517 9.228-2.12 9.368-1.717 9.489-1.306 9.592-.89 9.675-.468 9.74-.043 9.784.387 9.81.818 9.815 1.251 9.802 1.686 9.767 2.119 9.713 2.552 9.639 2.982 9.547 3.411 9.433 3.836 9.302 4.255 9.15 4.67 8.98 5.079 8.791 5.48 8.583 5.873 8.359 6.259 8.116 6.633 7.857 7 7.58 7.353 7.287 7.696 6.979 8.026 6.656 8.343 6.319 8.647 5.967 8.935 5.602 9.21 5.225 9.467 4.836 9.71 4.437 9.936 4.026 10.144 3.606 10.335 3.178 10.508 2.742 10.663 2.298 10.798 1.848 10.916 1.394 11.014.934 11.092.47 11.15.005 11.19-.463 11.208-.932 11.207-1.4 11.186-1.868 11.146-2.335 11.084-2.798 11.003-3.258 10.902-3.713 10.783-4.164 10.642-4.608 10.484-5.044 10.306-5.474 10.11-5.895 9.895-6.305 9.664-6.706 9.414-7.095 9.147-7.474 8.864-7.838 8.566-8.191 8.252-8.528 7.923-8.852 7.58-9.161 7.224-9.453 6.854-9.729 6.473-9.988 6.081-10.23 5.677-10.455 5.264-10.66 4.842-10.847 4.411-11.016 3.973-11.165 3.529-11.294 3.078-11.403 2.623-11.494 2.164-11.562 1.701-11.612 1.236-11.64.77-11.648.303-11.637-.164-11.604-.628-11.551-1.092-11.478-1.551-11.385-2.008-11.273-2.459-11.14-2.905-10.989-3.344-10.818-3.776-10.629-4.2-10.422-4.615-10.197-5.02-9.954-5.416-9.695-5.799-9.419-6.17-9.128-6.53-8.821-6.876-8.5-7.207-8.166-7.525-7.817-7.828-7.457-8.114-7.084-8.385-6.701-8.638-6.307-8.876-5.904-9.094-5.492-9.296-5.072-9.478-4.646-9.643-4.213-9.789-3.775-9.914-3.332-10.022-2.887-10.11-2.438-10.177-1.987-10.226-1.536-10.255-1.085-10.263-.634-10.253-.187-10.223.26-10.172.702-10.104 1.14-10.015 1.571-9.908 1.998-9.783 2.418-9.638 2.828-9.477 3.231-9.296 3.625-9.1 4.008-8.886 4.38-8.657 4.74-8.411 5.088-8.15 5.424-7.875 5.745-7.586 6.052-7.283 6.345-6.967 6.621-6.64 6.883-6.301 7.127-5.952 7.355-5.593 7.565-5.225 7.758-4.848 7.932-4.464 8.089-4.073 8.226-3.677 8.345-3.275 8.445-2.87 8.526-2.461 8.586-2.049 8.629-1.637 8.651-1.224 8.654-.81 8.637-.397 8.602.012 8.547.42 8.473.823 8.38 1.223 8.268 1.617 8.14 2.005 7.991 2.385 7.826 2.759 7.644 3.123 7.445 3.478 7.229 3.823 6.997 4.158 6.75 4.48 6.489 4.791 6.213 5.088 5.923 5.373 5.621 5.644 5.306 5.899 4.98 6.14 4.643 6.365 4.296 6.574 3.939 6.766 3.574 6.942 3.2 7.1 2.821 7.241 2.435 7.364 2.044 7.468 1.648 7.554 1.248 7.621.847 7.671.442 7.701.037 7.711-.367 7.705-.772 7.677-1.174 7.632-1.574 7.568-1.97 7.486-2.363 7.384-2.75 7.265-3.131 7.127-3.505 6.973-3.872 6.8-4.23 6.611-4.58 6.405-4.918 6.183-5.247 5.945-5.563 5.692-5.868 5.424-6.161 5.142-6.438 4.847-6.703 4.539-6.953 4.218-7.187 3.886-7.406 3.543-7.608 3.189-7.794 2.827-7.962 2.455-8.113 2.076-8.246 1.689-8.361 1.297-8.457.898-8.535.495-8.593.088-8.632-.322-8.652-.733-8.653-1.147-8.634-1.56-8.596-1.974-8.538-2.385-8.462-2.794-8.365-3.2-8.25-3.603-8.115-4-7.963-4.392-7.791-4.778-7.603-5.155-7.395-5.525-7.17-5.886-6.929-6.238-6.672-6.578-6.397-6.907-6.107-7.226-5.803-7.53-5.485-7.823-5.151-8.1-4.806-8.364-4.448-8.612-4.077-8.845-3.697-9.061-3.304-9.262-2.904-9.444-2.494-9.61-2.076-9.757-1.652-9.886-1.22-9.997-.783-10.089-.342-10.161.103-10.215.552-10.249 1-10.263 1.453-10.257 1.904-10.233 2.354-10.188 2.804-10.124 3.25-10.039 3.693-9.936 4.132-9.814 4.566-9.671 4.994-9.51 5.415-9.331 5.828-9.133 6.233-8.918 6.629-8.683 7.014-8.433 7.389-8.166 7.751-7.882 8.102-7.582 8.439-7.268 8.763-6.938 9.072-6.595 9.367-6.238 9.645-5.869 9.907-5.487 10.153-5.094 10.381-4.691 10.592-4.278 10.785-3.855 10.958-3.425 11.114-2.987 11.25-2.542 11.366-2.091 11.462-1.637 11.539-1.177 11.596-.714L345.488 1l11.648.217 11.643.683 11.618 1.15 11.573 1.615 11.508 2.078L414.9 9.28l11.316 2.994 11.19 3.446 11.044 3.891 10.881 4.33 10.696 4.763 10.494 5.187 10.273 5.601 10.034 6.007 9.779 6.401 9.505 6.785 9.216 7.156 8.91 7.515 8.59 7.86 8.254 8.192 7.905 8.509 7.542 8.81 7.166 9.096 6.779 9.366 6.381 9.619 5.971 9.853 5.552 10.072 5.125 10.271 4.69 10.452 4.246 10.615 3.797 10.758 3.343 10.881 2.884 10.986 2.42 11.071 1.955 11.135 1.487 11.18 1.019 11.205.55 11.21.081 11.194-.384 11.16-.848 11.104-1.309 11.029-1.765 10.936-2.215 10.822-2.66 10.689-3.097 10.538-3.528 10.369-3.949 10.181-4.361 9.975-4.763 9.753-5.154 9.514-5.533 9.258-5.901 8.987-6.254 8.702-6.595 8.4-6.92 8.086-7.231 7.758-7.527 7.418-7.807 7.065-8.069 6.703-8.315 6.329-8.544 5.945-8.754 5.554-8.946 5.153-9.12 4.746-9.275 4.333-9.41 3.914-9.527 3.49-9.624 3.062-9.701 2.632-9.758 2.199-9.797 1.766-9.814 1.332-9.812.898-9.791.466-9.749.037-9.689-.39-9.609-.812-9.509-1.229-9.392-1.641-9.255-2.047-9.101-2.444-8.929-2.834-8.738-3.214-8.532-3.585-8.309-3.946-8.069-4.295-7.815-4.633-7.545-4.958-7.262-5.269-6.964-5.568-6.654-5.851-6.331-6.12-5.997-6.374-5.652-6.611-5.297-6.831-4.933-7.037-4.56-7.223-4.179-7.393-3.791-7.544-3.398-7.678-2.999-7.793-2.596-7.89-2.19-7.968-1.78-8.027-1.369-8.066-.958-8.088-.546-8.089-.135-8.073.274-8.037.68-7.982 1.083-7.909 1.481-7.816 1.875-7.707 2.261-7.579 2.642-7.434 3.014-7.27 3.377-7.09 3.733-6.893 4.076-6.681 4.411-6.453 4.732-6.209 5.043-5.952 5.339-5.679 5.624-5.393 5.892-5.096 6.148-4.785 6.387-4.463 6.61-4.13 6.819-3.788 7.009-3.436 7.183-3.075 7.339-2.707 7.477-2.332 7.598-1.95 7.7-1.564 7.783-1.172 7.847-.778 7.893-.38 7.919.019 7.926.42 7.914.821 7.883 1.221 7.832 1.619 7.763 2.016 7.675 2.408 7.567 2.797 7.442 3.181 7.297 3.558 7.135 3.93 6.956 4.294 6.758 4.65 6.544 4.996 6.313 5.333 6.066 5.659 5.803 5.975 5.527 6.278 5.233 6.568 4.928 6.846 4.609 7.11 4.277 7.358 3.932 7.592 3.578 7.811 3.211 8.014 2.836 8.199 2.452 8.368 2.058 8.52 1.658 8.653 1.251 8.77.838 8.866.42 8.946-.002 9.006-.427 9.046-.854 9.069-1.284 9.071-1.713 9.054-2.142 9.019-2.57 8.963-2.996 8.889-3.42 8.795-3.838 8.682-4.253 8.55-4.662 8.401-5.065 8.231-5.46 8.046-5.847 7.84-6.226 7.619-6.594 7.38-6.952 7.124-7.299 6.852-7.634 6.566-7.956 6.263-8.266 5.946-8.56 5.616-8.84 5.271-9.106 4.915-9.354 4.546-9.588 4.166-9.803 3.775-10.002 3.376-10.183 2.965-10.346 2.549-10.489 2.123-10.615 1.691-10.721 1.253-10.807.812-10.874.364-10.92-.085-10.948-.538-10.955-.991-10.941-1.445-10.908-1.9-10.854-2.352-10.781-2.803-10.686-3.251-10.573-3.695-10.44-4.135-10.287-4.568-10.114-4.996-9.924-5.416-9.715-5.828-9.486-6.231-9.241-6.626-8.978-7.008-8.699-7.381-8.402-7.741-8.09-8.089-7.763-8.423-7.422-8.743-7.065-9.049-6.696-9.34-6.314-9.614-5.92-9.873-5.515-10.115-5.1-10.34-4.674-10.546-4.24-10.735-3.8-10.905-3.348-11.056-2.894-11.189-2.432-11.301-1.967-11.395-1.497-11.468-1.025-11.521-.55-11.555-.076-11.568.4-11.561.875-11.534 1.347-11.487 1.819-11.42 2.285-11.333 2.748-11.226 3.205-11.101 3.657-10.955 4.1-10.791 4.539-10.608 4.966-10.407 5.384-10.188 5.793-9.951 6.19-9.699 6.577-9.428 6.95-9.143 7.31-8.842 7.656-8.526 7.988-8.196 8.305-7.853 8.606-7.496 8.891-7.128 9.16-6.748 9.411-6.357 9.644-5.957 9.859-5.548 10.056-5.13 10.235-4.704 10.393-4.273 10.533-3.835 10.653-3.392 10.752-2.945 10.833-2.496 10.893-2.043 10.933-1.59 10.953-1.135 10.952-.68 10.932-.23 10.891.223 10.83.67 10.75 1.114 10.65 1.553 10.532 1.987 10.393 2.414 10.236 2.834 10.062 3.246 9.868 3.65 9.658 4.043 9.43 4.427 9.186 4.8 8.926 5.16 8.651 5.507 8.36 5.843 8.056 6.164 7.738 6.471 7.406 6.764 7.064 7.039 6.708 7.301 6.344 7.545 5.968 7.772 5.583 7.982 5.191 8.174 4.791 8.349 4.383 8.505 3.971 8.643 3.552 8.761 3.131 8.861 2.706 8.941 2.278 9.004 1.849 9.045 1.42 9.068.99 9.071.562 9.056.136 9.02-.287 8.967-.706 8.894-1.12 8.802-1.53 8.692-1.932 8.564-2.328 8.419-2.715 8.254-3.093 8.074-3.463 7.877-3.821 7.663-4.169 7.435-4.504 7.19-4.829 6.931-5.138 6.657-5.435 6.372-5.717 6.072-5.985 5.76-6.236 5.438-6.473 5.104-6.692 4.761-6.895 4.407-7.08 4.047-7.248 3.677-7.397 3.301-7.53 2.919-7.642 2.532-7.737 2.14-7.813 1.746-7.869 1.347-7.906.948-7.924.547-7.924.146-7.903-.254-7.864-.652-7.805-1.047-7.728-1.44-7.632-1.829-7.518-2.211-7.385-2.589-7.234-2.959-7.066-3.322-6.881-3.678-6.678-4.022-6.46-4.359-6.225-4.684-5.975-4.999-5.71-5.3-5.431-5.59-5.138-5.867-4.832-6.129-4.514-6.377-4.184-6.61-3.842-6.828-3.492-7.03-3.13-7.215-2.76-7.383-2.383-7.535-1.998-7.668-1.606-7.784-1.21-7.881-.809-7.961-.402-8.022.005-8.063.415-8.086.827-8.091 1.239-8.075 1.65-8.041 2.06-7.989 2.468-7.916 2.872-7.826 3.272-7.717 3.667-7.588 4.057-7.443 4.44-7.279 4.815-7.098 5.183-6.898 5.54-6.683 5.889-6.45 6.227-6.202 6.553-5.939 6.867-5.659 7.168-5.365 7.457-5.058 7.731-4.737 7.991-4.404 8.234-4.058 8.463-3.7 8.675-3.334 8.87-2.955 9.048-2.569 9.208-2.173 9.351-1.77 9.474-1.361 9.579-.945 9.666-.524 9.732-.098 9.78.33 9.807.761 9.816 1.194 9.804 1.628 9.773 2.062 9.721 2.495 9.651 2.926 9.559 3.355 9.45 3.779 9.32 4.201 9.171 4.616 9.003 5.025 8.817 5.427 8.612 5.822 8.39 6.209 8.149 6.585 7.891 6.951 7.618 7.308 7.326 7.651 7.021 7.984 6.7 8.302 6.363 8.607 6.014 8.898 5.651 9.175 5.276 9.434 4.888 9.679 4.49 9.907 4.08 10.117 3.663 10.311 3.234 10.487 2.8 10.643 2.357 10.782 1.908 10.901 1.453 11.002.995 11.083.532 11.144.066 11.185-.401 11.207-.87 11.209-1.339 11.19-1.807 11.152-2.273 11.093-2.737 11.015-3.198 10.917-3.653 10.799-4.105 10.662-4.55 10.506-4.987 10.33-5.418 10.137-5.84 9.925-6.251 9.695-6.654 9.448-7.045 9.183-7.424 8.903-7.791 8.606-8.145 8.294-8.485 7.967-8.811 7.626-9.12 7.271-9.416 6.904-9.693 6.524-9.955 6.133-10.2 5.731-10.426 5.319-10.634 4.898-10.824 4.468-10.994 4.031-11.147 3.588-11.278 3.138-11.39 2.683-11.483 2.224-11.554 1.762-11.606 1.298-11.638.831-11.648.365-11.64-.102-11.609-.568-11.559-1.03-11.489-1.492-11.399-1.948-11.288-2.399-11.159-2.847-11.01-3.287-10.842-3.719-10.655-4.145-10.45-4.561-10.227-4.967-9.987-5.364-9.73-5.749-9.457-6.123-9.167-6.483-8.862-6.831-8.544-7.165-8.21-7.484-7.864-7.788-7.505-8.078-7.134-8.35-6.752-8.606-6.359-8.845-5.958-9.066-5.546-9.27-5.129-9.456-4.702-9.622-4.27-9.771-3.833-9.899-3.391-10.009-2.945-10.099-2.497-10.17-2.047-10.22-1.596-10.252-1.144-10.264-.694-10.255-.245-10.228.202-10.18.643-10.114 1.083-10.028 1.515-9.923 1.942-9.8 2.362-9.659 2.775-9.498 3.179-9.322 3.573-9.127 3.958-8.915 4.332-8.688 4.693-8.444 5.044-8.185 5.38-7.912 5.703-7.625 6.013-7.323 6.307-7.01 6.586-6.684 6.849-6.346 7.096-5.999 7.326-5.64 7.538-5.274 7.734-4.898 7.91-4.515 8.069-4.125 8.21-3.729 8.33-3.329 8.433-2.923 8.516-2.515 8.58-2.104 8.624-1.691 8.649-1.278 8.654-.865 8.641-.452 8.608-.041 8.555.366 8.484.771 8.393 1.171 8.284 1.565 8.158 1.954 8.012 2.336 7.849 2.71 7.669 3.075 7.471 3.432 7.258 3.778 7.029 4.114 6.784 4.439 6.524 4.75 6.25 5.05 5.962 5.337 5.661 5.609 5.349 5.866 5.023 6.109 4.688 6.336 4.342 6.548 3.987 6.742 3.622 6.919 3.251 7.081 2.871 7.223 2.486 7.348 2.095 7.456 1.701 7.543 1.301 7.614.899 7.666.496 7.697.091 7.712-.314 7.706-.719 7.682-1.121 7.639-1.522 7.578-1.918 7.497-2.312 7.399-2.699 7.281-3.081 7.147-3.456 6.994-3.825 6.824-4.183 6.637-4.534 6.433-4.874 6.213-5.204 5.977-5.523 5.726-5.829 5.46-6.122 5.181-6.403 4.886-6.669 4.58-6.92 4.261-7.158 3.931-7.377 3.588-7.583 3.237-7.77 2.875-7.941 2.504-8.094 2.127-8.23 1.74-8.347 1.349-8.445.95-8.526.549-8.586.142-8.628-.268-8.651-.679-8.654-1.092-8.638-1.506-8.602-1.919-8.547-2.331-8.473-2.74-8.378-3.148-8.266-3.55-8.135-3.948-7.984-4.341-7.815-4.727-7.628-5.106-7.423-5.477-7.201-5.839-6.962-6.191-6.706-6.534-6.434-6.865-6.147-7.184-5.844-7.492-5.527-7.784-5.196-8.065-4.852-8.33-4.496-8.58-4.127-8.815-3.747-9.034-3.357-9.236-2.957-9.422-2.549-9.588-2.131-9.739-1.708-9.871-1.277-9.983-.841-10.078-.4-10.153.044-10.208.492-10.246.942-10.262 1.393-10.259 1.845-10.238 2.295-10.195 2.744-10.133 3.191-10.052 3.635-9.95 4.075-9.831 4.51-9.691 4.937-9.533 5.36-9.355 5.774-9.161 6.181-8.946 6.577-8.716 6.964-8.467 7.339-8.201 7.705-7.92 8.056-7.623 8.396-7.31 8.721-6.983 9.032-6.64 9.329-6.286 9.609-5.918 9.874-5.538 10.121-5.147 10.353-4.745 10.565-4.332 10.76-3.912 10.937-3.482 11.094-3.044 11.233-2.602 11.352-2.15 11.451-1.697 11.53-1.238 11.589-.776 11.629-.31 11.646.154 11.646.622 11.622 1.089 11.581 1.554 11.517 2.017 11.434 2.478 11.331 2.934 11.208 3.386 11.065 3.833 10.903 4.274 10.721 4.706 10.522 5.13 10.303 5.548 10.067 5.954 9.813 6.35 9.542 6.735 9.255 7.108 8.952 7.468 8.632 7.816 8.3 8.149 7.951 8.468 7.591 8.771 7.216 9.06 6.831 9.331 6.434 9.586 6.025 9.824 5.608 10.044 5.182 10.246 4.747 10.429 4.305 10.594 3.857 10.74 3.403 10.867 2.944 10.973 2.482 11.061 2.016 11.128 1.549 11.175 1.08 11.203.612 11.21.143 11.198-.323 11.165-.787 11.112-1.248 11.041-1.705 10.949-2.156 10.838-2.602 10.708-3.041 10.559-3.471 10.392-3.894 10.206-4.307 10.004-4.711 9.783-5.103 9.546-5.484 9.293-5.853 9.024-6.209 8.74-6.55 8.44-6.878 8.128-7.192 7.803-7.489 7.463-7.77 7.113-8.036 6.75-8.284 6.379-8.514 5.996-8.727 5.606-8.922 5.207-9.098 4.8-9.256 4.387-9.394 3.969-9.512 3.546-9.612 3.119-9.692 2.689-9.753 2.256-9.792 1.823-9.813 1.389-9.814.955-9.794.524-9.756.093-9.698-.334-9.62-.757-9.524-1.175-9.409-1.587-9.274-1.993-9.122-2.392-8.952-2.783-8.765-3.165-8.56-3.537-8.339-3.899-8.102-4.25-7.849-4.589-7.581-4.916-7.3-5.229-7.004-5.529-6.696-5.815-6.374-6.085-6.042-6.341-5.698-6.581-5.344-6.804-4.981-7.01-4.61-7.2-4.229-7.371-3.843-7.526-3.45-7.661-3.052-7.779-2.65-7.878-2.243-7.959-1.834-8.02-1.424-8.062-1.012-8.086-.6-8.091-.189-8.076.22-8.042.627-7.99 1.03-7.92 1.429-7.83 1.823-7.722 2.211-7.597 2.592-7.453 2.966-7.293 3.33-7.115 3.686-6.92 4.032-6.71 4.367-6.484 4.691-6.242 5.002-5.986 5.302-5.716 5.586-5.432 5.858-5.135 6.115-4.827 6.356-4.506 6.583-4.175 6.792-3.833 6.985-3.483 7.161-3.123 7.319-2.756 7.46-2.381 7.583-2.001 7.688-1.615 7.773-1.224 7.84-.83 7.887-.433 7.917-.033 7.926.367 7.917.768 7.888 1.168 7.84 1.567 7.773 1.964 7.688 2.356 7.582 2.746 7.459 3.131 7.318 3.509 7.157 3.882 6.981 4.246 6.785 4.603 6.573 4.951 6.344 5.29 6.1 5.617 5.839 5.934 5.563 6.238 5.273 6.531 4.969 6.81 4.652 7.076 4.321 7.326 3.978 7.563 3.625 7.783 3.261 7.987 2.886 8.176 2.502 8.347 2.111 8.501 1.711 8.637 1.304 8.755.893 8.855.476 8.936.054 8.999-.371 9.042-.798 9.067-1.227 9.072-1.656 9.058-2.086 9.024-2.514 8.972-2.94 8.899-3.364 8.808-3.784 8.698-4.199 8.569-4.608 8.422-5.012 8.255-5.409 8.07-5.796 7.869-6.176 7.649-6.547 7.412-6.905 7.159-7.254 6.889-7.591 6.604-7.914 6.304-8.226 5.989-8.522 5.66-8.804 5.317-9.072 4.962-9.323 4.596-9.557 4.216-9.776 3.828-9.977 3.428-10.16 3.021-10.326 2.603-10.471 2.179-10.599 1.749-10.708 1.312-10.797.869-10.866.424-10.916-.026-10.946-.478-10.954-.931-10.945-1.386-10.913-1.84-10.862-2.292-10.792-2.744-10.7-3.192-10.589-3.637-10.458-4.077-10.308-4.512-10.139-4.94-9.95-5.361-9.743-5.774-9.517-6.179-9.275-6.574-9.014-6.959-8.736-7.332-8.442-7.694-8.132-8.044-7.807-8.38-7.467-8.702-7.113-9.009-6.745-9.302-6.366-9.58-5.972-9.84-5.57-10.084-5.154-10.311-4.731-10.52-4.299-10.711-3.857-10.884-3.408-11.037-2.954-11.173-2.494-11.287-2.028-11.384-1.56-11.459-1.086-11.515-.614-11.552-.138-11.567.338-11.563.812-11.539 1.286-11.495 1.756-11.429 2.224-11.346 2.688-11.242 3.145-11.118 3.598-10.975 4.043-10.814 4.48-10.633 4.91-10.434 5.33-10.218 5.74-9.984 6.139-9.732 6.526-9.466 6.901-9.181 7.263-8.882 7.612-8.569 7.945-8.24 8.264-7.899 8.568-7.543 8.855-7.177 9.125-6.8 9.379-6.409 9.614-6.01 9.832-5.602 10.031-5.185 10.212-4.761L178 56.497l10.515-3.893 10.638-3.45 10.741-3.005 10.824-2.555 10.886-2.103 10.929-1.65 10.951-1.194 10.953-.741 10.936-.288 10.897.163 10.84.611 10.762 1.056 10.664 1.496 10.548 1.93 10.413 2.358 10.258 2.78 10.085 3.192 9.895 3.597 9.687 3.992 9.461 4.377 9.219 4.75 8.961 5.113 8.688 5.463 8.399 5.8 8.097 6.122 7.78 6.432 7.451 6.726 7.109 7.004 6.757 7.267 6.392 7.514 6.018 7.743 5.634 7.955 5.243 8.15 4.844 8.327 4.437 8.486 4.026 8.625 3.608 8.747 3.186 8.849 2.762 8.932 2.334 8.996 1.906 9.041 1.476 9.066 1.047 9.072.618 9.059.192 9.026-.231 8.975-.651 8.904-1.066 8.816-1.476 8.708-1.88 8.582-2.276 8.438-2.664 8.277-3.044 8.099-3.415 7.904-3.775 7.692-4.123 7.465-4.461 7.223-4.787 6.966-5.098 6.695-5.397 6.41-5.681 6.112-5.95 5.802-6.204 5.481-6.442 5.149-6.665 4.806-6.868 4.454-7.057 4.095-7.227 3.726-7.379 3.351-7.513 2.97-7.629 2.583-7.726 2.192-7.803 1.797-7.863 1.4-7.902 1.001-7.923.6-7.925.199-7.907-.201-7.87-.6-7.814-.996-7.739-1.388-7.646-1.778-7.534-2.161-7.403-2.54-7.255-2.91-7.09-3.275-6.906-3.631-6.706-3.978-6.489-4.315-6.257-4.642-6.009-4.958-5.746-5.261-5.468-5.553-5.178-5.831-4.873-6.095-4.556-6.345-4.228-6.581-3.888-6.8-3.538-7.004-3.179-7.191-2.809-7.363-2.433-7.515-2.049-7.652-1.658-7.77-1.263-7.869-.861-7.952-.457-8.014-.048-8.059.361-8.085.773-8.091 1.185-8.078 1.596-8.047 2.006-7.996 2.414-7.927 2.819-7.839 3.219-7.732 3.616-7.607 4.006-7.463 4.39-7.302 4.766-7.122 5.134-6.926 5.494-6.712 5.844-6.482 6.183-6.235 6.51-5.974 6.827-5.697 7.13-5.405 7.419-5.099 7.696-4.78 7.957-4.448 8.203-4.104 8.434-3.749 8.648-3.382 8.845-3.006 9.026-2.62 9.188-2.225 9.333-1.824 9.459-1.415 9.566-1 9.656-.58 9.724-.155 9.775.273 9.805.705 9.816 1.137 9.806 1.571 9.778 2.004 9.73 2.438 9.661 2.87 9.572 3.298 9.466 3.724 9.338 4.146 9.191 4.561 9.027 4.972 8.842 5.375 8.641 5.77 8.419 6.158 8.182 6.536 7.926 6.904 7.655 7.261 7.366 7.607 7.062 7.941 6.742 8.261 6.409 8.568 6.061 8.86 5.699 9.139 5.326 9.401 4.94 9.648 4.543 9.878 4.135 10.09 3.718 10.287 3.291 10.464 2.857 10.624 2.416 10.765 1.967 10.887 1.514 10.989 1.055 11.073.593 11.137.128 11.182-.34 11.205-.808 11.209-1.277 11.194-1.745 11.158-2.212 11.102-2.676 11.027-3.137 10.93-3.594 10.816-4.046 10.681-4.491 10.528-4.93 10.355-5.362 10.163-5.785 9.954-6.198 9.726-6.601 9.481-6.994 9.219-7.375 8.941-7.744 8.646-8.099 8.336-8.441 8.011-8.768 7.671-9.081 7.319-9.377 6.953-9.658 6.575-9.922 6.185-10.168 5.784-10.397 5.374-10.608 4.954-10.8 4.525-10.973 4.09-11.128 3.646-11.262 3.197-11.376 2.744-11.472 2.285-11.546 1.823-11.6 1.358-11.635.893-11.648.426-11.642-.04-11.614-.506-11.567-.97-11.5-1.431-11.412-1.888-11.304-2.341-11.177-2.788-11.03-3.229-10.865-3.663-10.681-4.089-10.478-4.507-10.258-4.914-10.019-5.313-9.765-5.698-9.493-6.074-9.207-6.437-8.903-6.786-8.586-7.121-8.255-7.443-7.91-7.75-7.553-8.04-7.184-8.315-6.803-8.573-6.411-8.815-6.011-9.038-5.602-9.245-5.183-9.432-4.76-9.601-4.327-9.752-3.89-9.884-3.45-9.995-3.004-10.089-2.556-10.161-2.106-10.215-1.655-10.249-1.204-10.263-.753-10.258-.304-10.232.143-10.188.585-10.123 1.025-10.041 1.459-9.938 1.886-9.817 2.308-9.679 2.72-9.52 3.127-9.346 3.522-9.153 3.907-8.944 4.283-8.719 4.647-8.477 4.998-8.22 5.336-7.949 5.662-7.663 5.973-7.364 6.269-7.052 6.55-6.728 6.816-6.391 7.064-6.045 7.296-5.688 7.512-5.323 7.709-4.948 7.888-4.565 8.049-4.177 8.192-3.782 8.316-3.382 8.42-2.977 8.506-2.568 8.573-2.159 8.619-1.745 8.647-1.332 8.655-.919 8.644-.507 8.613-.095 8.563.313 8.494.718 8.406 1.118 8.3 1.514 8.175 1.903 8.032 2.286 7.872 2.661 7.693 3.027 7.499 3.386 7.287 3.733 7.06 4.071 6.817 4.396 6.559 4.71 6.287 5.012 6.001 5.299 5.701 5.574 5.391 5.833 5.067 6.078 4.732 6.307 4.388 6.521 4.034 6.717 3.671 6.898 3.3 7.06 2.922 7.205 2.537 7.333 2.147 7.442 1.752 7.534 1.354 7.605.953 7.66.549 7.694.144 7.711-.261 7.708-.665 7.686-1.068 7.646-1.469 7.587-1.867 7.509-2.26 7.413-2.648 7.298-3.032 7.165-3.407 7.015-3.776 6.848-4.137 6.662-4.488 6.461-4.83 6.242-5.161 6.01-5.482 5.76-5.789 5.496-6.084 5.218-6.367 4.926-6.635 4.621-6.888 4.304-7.127 3.974-7.35 3.634-7.556 3.284-7.747 2.923-7.919 2.554-8.075 2.176-8.213 1.792-8.333 1.401-8.433 1.003-8.516.602-8.58.195-8.623-.213-8.649-.625-8.655-1.038-8.641-1.451-8.608-1.865-8.555-2.276-8.484-2.687-8.392-3.094-8.282-3.497-8.153-3.896-8.004-4.29-7.839-4.676-7.654-5.057-7.451-5.428-7.231-5.792-6.995-6.146-6.74-6.49-6.471-6.822-6.185-7.143-5.885-7.451-5.57-7.747-5.24-8.028-4.899-8.296-4.543-8.548-4.176-8.785-3.797-9.006-3.41-9.211-3.01-9.398-2.603-9.568-2.186-9.72-1.764-9.854-1.335-9.969-.898-10.067-.459-10.144-.014-10.202.433-10.242.882-10.261 1.334-10.261 1.785-10.241 2.236-10.202 2.685-10.142 3.133-10.064 3.576-9.965 4.017-9.848 4.453-9.71 4.882-9.555 5.304-9.38 5.721-9.187 6.127-8.976 6.525-8.747 6.914-8.5 7.291-8.238 7.657-7.958 8.01-7.663 8.352-7.352 8.679-7.026 8.992-6.687 9.291-6.333 9.573-5.967 9.84-5.59 10.09-5.198 10.323-4.798 10.538-4.388 10.736-3.967 10.914-3.539 11.075-3.103 11.215-2.66 11.338-2.21 11.439-1.757 11.521-1.299 11.582-.836 11.625-.372 11.645.093 11.647.56 11.627 1.028 11.587 1.492 11.526 1.957 11.447 2.417 11.345 2.875 11.225 3.327 11.085 3.774 10.926 4.216 10.746 4.65 10.549 5.075 10.333 5.493 10.099 5.9 9.848 6.3 9.579 6.684 9.293 7.06 8.993 7.421 8.675 7.771 8.344 8.106 7.998 8.427 7.639 8.732 7.267 9.023 6.882 9.296 6.486 9.554 6.08 9.793 5.664 10.016 5.238 10.22L611 172.688l4.364 10.573 3.916 10.722 3.463 10.851 3.005 10.961 2.543 11.05 2.077 11.12 1.611 11.17 1.142 11.201.673 11.21.205 11.2-.262 11.171-.726 11.12-1.188 11.052-1.645 10.962-2.097 10.853-2.543 10.726-2.983 10.58-3.415 10.415-3.839 10.232-4.254 10.031-4.658 9.814-5.052 9.578-5.435 9.327-5.805 9.06-6.162 8.778-6.506 8.481-6.836 8.17-7.151 7.846-7.451 7.509-7.734 7.159-8.002 6.799-8.252 6.428-8.485 6.048-8.7 5.657-8.898 5.26-9.076 4.854-9.236 4.442-9.376 4.025-9.498 3.602-9.601 3.175-9.682 2.745-9.746 2.314-9.788 1.88-9.811 1.446-9.815 1.012-9.798.58-9.762.15-9.707-.278-9.632-.701-9.537-1.12-9.425-1.533-9.293-1.941-9.143-2.34-8.976-2.732-8.79-3.115-8.588-3.488-8.369-3.852-8.134-4.205-7.883-4.545-7.618-4.873-7.337-5.189-7.044-5.49-6.737-5.778-6.417-6.051-6.087-6.308-5.744-6.55-5.391-6.775-5.029-6.984-4.659-7.176-4.28-7.35-3.894-7.506-3.502-7.645-3.105-7.765-2.703-7.866-2.297-7.949-1.888-8.013-1.478-8.058-1.066-8.083-.654-8.091-.243-8.079.166-8.048.573-7.999.978-7.93 1.377-7.842 1.771-7.738 2.16-7.614 2.542-7.474 2.917-7.314 3.283-7.14 3.64-6.947 3.987-6.738 4.323-6.514 4.649-6.275 4.962-6.021 5.263-5.752 5.55-5.47 5.823-5.175 6.082-4.868 6.325-4.549 6.553-4.219 6.766-3.879 6.96-3.53 7.139-3.171 7.3-2.804 7.442-2.431 7.568-2.052 7.675-1.666 7.763-1.276 7.832-.882 7.883-.485 7.913-.086 7.927.315 7.919.715 7.893 1.116 7.847 1.514 7.783 1.911 7.7 2.306 7.597 2.695 7.477 3.08 7.337 3.46 7.18 3.832 7.004 4.199 6.812 4.557 6.602 4.906 6.375 5.245 6.133 5.575 5.874 5.892 5.601 6.2 5.312 6.493 5.01 6.774 4.694 7.041 4.365 7.294 4.024 7.533 3.673 7.755 3.308 7.961 2.936 8.152 2.554 8.325 2.162 8.482 1.764 8.62 1.359 8.741.947 8.842.531 8.927.11 8.992-.315 9.038-.742 9.064-1.17 9.072-1.6 9.061-2.029 9.03-2.458 8.98-2.884 8.91-3.308 8.821-3.729 8.714-4.144 8.587-4.555 8.442-4.959 8.278-5.357 8.096-5.746 7.896-6.127 7.678-6.498 7.445-6.859 7.193-7.208 6.926-7.547 6.642-7.873 6.344-8.185 6.031-8.484 5.704-8.768 5.364-9.037 5.01-9.291 4.644-9.528 4.267-9.748 3.879-9.951 3.482-10.137 3.074-10.305 2.659-10.453 2.236-10.584 1.805-10.695 1.37-10.786.928-10.858.483-10.91.033-10.943-.418-10.955-.872-10.947-1.325-10.918-1.78-10.871-2.233-10.801-2.685-10.714-3.134-10.604-3.578-10.477-4.019-10.329-4.455-10.162-4.884-9.976-5.306-9.771-5.72-9.548-6.126-9.308-6.523-9.049-6.909-8.774-7.284-8.481-7.647-8.174-7.998-7.851-8.336-7.513-8.661-7.16-8.97-6.795-9.264-6.416-9.544-6.025-9.807-5.622-10.053-5.21-10.282-4.788-10.493-4.356-10.687-3.915-10.862-3.468-11.019-3.014-11.155-2.555-11.274-2.09-11.372-1.62-11.45-1.15-11.509-.676-11.548-.2-11.567.274-11.565.75-11.543 1.224-11.501 1.694-11.439 2.163-11.358 2.626-11.257 3.086-11.135 3.538-10.995 3.985-10.836 4.424-10.658 4.854-10.462 5.275-10.247 5.686-10.016 6.087-9.767 6.476-9.501 6.852-9.22 7.217-8.922 7.566-8.611 7.902-8.284 8.223-7.944 8.529-7.592 8.818-7.226 9.09-6.849 9.346-6.461 9.585-6.063 9.804-5.657 10.007-5.24 10.189-4.818 10.353-4.387 10.498-3.95 10.623-3.51 10.729-3.063 10.813-2.614 10.879-2.163 10.925-1.709 10.949-1.255 10.954-.8 10.939-.348 10.904.104 10.848.552 10.773.998 10.679 1.438 10.564 1.873 10.432 2.302 10.279 2.724 10.109 3.139 9.921 3.544 9.715 3.94 9.492 4.328 9.252 4.702 8.996 5.066 8.725 5.417 8.438 5.756 8.138 6.081 7.822 6.392 7.495 6.688 7.155 6.968 6.803 7.234 6.441 7.482 6.068 7.713 5.686 7.929 5.294 8.125 4.897 8.305 4.491 8.466 4.08 8.608 3.663 8.732 3.243 8.836 2.818 8.922 2.39 8.989 1.963 9.036 1.532 9.064 1.104 9.072.674 9.062.248 9.032-.175 8.983-.596 8.914-1.012 8.829-1.423 8.723-1.826 8.599-2.225 8.458-2.613 8.3-2.995 8.123-3.366 7.93-3.728 7.722-4.079 7.496-4.417 7.255-4.744 7.001-5.058 6.731-5.358 6.448-5.645 6.152-5.915 5.844-6.172 5.524-6.412 5.193-6.636 4.852-6.843 4.501-7.033 4.142-7.205 3.775-7.36 3.401-7.497 3.021-7.614 2.634-7.714 2.244-7.795 1.849-7.856 1.453-7.898 1.053-7.921.652-7.926.252-7.91-.148-7.876-.547-7.823-.944-7.75-1.337-7.659-1.727-7.55-2.111-7.421-2.49-7.276-2.862-7.112-3.227-6.931-3.585-6.734-3.933-6.518-4.271-6.289-4.6-6.042-4.916-5.781-5.222-5.506-5.516-5.217-5.795-4.914-6.061-4.599-6.313-4.272-6.55-3.933-6.772-3.585-6.978-3.226-7.168-2.859-7.341-2.483-7.496-2.099-7.635-1.711-7.755-1.314-7.858-.915-7.942-.51-8.007-.102-8.054.307-8.082.719-8.091 1.13-8.081 1.542-8.053 1.952-8.004 2.361-7.937 2.765-7.852 3.167-7.747 3.564-7.624 3.955-7.483 4.34-7.324 4.717-7.147 5.086-6.952 5.448-6.742 5.798-6.513 6.138-6.269 6.469-6.009 6.785-5.734 7.091-5.444 7.382-5.141 7.66-4.822 7.924-4.493 8.171-4.15 8.405-3.796 8.62-3.431 8.82-3.056 9.003-2.671 9.168-2.278 9.315-1.877 9.444-1.47 9.553-1.055 9.645-.635 9.716-.211 9.769.217 9.803.647 9.815 1.08 9.809 1.514 9.783 1.948 9.737 2.381 9.671 2.812 9.585 3.243 9.481 3.668 9.356 4.09 9.212 4.507 9.049 4.918 8.868 5.322 8.668 5.719 8.45 6.107 8.214 6.487 7.961 6.856 7.691 7.215 7.405 7.562 7.102 7.897 6.786 8.22 6.453 8.528 6.108 8.823 5.748 9.103 5.375 9.368 4.992 9.616 4.595 9.848 4.19 10.064 3.773 10.262 3.348 10.442 2.915 10.603 2.474 10.748 2.027 10.871 1.574 10.978 1.116 11.063.654 11.13.189 11.176-.278 11.203-.747 11.211-1.215 11.197-1.683 11.163-2.151 11.111-2.615 11.037-3.077 10.945-3.534 10.832-3.986 10.7-4.433 10.549-4.873 10.378-5.306 10.19-5.729 9.982-6.144 9.758-6.549 9.514-6.943 9.255-7.326 8.978-7.695 8.686-8.053 8.377-8.397 8.055-8.726 7.717-9.041 7.366-9.339 7.002-9.622 6.625-9.888 6.237-10.136 5.838-10.369 5.428-10.581 5.01-10.775 4.582-10.952 4.147-11.108 3.705-11.245 3.257-11.363 2.803-11.46 2.346-11.538 1.884-11.594 1.42-11.632.954-11.647.488-11.644.021-11.619-.445-11.575-.909-11.509-1.37-11.424-1.828-11.32-2.282-11.195-2.729-11.051-3.172-10.888-3.606-10.706-4.034-10.505-4.452-10.288-4.861-10.052-5.261-9.799-5.648-9.53-6.025-9.245-6.39-8.944-6.741-8.629-7.078-8.3-7.401-7.956-7.71-7.6-8.003-7.233-8.28-6.854-8.54-6.464-8.784-6.064-9.01-5.656-9.218-5.239-9.409-4.815-9.58-4.385-9.733-3.948-9.867-3.508-9.982-3.063-10.077-2.615-10.153-2.166-10.209-1.714-10.246-1.263-10.262-.812-10.26-.363-10.237.084-10.194.527-10.133.967-10.053 1.402-9.953 1.83-9.834 2.253-9.698 2.667-9.542 3.073-9.37 3.47-9.179 3.858-8.973 4.234-8.749 4.599-8.51 4.953-8.255 5.293-7.985 5.619-7.702 5.933-7.404 6.231-7.094 6.514-6.77 6.782-6.437 7.032-6.091 7.267-5.736 7.484-5.371 7.684-4.998 7.865-4.616 8.029-4.229 8.175-3.834 8.3-3.434 8.408-3.031 8.496-2.622 8.565-2.213 8.614-1.8 8.644-1.387 8.655-.973 8.647-.56 8.618-.15 8.571.259 8.504.665 8.419 1.066 8.315 1.462 8.192 1.852 8.052 2.236 7.894 2.612 7.718 2.98 7.525 3.339 7.316 3.688 7.091 4.027 6.85 4.354 6.593 4.669 6.324 4.973 6.039 5.262 5.742 5.539 5.432 5.8 5.11 6.046 4.778 6.278 4.434 6.494 4.081 6.692 3.719 6.875 3.349 7.039 2.972 7.188 2.588 7.317 2.199 7.429 1.804 7.522 1.407 7.597 1.005 7.654.602 7.691.198 7.709-.207 7.71-.613 7.69-1.015 7.652-1.416 7.596-1.815 7.52-2.208 7.427-2.598 7.314-2.981 7.184-3.358 7.036-3.728 6.87-4.09 6.688-4.442 6.488-4.786 6.272-5.118 6.041-5.44 5.794-5.749 5.532-6.047 5.255-6.33 4.965-6.6 4.662-6.856 4.347-7.096 4.018-7.322 3.68-7.53 3.33-7.722 2.971-7.898 2.603-8.056 2.227-8.195 1.842-8.318 1.453-8.421 1.056-8.507.655-8.572.249-8.619-.16-8.647-.57-8.655-.984-8.643-1.397-8.614-1.81-8.563-2.222-8.494-2.633-8.406-3.04-8.297-3.445-8.171-3.844-8.025-4.238-7.862-4.625-7.679-5.007-7.479-5.381-7.261-5.744-7.027-6.1-6.775-6.445-6.507-6.778-6.224-7.102-5.925-7.411-5.612-7.709-5.285-7.992-4.943-8.262-4.591-8.516-4.225-8.754-3.848-8.978-3.461-9.185-3.063-9.374-2.657-9.547-2.243-9.701-1.82-9.837-1.39-9.955-.957-10.055-.517-10.135-.073-10.196.374-10.238.823-10.259 1.274-10.262 1.726-10.245 2.176-10.208 2.627-10.152 3.074-10.075 3.518-9.979 3.96-9.864 4.395-9.73 4.825-9.576 5.25-9.404 5.666-9.214 6.074-9.004 6.473-8.778 6.863-8.534 7.242-8.274 7.61-7.996 7.965-7.702 8.307-7.394 8.637-7.07 8.952-6.732 9.252-6.38 9.537-6.017 9.805-5.64 10.058-5.25 10.293-4.852 10.511-4.442 10.711-4.023L261.18 13.7l11.055-3.16 11.198-2.719 11.322-2.27 11.427-1.817 11.511-1.359 11.576-.897 11.62-.434 11.644.032 11.648.5 11.63.965 11.594 1.431 11.535 1.896 11.458 2.356 11.361 2.815 11.242 3.268 11.104 3.716 10.948 4.158 10.771 4.593 10.576 5.02 10.363 5.438 10.13 5.848 9.882 6.246 9.615 6.635 9.332 7.01 9.033 7.376 8.718 7.725 8.389 8.063 8.044 8.385 7.687 8.693 7.317 8.985 6.933 9.262 6.539 9.52 6.134 9.763 5.719 9.988 5.295 10.194 4.862 10.383 4.423 10.553 3.975 10.703 3.523 10.835 3.065 10.948 2.604 11.039 2.139 11.112 1.673 11.165 1.203 11.198.735 11.21.267 11.203-.201 11.175-.665 11.128-1.127 11.062-1.585 10.975-2.038 10.869-2.485 10.744-2.926 10.6-3.358 10.438-3.784 10.257-4.199 10.058-4.606 9.843-5.001 9.611-5.385 9.361-5.756 9.096-6.116 8.816-6.462 8.521-6.794 8.212-7.11 7.889-7.412 7.553-7.698 7.207-7.968 6.847-8.219 6.477-8.456 6.098-8.673 5.71-8.872 5.312-9.054 4.908-9.216 4.497-9.359 4.08-9.483 3.658-9.588 3.231-9.673 2.802-9.738 2.371-9.784 1.937-9.809 1.503-9.816 1.07-9.801.636-9.768.207-9.715-.222-9.643-.646-9.551-1.065-9.441-1.479-9.311-1.887-9.164-2.288-8.999-2.681-8.815-3.065-8.616-3.44-8.399-3.805-8.165-4.158-7.918-4.501-7.653-4.831-7.375-5.148-7.084-5.451-6.778-5.741-6.46-6.016-6.13-6.275-5.79-6.519-5.438-6.747-5.078-6.957-4.708-7.152-4.33-7.328-3.946-7.486-3.554-7.628-3.157-7.75-2.756-7.854-2.35-7.939-1.943-8.005-1.532-8.053-1.12-8.082-.708-8.091-.298-8.082.113-8.053.52-8.006.924-7.94 1.325-7.855 1.719-7.753 2.11-7.631 2.492-7.493 2.868-7.337 3.235-7.163 3.593-6.973 3.942-6.767 4.28-6.545 4.607-6.307 4.921-6.055 5.224-5.788 5.513-5.508 5.788-5.215 6.048-4.909 6.295-4.592 6.524-4.263 6.738-3.924 6.936-3.576 7.116-3.219 7.28-2.853 7.425-2.481 7.552-2.102 7.662-1.717 7.752-1.327 7.824-.934 7.877-.538 7.911-.138 7.926.261 7.921.663 7.897 1.063 7.855 1.462 7.793 1.859 7.711 2.254 7.612 2.644 7.494 3.029 7.356 3.41 7.202 3.785 7.028 4.151 6.838 4.51 6.631 4.86 6.406 5.201 6.166 5.532 5.909 5.852 5.637 6.159 5.351 6.455 5.051 6.738 4.736 7.007 4.409 7.262 4.07 7.502 3.719 7.726 3.358 7.935 2.985 8.128 2.605 8.304 2.214 8.462 1.817 8.602 1.412 8.726 1.002 8.831.586 8.916.165 8.985-.258 9.032-.685 9.062-1.114 9.073-1.543 9.063-1.973 9.035-2.401 8.988-2.829 8.92-3.252 8.834-3.674 8.729-4.09 8.605-4.501 8.462-4.906 8.3-5.305 8.121-5.695 7.924-6.077 7.708-6.45 7.476-6.812 7.228-7.163 6.961-7.503 6.681-7.831 6.384-8.145 6.074-8.445 5.747-8.732 5.409-9.002 5.057-9.258 4.694-9.498 4.317-9.72 3.931-9.926 3.535-10.113 3.128-10.284 2.714-10.435 2.292-10.567 1.863-10.681 1.427-10.776.986-10.85.542-10.904.093-10.94-.359-10.954-.812-10.949-1.266-10.924-1.72-10.877-2.174-10.812-2.625-10.726-3.074-10.621-3.52-10.494-3.962-10.35-4.397-10.185-4.828-10.001-5.251-9.8-5.666-9.578-6.074-9.341-6.471-9.084-6.858-8.81-7.235-8.522-7.6-8.215-7.953-7.894-8.293-7.558-8.618-7.208-8.93-6.843-9.227-6.467-9.508-6.077-9.773-5.676-10.021-5.265-10.253-4.844-10.467-4.413-10.662-3.974-10.84-3.527-10.999-3.075-11.139-2.615-11.259-2.151-11.36-1.683-11.441-1.212-11.503-.738-11.544L1 318.12l.212-11.566.687-11.547 1.161-11.508 1.633-11.449 2.101-11.37 2.566-11.271 3.025-11.152 3.48-11.015 3.926-10.858 4.366-10.682 4.798-10.489 5.22-10.277 5.633-10.047 6.035-9.8 6.425-9.537 6.804-9.258 7.169-8.963 7.521-8.652 7.859-8.328 8.182-7.99 8.489-7.639 8.78-7.274 9.056-6.9 9.314-6.513 9.554-6.116 9.776-5.71 9.981-5.296 10.166-4.874 10.333-4.444 10.48-4.008 10.608-3.568 10.715-3.122 10.804-2.674 10.872-2.222 10.919-1.769 10.947-1.315 10.955-.86 10.942-.407 10.91.044 10.856.494 10.785.939 10.692 1.38 10.58 1.816 10.45 2.246 10.301 2.67 10.133 3.084 9.946 3.492 9.743 3.889 9.522 4.276 9.285 4.653 9.031 5.02 8.761 5.371 8.477 5.712 8.178 6.04 7.864 6.35 7.539 6.65 7.201 6.933 6.85 7.199 6.489 7.451 6.117 7.684 5.737 7.901 5.347 8.101 4.949 8.282 4.545 8.445 4.135 8.591 3.718 8.716 3.298 8.824 2.874 8.912 2.447 8.981 2.019 9.031 1.589 9.061 1.16 9.073.731 9.064.304 9.037-.12 8.99-.541 8.925-.957 8.841-1.369 8.737-1.774 8.617-2.172 8.478-2.563 8.321-2.945 8.148-3.318 7.957-3.681 7.749-4.033 7.527-4.373 7.288-4.702 7.035-5.018 6.767-5.319 6.487-5.608 6.191-5.88 5.885-6.139 5.567-6.381 5.237-6.608 4.898-6.816 4.548-7.009 4.19-7.184 3.823-7.341 3.451-7.479 3.071-7.601 2.685-7.701 2.296-7.785 1.901-7.849 1.505-7.894 1.106-7.92.705-7.926.305-7.913-.096-7.882-.495-7.83-.891-7.761-1.286-7.672-1.675-7.565-2.061-7.44-2.44-7.296-2.814-7.134-3.18-6.956-3.538-6.761-3.887-6.548-4.228-6.319-4.557-6.076-4.875-5.816-5.183-5.543-5.477-5.256-5.759-4.954-6.027-4.642-6.281-4.315-6.519-3.979-6.744-3.631-6.952-3.274-7.144-2.907-7.319-2.533-7.477-2.151-7.617-1.762-7.741-1.367-7.845-.967-7.932-.564-7.999-.156-8.049.253-8.08.664-8.091 1.077-8.083 1.487-8.057 1.899-8.012 2.307-7.947 2.712-7.864 3.115-7.762 3.511-7.641 3.904-7.503 4.289-7.346 4.668-7.171 5.039-6.979 5.4-6.77 5.752-6.545 6.095-6.302 6.425-6.044 6.745-5.771 7.051-5.483 7.345-5.181 7.624-4.866 7.89-4.537 8.139-4.195 8.375-3.844 8.593-3.479 8.795-3.106 8.98-2.722 9.147-2.331 9.296-1.93 9.428-1.524 9.54-1.11 9.634-.69 9.708-.268 9.763.16 9.799.591 9.815 1.023 9.811 1.457 9.788 1.89 9.744 2.324 9.681 2.756 9.598 3.186 9.495 3.612 9.373 4.035 9.233 4.453 9.071 4.864 8.893 5.269 8.695 5.667 8.48 6.057 8.246 6.438 7.995 6.808 7.728 7.168 7.443 7.517 7.144 7.854 6.828 8.177 6.498 8.489 6.154 8.785 5.796 9.067 5.425 9.333 5.043 9.585 4.648 9.819 4.244 10.036 3.828 10.237 3.405 10.419 2.972 10.583 2.533 10.73 2.086 10.856 1.634 10.965 1.176 11.053.715 11.122.251 11.171-.217 11.201-.684 11.211-1.154 11.199-1.622 11.17-2.089 11.118-2.554 11.049-3.016 10.958-3.474 10.848-3.928 10.718-4.374 10.57-4.816 10.402-5.249 10.215-5.674 10.011-6.09 9.788-6.496 9.547-6.892 9.29-7.275 9.016-7.648 8.725-8.007 8.419-8.352 8.098-8.684 7.762-9 7.413-9.3 7.051-9.586 6.675-9.854 6.289-10.105 5.891-10.338 5.483-10.555 5.065-10.751 4.639-10.929 4.205-11.089 3.764-11.228 3.316-11.349 2.863-11.448 2.406-11.528 1.945-11.589 1.482-11.627 1.015-11.647.549-11.645.083-11.624-.384-11.581-.848-11.52-1.31-11.436-1.768-11.335-2.222-11.212-2.67-11.071-3.114-10.911-3.549-10.731-3.978-10.533-4.398-10.317-4.808-10.084-5.208-9.834-5.599-9.566-5.976-9.283-6.342-8.985-6.695-8.671-7.035-8.344-7.36-8.002-7.67-7.648-7.965-7.282-8.244-6.904-8.507-6.516-8.753-6.117-8.981-5.711-9.192-5.294-9.384-4.871-9.559-4.442-9.714-4.006-9.851-3.566-9.968-3.122-10.065-2.674-10.145-2.225-10.202-1.774-10.242-1.323-10.262-.871-10.26-.422-10.241.025-10.202.47-10.142.909-10.064 1.345-9.967 1.774-9.851 2.197-9.717L81.662 312l3.02-9.393 3.419-9.206 3.807-9.001 4.185-8.779 4.552-8.543 4.907-8.289 5.249-8.022 5.577-7.739 5.892-7.444 6.193-7.136 6.478-6.814 6.747-6.481 7-6.137 7.237-5.783 7.456-5.42 7.659-5.047 7.843-4.667 8.008-4.28 8.156-3.887 8.285-3.487 8.395-3.084 8.486-2.676 8.556-2.267 8.609-1.854 8.642-1.442 8.655-1.027 8.648-.615 8.623-.204 8.578.206 8.514.611 8.432 1.014 8.329 1.41 8.21 1.801 8.072 2.186 7.915 2.563 7.742 2.932 7.552 3.292 7.344 3.643 7.121 3.982 6.883 4.312 6.628 4.629 6.36 4.933 6.078 5.225 5.781 5.503 5.474 5.766 5.153 6.015 4.822 6.249 4.48 6.466 4.128 6.667 3.767 6.851 3.398 7.019 3.022 7.169 2.639 7.301 2.25 7.415 1.857 7.512 1.46 7.588 1.058 7.647.655 7.687.251 7.709-.154 7.71-.559 7.694-.962 7.658-1.364 7.605-1.762 7.531-2.157 7.44-2.546 7.33-2.931 7.202-3.309 7.056-3.68 6.893-4.043 6.713-4.396 6.515-4.741 6.302-5.075 6.072-5.399 5.828-5.709 5.567-6.008 5.292-6.293 5.004-6.566 4.703-6.823 4.389-7.065 4.062-7.293 3.725-7.504 3.377-7.698 3.019-7.875 2.652-8.036 2.276-8.179 1.894-8.302 1.504-8.409 1.108-8.496.708-8.565.303-8.614-.105-8.644-.517-8.655-.929-8.646-1.342-8.619-1.756-8.571-2.168-8.504-2.579-8.418-2.987-8.313-3.391-8.189-3.792-8.045-4.186-7.884-4.575-7.705-4.958-7.506-5.331-7.291-5.697-7.058-6.054-6.809-6.4-6.544-6.735-6.262-7.06-5.965-7.371-5.654-7.67-5.329-7.956-4.989-8.227-4.638-8.483-4.274-8.724-3.898-8.95-3.513-9.158-3.116-9.35-2.71-9.525-2.298-9.682-1.876-9.82-1.448-9.941L73 276.249l-.575-10.125-.132-10.189.315-10.234.764-10.258 1.215-10.262 1.666-10.249 2.117-10.214 2.567-10.16 3.015-10.086 3.46-9.993 3.902-9.881 4.338-9.748 4.769-9.598 5.194-9.427 5.612-9.24 6.021-9.033 6.421-8.809 6.813-8.567 7.192-8.309 7.562-8.033 7.919-7.742 8.263-7.435 8.594-7.114 8.911-6.777 9.214-6.428 9.5-6.065 9.771-5.69 10.026-5.302 10.263-4.905 10.483-4.496 10.686-4.08 10.869-3.652 11.034-3.218 11.181-2.777 11.307-2.33 11.414-1.877 11.501-1.42 11.568-.958 11.616-.495 11.642-.029 11.648.438 11.634.904 11.6 1.37 11.544 1.835 11.47 2.296 11.374 2.754 11.258 3.209 11.124 3.657 10.97 4.1 10.795 4.536 10.603 4.964 10.392 5.384 10.162 5.795 9.916 6.194 9.651 6.584 9.37 6.962 9.073 7.328 8.761 7.68 8.433 8.02 8.09 8.343 7.735 8.653 7.366 8.948 6.984 9.226 6.592 9.487 6.188 9.732 5.774 9.959 5.351 10.168 4.92 10.36 4.481 10.531 4.034 10.685 3.583 10.819 3.126 10.933 2.665 11.029 2.2 11.103 1.734 11.159 1.266 11.195.796 11.209.329 11.205-.14 11.181-.604 11.135-1.067 11.072-1.524 10.987-1.979 10.884-2.426 10.762-2.868 10.62-3.302 10.46-3.729 10.282-4.145 10.085-4.552 9.873-4.95 9.642-5.335 9.395-5.708 9.132-6.07 8.853-6.417 8.561-6.751 8.253-7.069 7.933-7.373 7.598-7.662 7.253-7.932 6.895-8.188 6.527-8.425 6.148-8.646 5.761-8.847 5.366-9.031 4.961-9.195 4.552-9.342 4.134-9.468 3.714-9.575 3.288-9.663 2.859-9.731 2.428-9.778 1.994-9.808 1.56-9.815 1.127-9.805.693-9.774.263-9.723-.165-9.653-.591-9.564-1.01-9.456-1.425-9.33-1.834-9.184-2.235-9.022-2.63-8.84-3.015-8.643-3.391-8.429-3.757-8.197-4.113-7.951-4.456-7.689-4.788-7.413-5.107-7.122-5.413-6.819-5.703-6.503-5.981-6.174-6.241-5.835-6.488-5.486-6.718-5.125-6.931-4.757-7.126-4.381-7.306-3.996-7.467-3.606-7.61-3.21-7.735-2.809-7.841-2.404-7.929-1.996-7.998-1.586-8.048-1.175-8.079-.763-8.091-.351-8.084.059-8.058.466-8.013.871-7.95 1.272-7.867 1.668-7.767 2.059-7.649 2.442-7.512 2.819-7.358 3.187-7.187 3.547-6.999 3.896-6.795 4.236-6.575 4.565-6.34 4.881-6.088 5.184-5.825 5.476-5.545 5.752-5.254 6.015-4.95 6.263-4.635 6.495-4.307 6.711-3.969 6.911-3.622 7.093-3.267 7.259-2.901 7.407-2.531 7.537-2.152 7.648-1.768 7.742-1.379 7.815-.986 7.871-.59 7.908-.191 7.925.209 7.923.61 7.901 1.01 7.862 1.41 7.802 1.807 7.723 2.201 7.626 2.593 7.51 2.979 7.376 3.361 7.223 3.735 7.052 4.103 6.864 4.463 6.659 4.815 6.437 5.157 6.198 5.489 5.944 5.81 5.674 6.12 5.39 6.417 5.09 6.701 4.779 6.972 4.453 7.229 4.115 7.471 3.766 7.698 3.406 7.909 3.035 8.103 2.655 8.282 2.266 8.442 1.87 8.585 1.466 8.711 1.056 8.817.641 8.907.221 8.976-.203 9.028-.629 9.059-1.057 9.072-1.486 9.066-1.917 9.04-2.345 8.994-2.772 8.931-3.197 8.846-3.618 8.744-4.035 8.622-4.448 8.482-4.853 8.323-5.253 8.146-5.644 7.95-6.028 7.738-6.401 7.508-6.764 7.26-7.118 6.998-7.459 6.719-7.789 6.424-8.104 6.115-8.406 5.791-8.695 5.455-8.968 5.104-9.225 4.742-9.467 4.367-9.692 3.983-9.9 3.587-10.089 3.183-10.263 2.769-10.415 2.348-10.552 1.919-10.667 1.485-10.764 1.045-10.841.6-10.899.152-10.936-.299-10.953-.752-10.951-1.206-10.928-1.661-10.885-2.113-10.822-2.566-10.738-3.016-10.636-3.461-10.512-3.904-10.37-4.341-10.207-4.771-10.027-5.196-9.827-5.612-9.609-6.02-9.373-6.419-9.118-6.808-8.848-7.186-8.56-7.553-8.257-7.907-7.938-8.248-7.603-8.577-7.254-8.89-6.892-9.188-6.517-9.472-6.13-9.739-5.729-9.99-5.32-10.223-4.9-10.44-4.47-10.637-4.032-10.818-3.587-10.979-3.134-11.122-2.676-11.244-2.212-11.348-1.745-11.432-1.274-11.495-.801-11.54-.326-11.563" stroke="#271756" stroke-width="2"/>
</svg>
